# This file uses centimeters as units for non-parametric coordinates.

mtllib DeskCollider.mtl
g default
v -5.460592 0.010436 1.588477
v -4.774686 0.010436 1.588477
v -5.460592 0.844942 1.588477
v -4.774686 0.810235 1.588477
v -5.460592 0.844942 0.024716
v -4.774686 0.844942 0.024716
v -5.460592 0.010436 0.024716
v -4.774686 0.010436 0.024716
v -4.774686 0.810235 0.808418
v -5.460592 0.844942 0.808418
v -5.460592 0.010436 0.808418
v -4.774686 0.010436 0.808418
v -3.022403 0.010436 0.808418
v -3.022403 0.810235 0.808418
v -3.022403 0.010436 0.024716
v -3.022403 0.844942 0.024716
v -3.022403 0.844942 0.271496
v -4.774686 0.844942 0.271496
v -5.460592 0.844942 0.271496
v -5.460592 0.010436 0.271496
v -4.774686 0.010436 0.271496
v -3.022403 0.010436 0.271496
v -5.284902 0.844942 1.588477
v -5.284902 0.844942 0.808418
v -5.284902 0.844942 0.271496
v -5.284902 0.844942 0.024716
v -5.284902 0.010436 0.024716
v -5.284902 0.010436 0.271496
v -5.284902 0.010436 0.808418
v -5.284902 0.010436 1.588477
v -5.460592 1.223067 1.588477
v -5.284902 1.223067 1.588477
v -5.284902 1.223067 0.808418
v -5.460592 1.223067 0.808418
v -5.284902 1.223067 0.271496
v -5.460592 1.223067 0.271496
v -4.774686 1.223067 0.271496
v -4.774686 1.223067 0.024716
v -3.022403 1.223067 0.271496
v -3.022403 1.223067 0.024716
v -5.284902 1.223067 0.024716
v -5.460592 1.223067 0.024716
vt 0.375000 0.000000
vt 0.625000 0.000000
vt 0.375000 0.250000
vt 0.625000 0.250000
vt 0.375000 0.500000
vt 0.625000 0.500000
vt 0.375000 0.750000
vt 0.625000 0.750000
vt 0.375000 1.000000
vt 0.625000 1.000000
vt 0.875000 0.000000
vt 0.875000 0.250000
vt 0.125000 0.000000
vt 0.125000 0.250000
vt 0.625000 0.374709
vt 0.749709 0.250000
vt 0.250291 0.250000
vt 0.375000 0.374709
vt 0.250291 0.000000
vt 0.375000 0.875291
vt 0.625000 0.875291
vt 0.749709 0.000000
vt 0.749709 0.250000
vt 0.749709 0.000000
vt 0.875000 0.000000
vt 0.875000 0.250000
vt 0.835547 0.250000
vt 0.625000 0.460547
vt 0.835547 0.250000
vt 0.164453 0.250000
vt 0.375000 0.460547
vt 0.164453 0.000000
vt 0.375000 0.789453
vt 0.625000 0.789453
vt 0.835547 0.000000
vt 0.835547 0.000000
vt 0.443567 0.250000
vt 0.443567 0.374709
vt 0.443567 0.460547
vt 0.443567 0.500000
vt 0.443567 0.750000
vt 0.443567 0.789453
vt 0.443567 0.875291
vt 0.443567 0.000000
vt 0.443567 1.000000
vt 0.375000 0.250000
vt 0.443567 0.250000
vt 0.443567 0.374709
vt 0.375000 0.374709
vt 0.443567 0.460547
vt 0.375000 0.460547
vt 0.835547 0.250000
vt 0.835547 0.250000
vt 0.875000 0.250000
vt 0.875000 0.250000
vt 0.443567 0.500000
vt 0.375000 0.500000
vt 0.625000 0.460547
vt 0.625000 0.500000
vn 0.000000 0.000000 1.000000
vn 0.000000 0.000000 1.000000
vn 0.000000 0.000000 1.000000
vn 0.000000 0.000000 1.000000
vn 0.000000 1.000000 0.000000
vn 0.000000 1.000000 0.000000
vn 0.000000 1.000000 0.000000
vn 0.000000 1.000000 0.000000
vn -0.000000 0.000000 -1.000000
vn 0.000000 0.000000 -1.000000
vn -0.000000 0.000000 -1.000000
vn -0.000000 0.000000 -1.000000
vn 0.000000 -1.000000 0.000000
vn 0.000000 -1.000000 0.000000
vn 0.000000 -1.000000 0.000000
vn 0.000000 -1.000000 0.000000
vn 1.000000 0.000000 0.000000
vn 1.000000 0.000000 0.000000
vn 1.000000 0.000000 0.000000
vn 1.000000 0.000000 0.000000
vn -1.000000 0.000000 0.000000
vn -1.000000 0.000000 0.000000
vn -1.000000 0.000000 0.000000
vn -1.000000 0.000000 0.000000
vn 0.000000 1.000000 0.000000
vn 0.000000 1.000000 0.000000
vn -1.000000 0.000000 0.000000
vn -1.000000 0.000000 0.000000
vn 0.000000 -1.000000 0.000000
vn 0.000000 -1.000000 0.000000
vn 1.000000 0.000000 0.000000
vn 1.000000 0.000000 0.000000
vn 1.000000 0.000000 0.000000
vn 1.000000 0.000000 0.000000
vn 0.000000 0.000000 1.000000
vn 0.000000 0.000000 1.000000
vn 0.000000 0.000000 1.000000
vn 0.000000 0.000000 1.000000
vn 0.000000 -1.000000 0.000000
vn 0.000000 -1.000000 0.000000
vn 0.000000 -1.000000 0.000000
vn 0.000000 -1.000000 0.000000
vn 0.000000 0.000000 -1.000000
vn 0.000000 0.000000 -1.000000
vn 0.000000 0.000000 -1.000000
vn 0.000000 0.000000 -1.000000
vn 0.007657 0.998330 0.057255
vn 0.022532 0.998814 0.043152
vn 0.000000 0.997917 0.064505
vn 0.000000 0.997917 0.064505
vn 0.000000 1.000000 0.000000
vn 0.000000 1.000000 0.000000
vn 0.000000 1.000000 0.000000
vn 0.000000 1.000000 0.000000
vn 0.000000 1.000000 0.000000
vn 0.000000 1.000000 0.000000
vn -1.000000 0.000000 0.000000
vn -1.000000 0.000000 0.000000
vn 0.000000 -1.000000 0.000000
vn 0.000000 -1.000000 0.000000
vn 0.000000 -1.000000 0.000000
vn 0.000000 -1.000000 0.000000
vn 1.000000 0.000000 0.000000
vn 1.000000 0.000000 0.000000
vn 0.067866 0.997694 0.000000
vn 0.067866 0.997694 0.000000
vn 0.054073 0.998450 0.013156
vn 0.033974 0.998901 0.032284
vn 0.000000 -1.000000 0.000000
vn 0.000000 0.000000 1.000000
vn 0.000000 0.000000 1.000000
vn 0.000000 0.000000 1.000000
vn 0.000000 0.000000 1.000000
vn 1.000000 0.000000 0.000000
vn 1.000000 0.000000 0.000000
vn 1.000000 0.000000 0.000000
vn 1.000000 0.000000 0.000000
vn -1.000000 0.000000 0.000000
vn -1.000000 0.000000 0.000000
vn 1.000000 0.000000 0.000000
vn 1.000000 0.000000 0.000000
vn -1.000000 0.000000 0.000000
vn 0.000000 0.000000 1.000000
vn 0.000000 0.000000 1.000000
vn 0.000000 0.000000 1.000000
vn 0.000000 0.000000 1.000000
vn 1.000000 0.000000 0.000000
vn 1.000000 0.000000 0.000000
vn 0.000000 0.000000 -1.000000
vn 0.000000 0.000000 -1.000000
vn -0.000000 0.000000 -1.000000
vn -0.000000 0.000000 -1.000000
vn -1.000000 0.000000 0.000000
vn 0.000000 0.000000 1.000000
vn 0.000000 0.000000 1.000000
s 1
g pCube24
usemtl initialShadingGroup
f 1/1/1 30/44/2 23/37/3 3/3/4
s 2
f 31/46/5 32/47/6 33/48/7 34/49/8
s 3
f 26/40/9 27/41/10 7/7/11 5/5/12
s 4
f 11/20/13 29/43/14 30/45/15 1/9/16
s off
f 2/2/17 12/22/18 9/16/19 4/4/20
s 5
f 10/17/21 11/19/22 1/1/23 3/3/24
s 2
f 34/49/8 33/48/7 35/50/25 36/51/26
s 5
f 19/30/27 20/32/28 11/19/22 10/17/21
s 4
f 20/33/29 28/42/30 29/43/14 11/20/13
s 6
f 13/24/31 22/36/32 17/27/33 14/23/34
s off
f 12/22/35 13/24/36 14/23/37 9/16/38
s 4
f 12/22/39 21/35/40 22/36/41 13/24/42
s 3
f 16/26/43 15/25/44 8/11/45 6/12/46
s 7
f 18/29/47 9/16/48 14/23/49 17/27/50
s 2
f 38/55/51 37/52/52 39/53/53 40/54/54
f 36/51/26 35/50/25 41/56/55 42/57/56
s 5
f 5/14/57 7/13/58 20/32/28 19/30/27
s 4
f 7/7/59 27/41/60 28/42/30 20/33/29
f 22/36/41 21/35/40 8/11/61 15/25/62
s 6
f 22/36/32 15/25/63 16/26/64 17/27/33
s 7
f 23/37/65 4/4/66 9/15/48 24/38/67
f 25/39/68 24/38/67 9/15/48 18/28/47
s 2
f 41/56/55 35/50/25 37/58/52 38/59/51
s 3
f 6/6/46 8/8/45 27/41/10 26/40/9
s 4
f 28/42/30 27/41/60 8/8/61 21/34/40
f 29/43/14 28/42/30 21/34/40 12/21/39
f 30/45/15 29/43/14 12/21/39 2/10/69
s 1
f 30/44/2 2/2/70 4/4/71 23/37/3
f 3/3/4 23/37/3 32/47/72 31/46/73
s 9
f 23/37/74 24/38/75 33/48/76 32/47/77
s 5
f 10/18/21 3/3/24 31/46/78 34/49/79
s 9
f 24/38/75 25/39/80 35/50/81 33/48/76
s 5
f 19/31/27 10/18/21 34/49/79 36/51/82
s 10
f 18/29/83 17/27/84 39/53/85 37/52/86
s 6
f 17/27/33 16/26/64 40/54/87 39/53/88
s 3
f 16/26/43 6/12/46 38/55/89 40/54/90
f 26/40/9 5/5/12 42/57/91 41/56/92
s 5
f 5/5/57 19/31/27 36/51/82 42/57/93
s 10
f 25/39/94 18/28/83 37/58/86 35/50/95
s 3
f 6/6/46 26/40/9 41/56/92 38/59/89
