# This file uses centimeters as units for non-parametric coordinates.

mtllib Lift.mtl
g default
v -7.080432 -0.086475 -1.728308
v -5.811546 -0.086475 -1.745401
v -7.080432 0.021496 -1.728308
v -5.811546 0.021496 -1.745401
v -5.811546 -0.001216 -1.802911
v -7.080432 -0.001216 -1.802911
v -7.080432 -0.086475 -1.810552
v -5.811546 -0.086475 -1.810552
v -7.373240 -0.086475 -2.135448
v -7.373240 -0.086475 -1.997487
v -7.373240 0.021496 -1.997487
v -7.373240 0.021496 -2.135448
v -7.286800 -0.001216 -2.034474
v -7.286800 0.021496 -1.918022
v -7.286800 -0.086475 -1.918022
v -7.286800 -0.086475 -2.039535
v -7.080432 1.042531 -1.728307
v -5.811546 1.042531 -1.745401
v -5.811546 1.042531 -1.802911
v -7.080432 1.042531 -1.802911
v -7.286800 1.042531 -2.034474
v -7.286800 1.042531 -1.918022
v -7.373240 1.042531 -2.135448
v -7.373240 1.042531 -1.997487
v -7.080432 2.171535 -1.728308
v -5.811546 2.171535 -1.745401
v -7.080432 2.063565 -1.728308
v -5.811546 2.063565 -1.745401
v -5.811546 2.086278 -1.802911
v -7.080432 2.086278 -1.802911
v -7.080432 2.171535 -1.810552
v -5.811546 2.171535 -1.810552
v -7.373240 2.171535 -2.135448
v -7.373240 2.171535 -1.997487
v -7.373240 2.063565 -1.997487
v -7.373240 2.063565 -2.135448
v -7.286800 2.086278 -2.034474
v -7.286800 2.063565 -1.918022
v -7.286800 2.171535 -1.918022
v -7.286800 2.171535 -2.039535
v -5.811545 -0.001216 -2.486403
v -7.080432 -0.001216 -2.486403
v -7.373240 0.021496 -2.486429
v -7.373240 -0.086475 -2.486429
v -7.080432 -0.086475 -2.486429
v -5.811545 -0.086475 -2.486429
v -7.286800 -0.001216 -2.486403
v -7.286800 -0.086475 -2.486429
v -7.286800 1.042531 -2.486403
v -7.373240 1.042531 -2.486429
v -5.811545 2.086278 -2.486403
v -7.080432 2.086278 -2.486403
v -7.373240 2.171535 -2.486429
v -7.373240 2.063565 -2.486429
v -5.811545 2.171535 -2.486429
v -7.080432 2.171535 -2.486429
v -7.286800 2.171535 -2.486429
v -7.286800 2.086278 -2.486403
v -7.080432 -0.086475 -3.249191
v -5.811546 -0.086475 -3.232098
v -7.080432 0.021496 -3.249191
v -5.811546 0.021496 -3.232098
v -5.811546 -0.001216 -3.174587
v -7.080432 -0.001216 -3.174587
v -7.080432 -0.086475 -3.166947
v -5.811546 -0.086475 -3.166947
v -7.373240 -0.086475 -2.842051
v -7.373240 -0.086475 -2.980012
v -7.373240 0.021496 -2.980012
v -7.373240 0.021496 -2.842051
v -7.286800 -0.001216 -2.943024
v -7.286800 0.021496 -3.059476
v -7.286800 -0.086475 -3.059476
v -7.286800 -0.086475 -2.937964
v -7.080432 1.042531 -3.249191
v -5.811546 1.042531 -3.232098
v -5.811546 1.042531 -3.174588
v -7.080432 1.042531 -3.174588
v -7.286800 1.042531 -2.943024
v -7.286800 1.042531 -3.059476
v -7.373240 1.042531 -2.842051
v -7.373240 1.042531 -2.980012
v -7.080432 2.171535 -3.249191
v -5.811546 2.171535 -3.232098
v -7.080432 2.063565 -3.249191
v -5.811546 2.063565 -3.232098
v -5.811546 2.086278 -3.174587
v -7.080432 2.086278 -3.174587
v -7.080432 2.171535 -3.166947
v -5.811546 2.171535 -3.166947
v -7.373240 2.171535 -2.842051
v -7.373240 2.171535 -2.980012
v -7.373240 2.063565 -2.980012
v -7.373240 2.063565 -2.842051
v -7.286800 2.086278 -2.943024
v -7.286800 2.063565 -3.059476
v -7.286800 2.171535 -3.059476
v -7.286800 2.171535 -2.937964
vt 0.375000 0.000000
vt 0.625000 0.000000
vt 0.375000 0.250000
vt 0.625000 0.250000
vt 0.375000 1.000000
vt 0.625000 1.000000
vt 0.625000 0.262811
vt 0.637811 0.250000
vt 0.362189 0.250000
vt 0.375000 0.262811
vt 0.362189 0.000000
vt 0.375000 0.987189
vt 0.625000 0.987189
vt 0.637811 0.000000
vt 0.362189 0.000000
vt 0.375000 0.000000
vt 0.375000 0.250000
vt 0.362189 0.250000
vt 0.362189 0.250000
vt 0.375000 0.250000
vt 0.375000 0.000000
vt 0.362189 0.000000
vt 0.375000 0.250000
vt 0.625000 0.250000
vt 0.625000 0.262811
vt 0.375000 0.262811
vt 0.362189 0.250000
vt 0.362189 0.250000
vt 0.375000 0.250000
vt 0.362189 0.250000
vt 0.375000 0.250000
vt 0.375000 0.000000
vt 0.625000 0.000000
vt 0.625000 0.250000
vt 0.375000 0.250000
vt 0.375000 0.987189
vt 0.625000 0.987189
vt 0.625000 1.000000
vt 0.375000 1.000000
vt 0.637811 0.000000
vt 0.637811 0.250000
vt 0.362189 0.000000
vt 0.375000 0.000000
vt 0.375000 0.250000
vt 0.362189 0.250000
vt 0.375000 0.262811
vt 0.625000 0.262811
vt 0.362189 0.000000
vt 0.375000 0.000000
vt 0.362189 0.000000
vt 0.375000 0.250000
vt 0.362189 0.250000
vt 0.362189 0.250000
vt 0.625000 0.250000
vt 0.375000 0.250000
vt 0.625000 0.262811
vt 0.375000 0.262811
vt 0.362189 0.250000
vt 0.362189 0.250000
vt 0.375000 0.250000
vt 0.362189 0.250000
vt 0.375000 0.250000
vt 0.625000 0.371710
vt 0.746710 0.250000
vt 0.253290 0.250000
vt 0.375000 0.371710
vt 0.264397 0.250000
vt 0.264397 0.000000
vt 0.253290 0.000000
vt 0.375000 0.878290
vt 0.625000 0.878290
vt 0.746710 0.000000
vt 0.259267 0.250000
vt 0.259267 0.000000
vt 0.259267 0.250000
vt 0.259267 0.250000
vt 0.264397 0.250000
vt 0.264397 0.250000
vt 0.746710 0.250000
vt 0.625000 0.371710
vt 0.375000 0.371710
vt 0.253290 0.250000
vt 0.264397 0.000000
vt 0.264397 0.250000
vt 0.746710 0.000000
vt 0.625000 0.878290
vt 0.375000 0.878290
vt 0.253290 0.000000
vt 0.259267 0.000000
vt 0.259267 0.250000
vt 0.375000 0.000000
vt 0.625000 0.000000
vt 0.625000 0.250000
vt 0.375000 0.250000
vt 0.375000 0.987189
vt 0.625000 0.987189
vt 0.625000 1.000000
vt 0.375000 1.000000
vt 0.637811 0.000000
vt 0.637811 0.250000
vt 0.362189 0.000000
vt 0.375000 0.000000
vt 0.375000 0.250000
vt 0.362189 0.250000
vt 0.375000 0.262811
vt 0.625000 0.262811
vt 0.625000 0.371710
vt 0.375000 0.371710
vt 0.746710 0.000000
vt 0.746710 0.250000
vt 0.362189 0.000000
vt 0.375000 0.000000
vt 0.362189 0.000000
vt 0.375000 0.250000
vt 0.362189 0.250000
vt 0.253290 0.250000
vt 0.259267 0.250000
vt 0.362189 0.250000
vt 0.625000 0.250000
vt 0.375000 0.250000
vt 0.625000 0.262811
vt 0.375000 0.262811
vt 0.362189 0.250000
vt 0.362189 0.250000
vt 0.375000 0.250000
vt 0.259267 0.250000
vt 0.375000 0.250000
vt 0.362189 0.250000
vt 0.375000 0.000000
vt 0.375000 0.250000
vt 0.625000 0.250000
vt 0.625000 0.000000
vt 0.375000 0.987189
vt 0.375000 1.000000
vt 0.625000 1.000000
vt 0.625000 0.987189
vt 0.637811 0.250000
vt 0.637811 0.000000
vt 0.362189 0.000000
vt 0.362189 0.250000
vt 0.375000 0.250000
vt 0.375000 0.000000
vt 0.375000 0.262811
vt 0.375000 0.371710
vt 0.625000 0.371710
vt 0.625000 0.262811
vt 0.746710 0.250000
vt 0.746710 0.000000
vt 0.362189 0.000000
vt 0.362189 0.000000
vt 0.375000 0.000000
vt 0.375000 0.250000
vt 0.362189 0.250000
vt 0.362189 0.250000
vt 0.259267 0.250000
vt 0.253290 0.250000
vt 0.375000 0.250000
vt 0.625000 0.250000
vt 0.625000 0.262811
vt 0.375000 0.262811
vt 0.362189 0.250000
vt 0.362189 0.250000
vt 0.375000 0.250000
vt 0.259267 0.250000
vt 0.362189 0.250000
vt 0.375000 0.250000
vt 0.264397 0.250000
vt 0.264397 0.000000
vt 0.375000 0.878290
vt 0.625000 0.878290
vt 0.259267 0.000000
vt 0.253290 0.000000
vt 0.264397 0.250000
vt 0.264397 0.000000
vt 0.264397 0.250000
vt 0.625000 0.878290
vt 0.375000 0.878290
vt 0.253290 0.000000
vt 0.259267 0.000000
vt 0.264397 0.250000
vn 0.013470 0.000000 0.999909
vn 0.013470 0.000000 0.999909
vn 0.013470 -0.000000 0.999909
vn 0.013470 -0.000000 0.999909
vn 0.000000 -1.000000 -0.000000
vn 0.000000 -1.000000 -0.000000
vn 0.000000 -1.000000 0.000000
vn 0.000000 -1.000000 0.000000
vn 1.000000 0.000000 0.000000
vn 1.000000 0.000000 0.000001
vn 1.000000 -0.000000 0.000000
vn 1.000000 -0.000001 0.000000
vn -1.000000 0.000000 0.000000
vn -1.000000 0.000000 0.000000
vn -1.000000 0.000000 0.000000
vn -1.000000 0.000000 0.000000
vn 0.000000 1.000000 0.000000
vn 0.000000 1.000000 0.000000
vn 0.000000 1.000000 0.000000
vn 0.000000 1.000000 0.000000
vn 1.000000 0.000000 -0.000000
vn 1.000000 0.000000 0.000000
vn 0.000000 -1.000000 0.000000
vn 0.000000 -1.000000 0.000000
vn 0.000000 -1.000000 0.000000
vn 0.000000 -1.000000 0.000000
vn -0.676779 0.000000 0.736187
vn -0.676779 0.000000 0.736187
vn -0.676778 0.000000 0.736187
vn -0.676778 0.000000 0.736187
vn 0.000000 1.000000 0.000000
vn 0.000000 1.000000 0.000000
vn 0.000000 1.000000 0.000000
vn 0.000000 1.000000 0.000000
vn -0.676777 0.000000 0.736188
vn -0.676777 0.000000 0.736188
vn 0.000000 -1.000000 0.000000
vn 0.000000 -1.000000 0.000000
vn 0.013470 -0.000000 0.999909
vn 0.013470 -0.000000 0.999909
vn 1.000000 -0.000000 0.000000
vn 1.000000 -0.000000 0.000000
vn 0.000000 0.000000 -1.000000
vn 0.000000 0.000000 -1.000000
vn 0.000000 0.000000 -1.000000
vn 0.000000 0.000000 -1.000000
vn 0.746554 -0.000000 -0.665325
vn 0.746554 -0.000000 -0.665325
vn 0.746554 -0.000000 -0.665325
vn 0.746554 -0.000000 -0.665325
vn -0.676779 0.000000 0.736186
vn -0.676778 0.000000 0.736187
vn 1.000000 0.000000 0.000000
vn 1.000000 0.000000 0.000000
vn 1.000000 0.000000 0.000000
vn 1.000000 0.000000 0.000000
vn -1.000000 0.000000 0.000000
vn -1.000000 0.000000 0.000000
vn -0.676777 0.000000 0.736188
vn 0.013470 0.000000 0.999909
vn 0.013470 0.000000 0.999909
vn 0.013470 0.000000 0.999909
vn 0.013470 0.000000 0.999909
vn 0.000000 1.000000 -0.000000
vn 0.000000 1.000000 0.000000
vn 0.000000 1.000000 0.000000
vn 0.000000 1.000000 -0.000000
vn 1.000000 0.000000 0.000000
vn 1.000000 0.000000 0.000000
vn 1.000000 -0.000000 0.000000
vn 1.000000 -0.000001 0.000001
vn -1.000000 0.000000 0.000000
vn -1.000000 0.000000 0.000000
vn -1.000000 0.000000 0.000000
vn -1.000000 0.000000 0.000000
vn 0.000000 -1.000000 0.000000
vn 0.000000 -1.000000 0.000000
vn 0.000000 -1.000000 0.000000
vn 0.000000 -1.000000 0.000000
vn 1.000000 -0.000000 0.000000
vn 1.000000 -0.000000 -0.000000
vn 0.000000 1.000000 0.000000
vn 0.000000 1.000000 0.000000
vn 0.000000 1.000000 0.000000
vn 0.000000 1.000000 0.000000
vn -0.676778 0.000000 0.736187
vn -0.676778 0.000000 0.736188
vn -0.676778 0.000000 0.736187
vn -0.676779 0.000000 0.736186
vn 0.000000 -1.000000 -0.000000
vn 0.000000 -1.000000 -0.000000
vn 0.000000 -1.000000 0.000000
vn 0.000000 -1.000000 0.000000
vn -0.676776 0.000000 0.736189
vn -0.676777 0.000000 0.736188
vn 0.000000 1.000000 0.000000
vn 0.000000 1.000000 0.000000
vn 0.000000 -0.000000 -1.000000
vn 0.000000 -0.000000 -1.000000
vn 0.746554 0.000000 -0.665325
vn 0.746554 0.000000 -0.665325
vn 1.000000 0.000000 0.000000
vn 1.000000 0.000000 0.000000
vn -1.000000 0.000000 0.000000
vn -1.000000 0.000000 0.000000
vn 0.000000 -1.000000 -0.000000
vn 0.000000 -1.000000 -0.000000
vn 0.000000 -1.000000 0.000000
vn 0.000000 -1.000000 0.000000
vn 0.000000 -1.000000 0.000000
vn 0.000000 -1.000000 0.000000
vn 0.000000 -1.000000 0.000000
vn 0.000000 -1.000000 0.000000
vn -1.000000 0.000000 0.000000
vn -1.000000 0.000000 0.000000
vn -1.000000 0.000000 0.000000
vn 0.000000 1.000000 -0.000000
vn 0.000000 1.000000 -0.000000
vn 0.000000 1.000000 0.000000
vn 0.000000 1.000000 0.000000
vn 0.000000 1.000000 0.000000
vn 0.000000 1.000000 0.000000
vn 0.000000 1.000000 0.000000
vn 0.000000 1.000000 0.000000
vn 0.013470 0.000000 -0.999909
vn 0.013470 -0.000000 -0.999909
vn 0.013470 -0.000000 -0.999909
vn 0.013470 0.000000 -0.999909
vn 0.000000 -1.000000 0.000000
vn 0.000000 -1.000000 0.000000
vn 0.000000 -1.000000 0.000000
vn 0.000000 -1.000000 0.000000
vn 1.000000 0.000000 0.000000
vn 1.000000 0.000000 0.000000
vn 1.000000 0.000000 -0.000000
vn 1.000000 0.000001 -0.000001
vn -1.000000 0.000000 0.000000
vn -1.000000 0.000000 0.000000
vn -1.000000 0.000000 0.000000
vn -1.000000 0.000000 0.000000
vn 0.000000 1.000000 0.000000
vn 0.000000 1.000000 0.000000
vn 0.000000 -1.000000 0.000000
vn 0.000000 -1.000000 0.000000
vn 0.000000 -1.000000 0.000000
vn 0.000000 -1.000000 0.000000
vn -0.676778 0.000000 -0.736187
vn -0.676778 0.000000 -0.736187
vn -0.676778 -0.000000 -0.736187
vn -0.676779 -0.000000 -0.736187
vn 0.000000 1.000000 0.000000
vn 0.000000 1.000000 0.000000
vn -0.676777 0.000000 -0.736188
vn -0.676776 0.000000 -0.736189
vn 0.000000 -1.000000 0.000000
vn 0.000000 -1.000000 0.000000
vn 0.013470 0.000000 -0.999909
vn 0.013470 0.000000 -0.999909
vn 1.000000 0.000000 0.000000
vn 1.000000 0.000000 0.000000
vn 0.000000 0.000000 1.000000
vn 0.000000 0.000000 1.000000
vn 0.000000 0.000000 1.000000
vn 0.000000 0.000000 1.000000
vn 0.746554 0.000000 0.665325
vn 0.746554 0.000000 0.665325
vn 0.746554 0.000000 0.665325
vn 0.746554 0.000000 0.665325
vn -0.676778 0.000000 -0.736187
vn -0.676779 0.000000 -0.736187
vn 1.000000 0.000000 0.000000
vn 1.000000 0.000000 0.000000
vn -1.000000 0.000000 0.000000
vn -1.000000 0.000000 0.000000
vn -0.676776 0.000000 -0.736189
vn 0.013470 0.000000 -0.999909
vn 0.013470 0.000000 -0.999909
vn 0.013470 0.000000 -0.999909
vn 0.013470 0.000000 -0.999909
vn 0.000000 1.000000 0.000000
vn 0.000000 1.000000 0.000000
vn 0.000000 1.000000 0.000000
vn 0.000000 1.000000 0.000000
vn 1.000000 0.000000 0.000000
vn 1.000000 0.000000 -0.000001
vn 1.000000 0.000000 -0.000000
vn 1.000000 0.000000 0.000000
vn -1.000000 0.000000 0.000000
vn -1.000000 0.000000 0.000000
vn -1.000000 0.000000 0.000000
vn -1.000000 0.000000 0.000000
vn 0.000000 -1.000000 0.000000
vn 0.000000 -1.000000 0.000000
vn 0.000000 1.000000 0.000000
vn 0.000000 1.000000 0.000000
vn 0.000000 1.000000 0.000000
vn 0.000000 1.000000 0.000000
vn -0.676777 0.000000 -0.736188
vn -0.676779 0.000000 -0.736187
vn -0.676778 0.000000 -0.736187
vn -0.676777 0.000000 -0.736188
vn 0.000000 -1.000000 0.000000
vn 0.000000 -1.000000 0.000000
vn -0.676776 0.000000 -0.736189
vn -0.676776 0.000000 -0.736189
vn 0.000000 1.000000 0.000000
vn 0.000000 1.000000 0.000000
vn 0.000000 -0.000000 1.000000
vn 0.000000 -0.000000 1.000000
vn 0.746554 -0.000000 0.665325
vn 0.746554 -0.000000 0.665325
vn 1.000000 0.000000 0.000000
vn 0.000000 -1.000000 0.000000
vn 0.000000 -1.000000 0.000000
vn 0.000000 -1.000000 0.000000
vn 0.000000 1.000000 0.000000
vn 0.000000 1.000000 0.000000
vn 0.000000 1.000000 0.000000
s 1
g pCube29
usemtl initialShadingGroup
f 1/1/1 2/2/2 4/4/3 3/3/4
s 2
f 7/12/5 8/13/6 2/6/7 1/5/8
s 3
f 2/2/9 8/14/10 5/8/11 4/4/12
s 4
f 9/15/13 10/16/14 11/17/15 12/18/16
s 5
f 6/10/17 5/7/18 41/63/19 42/66/20
s 3
f 5/8/11 8/14/10 46/72/21 41/64/22
s 6
f 7/11/23 1/1/24 15/21/25 16/22/26
s 7
f 1/1/27 3/3/28 14/20/29 15/21/30
s 8
f 6/9/31 42/65/32 47/73/33 13/19/34
s 7
f 15/21/30 14/20/29 11/17/35 10/16/36
s 6
f 16/22/26 15/21/25 10/16/37 9/15/38
s 1
f 3/3/4 4/4/3 18/24/39 17/23/40
s 3
f 4/4/12 5/7/11 19/25/41 18/24/42
s 9
f 5/7/43 6/10/44 20/26/45 19/25/46
s 10
f 6/9/47 13/19/48 21/28/49 20/27/50
s 7
f 14/20/29 3/3/28 17/23/51 22/29/52
s 11
f 13/19/53 47/73/54 49/75/55 21/28/56
s 4
f 12/18/16 11/17/15 24/31/57 23/30/58
s 7
f 11/17/35 14/20/29 22/29/52 24/31/59
s 1
f 25/32/60 27/35/61 28/34/62 26/33/63
s 12
f 31/36/64 25/39/65 26/38/66 32/37/67
s 3
f 26/33/68 28/34/69 29/41/70 32/40/71
s 4
f 33/42/72 36/45/73 35/44/74 34/43/75
s 14
f 30/46/76 52/81/77 51/80/78 29/47/79
s 3
f 29/41/70 51/79/80 55/85/81 32/40/71
s 15
f 31/48/82 40/50/83 39/49/84 25/32/85
s 7
f 25/32/86 39/49/87 38/51/88 27/35/89
s 17
f 30/52/90 37/53/91 58/90/92 52/82/93
s 7
f 39/49/87 34/43/94 35/44/95 38/51/88
s 15
f 40/50/83 33/42/96 34/43/97 39/49/84
s 1
f 27/35/61 17/55/40 18/54/39 28/34/62
s 3
f 28/34/69 18/54/42 19/56/41 29/47/70
s 9
f 29/47/98 19/56/46 20/57/45 30/46/99
s 10
f 30/52/100 20/59/50 21/58/49 37/53/101
s 7
f 38/51/88 22/60/52 17/55/51 27/35/89
s 11
f 37/53/102 21/58/56 49/76/55 58/90/103
s 4
f 36/45/73 23/61/58 24/62/57 35/44/74
s 7
f 35/44/95 24/62/59 22/60/52 38/51/88
s 4
f 43/67/104 44/68/105 9/15/13 12/18/16
s 2
f 45/70/106 46/71/107 8/13/6 7/12/5
s 18
f 48/74/108 45/69/109 7/11/110 16/22/111
f 44/68/112 48/74/108 16/22/111 9/15/113
s 4
f 50/77/114 43/67/104 12/18/16 23/30/58
f 53/83/115 54/84/116 36/45/73 33/42/72
s 12
f 55/86/117 56/87/118 31/36/64 32/37/67
s 19
f 56/88/119 57/89/120 40/50/121 31/48/122
f 57/89/120 53/83/123 33/42/124 40/50/121
s 4
f 54/84/116 50/78/114 23/61/58 36/45/73
s 20
f 59/91/125 61/94/126 62/93/127 60/92/128
s 2
f 65/95/129 59/98/130 60/97/131 66/96/132
s 3
f 60/92/133 62/93/134 63/100/135 66/99/136
s 4
f 67/101/137 70/104/138 69/103/139 68/102/140
s 5
f 64/105/141 42/108/20 41/107/19 63/106/142
s 3
f 63/100/135 41/110/22 46/109/21 66/99/136
s 22
f 65/111/143 74/113/144 73/112/145 59/91/146
s 23
f 59/91/147 73/112/148 72/114/149 61/94/150
s 8
f 64/115/151 71/118/152 47/117/33 42/116/32
s 23
f 73/112/148 68/102/153 69/103/154 72/114/149
s 22
f 74/113/144 67/101/155 68/102/156 73/112/145
s 20
f 61/94/126 75/120/157 76/119/158 62/93/127
s 3
f 62/93/134 76/119/159 77/121/160 63/106/135
s 24
f 63/106/161 77/121/162 78/122/163 64/105/164
s 25
f 64/115/165 78/124/166 79/123/167 71/118/168
s 23
f 72/114/149 80/125/169 75/120/170 61/94/150
s 11
f 71/118/171 79/123/172 49/126/55 47/117/54
s 4
f 70/104/138 81/128/173 82/127/174 69/103/139
s 23
f 69/103/154 82/127/175 80/125/169 72/114/149
s 20
f 83/129/176 84/132/177 86/131/178 85/130/179
s 12
f 89/133/180 90/136/181 84/135/182 83/134/183
s 3
f 84/132/184 90/138/185 87/137/186 86/131/187
s 4
f 91/139/188 92/142/189 93/141/190 94/140/191
s 14
f 88/143/192 87/146/193 51/145/78 52/144/77
s 3
f 87/137/186 90/138/185 55/148/81 51/147/80
s 26
f 89/149/194 83/129/195 97/151/196 98/150/197
s 23
f 83/129/198 85/130/199 96/152/200 97/151/201
s 17
f 88/153/202 52/156/93 58/155/92 95/154/203
s 23
f 97/151/201 96/152/200 93/141/204 92/142/205
s 26
f 98/150/197 97/151/196 92/142/206 91/139/207
s 20
f 85/130/179 86/131/178 76/158/158 75/157/157
s 3
f 86/131/187 87/146/186 77/159/160 76/158/159
s 24
f 87/146/208 88/143/209 78/160/163 77/159/162
s 25
f 88/153/210 95/154/211 79/162/167 78/161/166
s 23
f 96/152/200 85/130/199 75/157/170 80/163/169
s 11
f 95/154/212 58/155/103 49/164/55 79/162/172
s 4
f 94/140/191 93/141/190 82/166/174 81/165/173
s 23
f 93/141/204 96/152/200 80/163/169 82/166/175
s 4
f 43/167/104 70/104/138 67/101/137 44/168/105
s 2
f 45/169/106 65/95/129 66/96/132 46/170/107
s 18
f 48/171/108 74/113/213 65/111/214 45/172/109
f 44/168/112 67/101/215 74/113/213 48/171/108
s 4
f 50/173/114 81/128/173 70/104/138 43/167/104
f 53/174/115 91/139/188 94/140/191 54/175/116
s 12
f 55/176/117 90/136/181 89/133/180 56/177/118
s 19
f 56/178/119 89/149/216 98/150/217 57/179/120
f 57/179/120 98/150/217 91/139/218 53/174/123
s 4
f 54/175/116 94/140/191 81/165/173 50/180/114
