# This file uses centimeters as units for non-parametric coordinates.

mtllib PhoneTableCollider.mtl
g default
v -0.560506 0.042876 4.619018
v 0.553847 0.042876 4.619018
v -0.560506 1.041842 4.619018
v 0.553847 1.041842 4.619018
v -0.489960 1.041842 4.170953
v 0.612270 1.041842 4.170953
v -0.489960 0.042876 4.170953
v 0.612270 0.042876 4.170953
v -0.843803 0.042876 5.251273
v 0.907690 0.042876 5.251273
v 0.907690 1.041842 5.251273
v -0.843803 1.041842 5.251273
v -0.863899 1.041842 3.592803
v 0.915727 1.041842 3.592803
v 0.915727 0.042876 3.592803
v -0.863899 0.042876 3.592803
v -0.163765 0.042876 5.875182
v 0.227652 0.042876 5.875182
v 0.227652 1.041842 5.875182
v -0.163765 1.041842 5.875182
v -0.163765 1.041842 2.928702
v 0.227652 1.041842 2.928702
v 0.227652 0.042876 2.928702
v -0.163765 0.042876 2.928702
vt 0.375000 0.000000
vt 0.625000 0.000000
vt 0.375000 0.250000
vt 0.625000 0.250000
vt 0.375000 0.500000
vt 0.625000 0.500000
vt 0.375000 0.750000
vt 0.625000 0.750000
vt 0.375000 1.000000
vt 0.625000 1.000000
vt 0.875000 0.000000
vt 0.875000 0.250000
vt 0.125000 0.000000
vt 0.125000 0.250000
vt 0.375000 0.000000
vt 0.625000 0.000000
vt 0.625000 0.250000
vt 0.375000 0.250000
vt 0.375000 0.500000
vt 0.625000 0.500000
vt 0.625000 0.750000
vt 0.375000 0.750000
vt 0.375000 0.000000
vt 0.625000 0.000000
vt 0.625000 0.250000
vt 0.375000 0.250000
vt 0.375000 0.500000
vt 0.625000 0.500000
vt 0.625000 0.750000
vt 0.375000 0.750000
vn 0.000000 0.000000 1.000000
vn 0.000000 0.000000 1.000000
vn 0.000000 0.000000 1.000000
vn 0.000000 0.000000 1.000000
vn 0.000000 1.000000 0.000000
vn 0.000000 1.000000 0.000000
vn 0.000000 1.000000 -0.000000
vn 0.000000 1.000000 -0.000000
vn 0.000000 0.000000 -1.000000
vn 0.000000 0.000000 -1.000000
vn 0.000000 0.000000 -1.000000
vn 0.000000 0.000000 -1.000000
vn 0.000000 -1.000000 0.000000
vn 0.000000 -1.000000 0.000000
vn 0.000000 -1.000000 -0.000000
vn 0.000000 -1.000000 -0.000000
vn 0.964585 0.000000 -0.263772
vn 0.943081 0.000000 0.332564
vn 0.943081 0.000000 0.332564
vn 0.964585 0.000000 -0.263772
vn -0.958969 0.000000 0.283512
vn -0.950323 0.000000 -0.311264
vn -0.950323 0.000000 -0.311264
vn -0.958969 0.000000 0.283512
vn 0.000000 -1.000000 0.000000
vn 0.000000 -1.000000 0.000000
vn 0.967899 0.000000 0.251340
vn 0.967899 0.000000 0.251340
vn 0.000000 1.000000 0.000000
vn 0.000000 1.000000 0.000000
vn -0.953570 0.000000 0.301171
vn -0.953570 0.000000 0.301171
vn 0.000000 1.000000 -0.000000
vn 0.000000 1.000000 -0.000000
vn 0.885443 0.000000 0.464748
vn 0.885443 0.000000 0.464748
vn 0.000000 -1.000000 0.000000
vn 0.000000 -1.000000 0.000000
vn -0.839675 0.000000 0.543089
vn -0.839675 0.000000 0.543089
vn 0.000000 -1.000000 0.000000
vn 0.000000 -1.000000 0.000000
vn 0.676043 0.000000 0.736862
vn 0.676043 0.000000 0.736862
vn 0.000000 1.000000 0.000000
vn 0.000000 1.000000 0.000000
vn -0.676043 0.000000 0.736862
vn -0.676043 0.000000 0.736862
vn 0.000000 1.000000 0.000000
vn 0.000000 1.000000 0.000000
vn 0.694461 0.000000 -0.719530
vn 0.694461 0.000000 -0.719530
vn 0.694461 0.000000 -0.719530
vn 0.694461 0.000000 -0.719530
vn 0.000000 -1.000000 -0.000000
vn 0.000000 -1.000000 -0.000000
vn -0.688190 0.000000 -0.725530
vn -0.688190 0.000000 -0.725530
vn -0.688190 0.000000 -0.725530
vn -0.688190 0.000000 -0.725530
s off
g pCube28
usemtl initialShadingGroup
f 17/23/1 18/24/2 19/25/3 20/26/4
s 1
f 3/3/5 4/4/6 6/6/7 5/5/8
s off
f 21/27/9 22/28/10 23/29/11 24/30/12
s 2
f 7/7/13 8/8/14 2/10/15 1/9/16
s 3
f 2/2/17 8/11/18 6/12/19 4/4/20
s 4
f 7/13/21 1/1/22 3/3/23 5/14/24
s 2
f 1/1/16 2/2/15 10/16/25 9/15/26
s 3
f 2/2/17 4/4/20 11/17/27 10/16/28
s 1
f 4/4/6 3/3/5 12/18/29 11/17/30
s 4
f 3/3/23 1/1/22 9/15/31 12/18/32
s 1
f 5/5/8 6/6/7 14/20/33 13/19/34
s 3
f 6/6/19 8/8/18 15/21/35 14/20/36
s 2
f 8/8/14 7/7/13 16/22/37 15/21/38
s 4
f 7/7/21 5/5/24 13/19/39 16/22/40
s 2
f 9/15/26 10/16/25 18/24/41 17/23/42
s 3
f 10/16/28 11/17/27 19/25/43 18/24/44
s 1
f 11/17/30 12/18/29 20/26/45 19/25/46
s 4
f 12/18/32 9/15/31 17/23/47 20/26/48
s 1
f 13/19/34 14/20/33 22/28/49 21/27/50
s off
f 14/20/51 15/21/52 23/29/53 22/28/54
s 2
f 15/21/38 16/22/37 24/30/55 23/29/56
s off
f 16/22/57 13/19/58 21/27/59 24/30/60
