# This file uses centimeters as units for non-parametric coordinates.

mtllib Pencil_LP.mtl
g default
v 0.165619 3.779537 -0.286861
v -0.165619 3.779537 -0.286861
v -0.331238 3.779537 -0.000000
v -0.165619 3.779537 0.286861
v 0.165619 3.779537 0.286861
v 0.331238 3.779537 -0.000000
v 0.165619 8.777231 -0.286861
v -0.165619 8.777231 -0.286861
v -0.331238 8.777231 -0.000000
v -0.165619 8.777231 0.286861
v 0.165619 8.777231 0.286861
v 0.331238 8.777231 0.000000
v 0.000000 10.054050 0.000000
v 0.165619 2.898057 -0.286861
v -0.165619 2.898057 -0.286861
v 0.000000 2.898057 -0.000000
v -0.331238 2.898057 -0.000000
v -0.165619 2.898057 0.286861
v 0.165619 2.898057 0.286861
v 0.331238 2.898057 -0.000000
vt 0.673991 0.117205
vt 0.664045 0.265958
vt 0.540177 0.182988
vt 0.550105 0.034245
vt 0.416316 0.100029
vt 0.406390 0.248783
vt 0.729701 0.009117
vt 0.729701 0.990883
vt 0.874215 0.990883
vt 0.758604 0.009117
vt 0.758604 0.990883
vt 0.787506 0.009117
vt 0.787506 0.990883
vt 0.816409 0.009117
vt 0.816409 0.990883
vt 0.845312 0.009117
vt 0.845312 0.990883
vt 0.530259 0.331746
vt 0.037905 0.275002
vt 0.544860 0.535406
vt 0.086220 0.616791
vt 0.371416 0.890986
vt 0.163520 0.554386
vt 0.253930 0.513207
vt 0.351749 0.495849
vt 0.450807 0.503408
vt 0.037905 0.024775
vt 0.087300 0.275002
vt 0.087300 0.024775
vt 0.874215 0.009117
vt 0.903118 0.009117
vt 0.903118 0.990883
vt 0.627975 0.589827
vt 0.136696 0.275002
vt 0.136696 0.024775
vt 0.186091 0.275002
vt 0.186091 0.024775
vt 0.235486 0.275002
vt 0.235486 0.024775
vt 0.334276 0.275002
vt 0.284881 0.275002
vt 0.284881 0.024775
vt 0.334276 0.024775
vn 0.000000 0.000000 -1.000000
vn 0.000000 0.000000 -1.000000
vn 0.000000 0.000000 -1.000000
vn 0.000000 0.000000 -1.000000
vn -0.866025 0.000000 -0.500000
vn -0.866025 0.000000 -0.500000
vn -0.866025 0.000000 -0.500000
vn -0.866025 0.000000 -0.500000
vn -0.866025 0.000000 0.500000
vn -0.866025 0.000000 0.500000
vn -0.866025 0.000000 0.500000
vn -0.866025 0.000000 0.500000
vn 0.000000 0.000000 1.000000
vn 0.000000 0.000000 1.000000
vn 0.000000 0.000000 1.000000
vn 0.000000 0.000000 1.000000
vn 0.866025 0.000000 0.500000
vn 0.866025 0.000000 0.500000
vn 0.866025 0.000000 0.500000
vn 0.866025 0.000000 0.500000
vn 0.866025 0.000000 -0.500000
vn 0.866025 0.000000 -0.500000
vn 0.866025 0.000000 -0.500000
vn 0.866025 0.000000 -0.500000
vn 0.000000 -1.000000 0.000002
vn 0.000000 -1.000000 0.000002
vn 0.000000 -1.000000 0.000002
vn 0.000000 -1.000000 0.000000
vn 0.000000 -1.000000 0.000000
vn 0.000000 -1.000000 0.000000
vn 0.000000 -1.000000 0.000000
vn 0.000000 -1.000000 0.000000
vn 0.000000 -1.000000 0.000000
vn 0.000000 -1.000000 0.000002
vn 0.000000 -1.000000 0.000002
vn 0.000000 -1.000000 0.000002
vn 0.000000 -1.000000 0.000000
vn 0.000000 -1.000000 0.000000
vn 0.000000 -1.000000 0.000000
vn 0.000000 -1.000000 0.000000
vn 0.000000 -1.000000 0.000000
vn 0.000000 -1.000000 0.000000
vn 0.000000 0.219204 -0.975679
vn 0.000000 0.219204 -0.975679
vn 0.000000 0.219204 -0.975679
vn -0.844963 0.219204 -0.487840
vn -0.844963 0.219204 -0.487840
vn -0.844963 0.219204 -0.487840
vn -0.844963 0.219204 0.487839
vn -0.844963 0.219204 0.487839
vn -0.844963 0.219204 0.487839
vn 0.000000 0.219204 0.975679
vn 0.000000 0.219204 0.975679
vn 0.000000 0.219204 0.975679
vn 0.844963 0.219204 0.487840
vn 0.844963 0.219204 0.487840
vn 0.844963 0.219204 0.487840
vn 0.844963 0.219204 -0.487839
vn 0.844963 0.219204 -0.487839
vn 0.844963 0.219204 -0.487839
vn 0.000000 0.000000 -1.000000
vn 0.000000 0.000000 -1.000000
vn 0.000000 0.000000 -1.000000
vn 0.000000 0.000000 -1.000000
vn -0.866025 0.000000 -0.500000
vn -0.866025 0.000000 -0.500000
vn -0.866025 0.000000 -0.500000
vn -0.866025 0.000000 -0.500000
vn -0.866025 0.000000 0.500000
vn -0.866025 0.000000 0.500000
vn -0.866025 0.000000 0.500000
vn -0.866025 0.000000 0.500000
vn 0.000000 0.000000 1.000000
vn 0.000000 0.000000 1.000000
vn 0.000000 0.000000 1.000000
vn 0.000000 0.000000 1.000000
vn 0.866025 0.000000 0.500000
vn 0.866025 0.000000 0.500000
vn 0.866025 0.000000 0.500000
vn 0.866025 0.000000 0.500000
vn 0.866025 0.000000 -0.500000
vn 0.866025 0.000000 -0.500000
vn 0.866025 0.000000 -0.500000
vn 0.866025 0.000000 -0.500000
s off
g pCylinder1
usemtl initialShadingGroup
f 1/30/1 2/31/2 8/32/3 7/9/4
f 2/7/5 3/10/6 9/11/7 8/8/8
f 3/10/9 4/12/10 10/13/11 9/11/12
f 4/12/13 5/14/14 11/15/15 10/13/16
f 5/14/17 6/16/18 12/17/19 11/15/20
f 6/16/21 1/30/22 7/9/23 12/17/24
f 15/1/25 14/2/26 16/3/27
f 17/4/28 15/1/29 16/3/30
f 18/5/31 17/4/32 16/3/33
f 19/6/34 18/5/35 16/3/36
f 20/18/37 19/6/38 16/3/39
f 14/2/40 20/18/41 16/3/42
f 7/20/43 8/33/44 13/22/45
f 8/21/46 9/23/47 13/22/48
f 9/23/49 10/24/50 13/22/51
f 10/24/52 11/25/53 13/22/54
f 11/25/55 12/26/56 13/22/57
f 12/26/58 7/20/59 13/22/60
f 2/40/61 1/41/62 14/42/63 15/43/64
f 3/28/65 2/19/66 15/27/67 17/29/68
f 4/34/69 3/28/70 17/29/71 18/35/72
f 5/36/73 4/34/74 18/35/75 19/37/76
f 6/38/77 5/36/78 19/37/79 20/39/80
f 1/41/81 6/38/82 20/39/83 14/42/84
