# This file uses centimeters as units for non-parametric coordinates.

mtllib PencilHolderLP.mtl
g default
v -0.725758 -0.050968 0.515599
v 0.725758 -0.050968 0.515599
v -0.725758 2.975432 0.515599
v 0.725758 2.975432 0.515599
v -0.725758 -0.050968 -2.081454
v 0.725758 -0.050968 -2.081454
v 0.725758 2.017022 -2.081454
v -0.725758 2.017022 -2.081454
v -0.725758 2.017022 0.515599
v 0.725758 2.017022 0.515599
v 0.725758 0.301490 -2.081454
v -0.725758 0.301490 -2.081454
v -0.725758 0.301490 0.515599
v 0.725758 0.301490 0.515599
v 0.725758 -0.050968 -0.771623
v -0.725758 -0.050968 -0.771623
v -0.725758 0.301490 -0.771623
v -0.725758 2.017022 -0.771623
v -0.725758 2.975432 -0.771623
v 0.725758 2.975432 -0.771623
v 0.725758 2.017022 -0.771623
v 0.725758 0.301490 -0.771623
v -0.609638 2.017022 -1.976669
v -0.609638 2.017022 -0.876409
v 0.609638 2.017022 -0.876409
v 0.609638 2.017022 -1.976669
v -0.610541 2.975432 0.413423
v 0.610541 2.975432 0.413423
v 0.610541 2.975432 -0.669448
v -0.610541 2.975432 -0.669448
v -0.610541 0.197237 0.413423
v 0.610541 0.197237 0.413423
v 0.610541 0.197237 -0.669448
v -0.610541 0.197237 -0.669448
v -0.609638 0.157631 -1.976669
v -0.609638 0.157631 -0.876409
v 0.609638 0.157631 -0.876409
v 0.609638 0.157631 -1.976669
v 0.768212 0.311798 -2.157413
v -0.768212 0.311798 -2.157413
v 0.768212 -0.061277 -2.157413
v -0.768212 -0.061277 -2.157413
v -0.768212 -0.061277 -0.770962
v -0.768212 0.311798 -0.770962
v -0.768212 -0.061277 0.591558
v 0.768212 -0.061277 0.591558
v 0.768212 0.311798 0.591558
v -0.768212 0.311798 0.591558
v 0.768212 0.311798 -0.770962
v 0.768212 -0.061277 -0.770962
vt 0.437932 0.228483
vt 0.579576 0.228412
vt 0.578732 0.321855
vt 0.437183 0.321855
vt 0.151538 0.887831
vt 0.149686 0.759009
vt 0.288924 0.758032
vt 0.290774 0.886854
vt 0.184703 0.228387
vt 0.043140 0.228408
vt 0.043146 0.061102
vt 0.184709 0.061102
vt 0.312462 0.061102
vt 0.312431 0.228427
vt 0.438034 0.061122
vt 0.579567 0.061186
vt 0.704936 0.061218
vt 0.831297 0.061261
vt 0.831297 0.228016
vt 0.705164 0.228095
vt 0.143629 0.929619
vt 0.019757 0.930489
vt 0.019560 0.888757
vt 0.143432 0.887888
vt 0.290774 0.886854
vt 0.290971 0.928585
vt 0.419430 0.885951
vt 0.492997 0.885434
vt 0.493194 0.927166
vt 0.419628 0.927682
vt 0.547243 0.926786
vt 0.547046 0.885055
vt 0.596753 0.884706
vt 0.596951 0.926437
vt 0.412351 0.757165
vt 0.414202 0.885987
vt 0.312320 0.321855
vt 0.291175 0.722466
vt 0.290506 0.603360
vt 0.396125 0.602782
vt 0.396785 0.721875
vt 0.705164 0.321855
vt 0.706505 0.570390
vt 0.707061 0.441974
vt 0.849379 0.442423
vt 0.849027 0.570642
vt 0.437183 0.447583
vt 0.578732 0.447583
vt 0.578732 0.540886
vt 0.437183 0.540886
vt 0.831297 0.367227
vt 0.705164 0.367227
vt 0.714983 0.356064
vt 0.821187 0.356064
vt 0.715196 0.239263
vt 0.821187 0.239157
vt 0.567756 0.331968
vt 0.448673 0.331968
vt 0.567756 0.437617
vt 0.448673 0.437617
vt 0.020208 0.723966
vt 0.019546 0.604869
vt 0.018961 0.499254
vt 0.289919 0.497748
vt 0.018291 0.380143
vt 0.289281 0.378658
vt 0.017716 0.274554
vt 0.288672 0.273046
vt 0.706505 0.788468
vt 0.577503 0.788435
vt 0.577503 0.570422
vt 0.434567 0.788422
vt 0.434567 0.570435
vt 0.977942 0.787749
vt 0.849309 0.788132
vt 0.977513 0.570479
vt 0.151233 0.929566
vt 0.031478 0.930406
vt 0.141580 0.759066
vt 0.290971 0.928585
vt 0.417578 0.757129
vt 0.493194 0.927166
vt 0.409487 0.927753
vt 0.288924 0.758032
vt 0.593124 0.926465
vt 0.546731 0.926790
vn 0.000000 0.000000 1.000000
vn 0.000000 0.000000 1.000000
vn 0.000000 0.000000 1.000000
vn 0.000000 0.000000 1.000000
vn 0.000000 -1.000000 0.000000
vn 0.000000 -1.000000 0.000000
vn 0.000000 -1.000000 0.000000
vn 0.000000 -1.000000 0.000000
vn 0.000000 0.000000 -1.000000
vn 0.000000 0.000000 -1.000000
vn 0.000000 0.000000 -1.000000
vn 0.000000 0.000000 -1.000000
vn -1.000000 0.000000 0.000000
vn -1.000000 0.000000 0.000000
vn -1.000000 0.000000 0.000000
vn -1.000000 0.000000 0.000000
vn 0.000000 0.000000 1.000000
vn 0.000000 0.000000 1.000000
vn 0.000000 0.000000 1.000000
vn 0.000000 0.000000 1.000000
vn 1.000000 0.000000 0.000000
vn 1.000000 0.000000 0.000000
vn 1.000000 0.000000 0.000000
vn 1.000000 0.000000 0.000000
vn 0.000000 0.000000 -1.000000
vn 0.000000 0.000000 -1.000000
vn 0.000000 0.000000 -1.000000
vn 0.000000 0.000000 -1.000000
vn -1.000000 0.000000 0.000000
vn -1.000000 0.000000 0.000000
vn -1.000000 0.000000 0.000000
vn -1.000000 0.000000 0.000000
vn 0.000000 0.000000 1.000000
vn 0.000000 0.000000 1.000000
vn 0.000000 0.000000 1.000000
vn 0.000000 0.000000 1.000000
vn 1.000000 0.000000 0.000000
vn 1.000000 0.000000 0.000000
vn 1.000000 0.000000 0.000000
vn 1.000000 0.000000 0.000000
vn 0.000000 -1.000000 0.000000
vn 0.000000 -1.000000 0.000000
vn 0.000000 -1.000000 0.000000
vn 0.000000 -1.000000 0.000000
vn -1.000000 0.000000 0.000000
vn -1.000000 0.000000 0.000000
vn -1.000000 0.000000 0.000000
vn -1.000000 0.000000 0.000000
vn -1.000000 0.000000 0.000000
vn -1.000000 0.000000 0.000000
vn -1.000000 0.000000 0.000000
vn -1.000000 0.000000 0.000000
vn -1.000000 0.000000 0.000000
vn -1.000000 0.000000 0.000000
vn -1.000000 0.000000 0.000000
vn -1.000000 0.000000 0.000000
vn 0.000000 1.000000 0.000000
vn 0.000000 1.000000 0.000000
vn 0.000000 1.000000 0.000000
vn 0.000000 1.000000 0.000000
vn 1.000000 0.000000 0.000000
vn 1.000000 0.000000 0.000000
vn 1.000000 0.000000 0.000000
vn 1.000000 0.000000 0.000000
vn 1.000000 0.000000 0.000000
vn 1.000000 0.000000 0.000000
vn 1.000000 0.000000 0.000000
vn 1.000000 0.000000 0.000000
vn 1.000000 0.000000 0.000000
vn 1.000000 0.000000 0.000000
vn 1.000000 0.000000 0.000000
vn 1.000000 0.000000 0.000000
vn 0.000000 1.000000 0.000000
vn 0.000000 1.000000 0.000000
vn 0.000000 1.000000 0.000000
vn 0.000000 1.000000 0.000000
vn 0.000000 0.000000 -1.000000
vn 0.000000 0.000000 -1.000000
vn 0.000000 0.000000 -1.000000
vn 0.000000 0.000000 -1.000000
vn 0.000000 1.000000 0.000000
vn 0.000000 1.000000 0.000000
vn 0.000000 1.000000 0.000000
vn 0.000000 1.000000 0.000000
vn 0.000000 1.000000 -0.000001
vn 0.000000 1.000000 -0.000001
vn 0.000000 1.000000 -0.000001
vn 0.000000 1.000000 -0.000001
vn 0.000000 1.000000 0.000000
vn 0.000000 1.000000 0.000000
vn 0.000000 1.000000 0.000000
vn 0.000000 1.000000 0.000000
vn 0.000000 1.000000 0.000001
vn 0.000000 1.000000 0.000001
vn 0.000000 1.000000 0.000001
vn 0.000000 1.000000 0.000001
vn 0.000000 1.000000 -0.000001
vn 0.000000 1.000000 -0.000001
vn 0.000000 1.000000 -0.000001
vn 0.000000 1.000000 -0.000001
vn 0.000000 1.000000 0.000000
vn 0.000000 1.000000 0.000000
vn 0.000000 1.000000 0.000000
vn 0.000000 1.000000 0.000000
vn 0.000000 1.000000 0.000001
vn 0.000000 1.000000 0.000001
vn 0.000000 1.000000 0.000001
vn 0.000000 1.000000 0.000001
vn 0.000000 1.000000 0.000000
vn 0.000000 1.000000 0.000000
vn 0.000000 1.000000 0.000000
vn 0.000000 1.000000 0.000000
vn 0.000000 0.000000 -1.000000
vn 0.000000 0.000000 -1.000000
vn 0.000000 0.000000 -1.000000
vn 0.000000 0.000000 -1.000000
vn -1.000000 0.000000 0.000000
vn -1.000000 0.000000 0.000000
vn -1.000000 0.000000 0.000000
vn -1.000000 0.000000 0.000000
vn 0.000000 0.000000 1.000000
vn 0.000000 0.000000 1.000000
vn 0.000000 0.000000 1.000000
vn 0.000000 0.000000 1.000000
vn 1.000000 0.000000 0.000000
vn 1.000000 0.000000 0.000000
vn 1.000000 0.000000 0.000000
vn 1.000000 0.000000 0.000000
vn 1.000000 0.000000 0.000000
vn 1.000000 0.000000 0.000000
vn 1.000000 0.000000 0.000000
vn 1.000000 0.000000 0.000000
vn 0.000000 0.000000 -1.000000
vn 0.000000 0.000000 -1.000000
vn 0.000000 0.000000 -1.000000
vn 0.000000 0.000000 -1.000000
vn -1.000000 0.000000 0.000000
vn -1.000000 0.000000 0.000000
vn -1.000000 0.000000 0.000000
vn -1.000000 0.000000 0.000000
vn 0.000000 0.000000 1.000000
vn 0.000000 0.000000 1.000000
vn 0.000000 0.000000 1.000000
vn 0.000000 0.000000 1.000000
vn 0.000000 0.990916 0.134482
vn 0.000000 0.990916 0.134482
vn 0.000000 0.990916 0.134482
vn 0.000000 0.990916 0.134482
vn 0.000000 -0.990916 0.134482
vn 0.000000 -0.990916 0.134482
vn 0.000000 -0.990916 0.134482
vn 0.000000 -0.990916 0.134482
vn 0.235964 -0.971762 0.000000
vn 0.235964 -0.971762 0.000000
vn 0.235964 -0.971762 0.000000
vn 0.235964 -0.971762 0.000000
vn 0.235964 0.971762 0.000000
vn 0.235964 0.971762 0.000000
vn 0.235964 0.971762 0.000000
vn 0.235964 0.971762 0.000000
vn 0.000000 -0.990916 -0.134481
vn 0.000000 -0.990916 -0.134481
vn 0.000000 -0.990916 -0.134481
vn 0.000000 -0.990916 -0.134481
vn 0.000000 0.990916 -0.134482
vn 0.000000 0.990916 -0.134482
vn 0.000000 0.990916 -0.134482
vn 0.000000 0.990916 -0.134482
vn -0.235964 -0.971762 0.000000
vn -0.235964 -0.971762 0.000000
vn -0.235964 -0.971762 0.000000
vn -0.235964 -0.971762 0.000000
vn -0.235964 0.971762 0.000000
vn -0.235965 0.971762 0.000000
vn -0.235965 0.971762 0.000000
vn -0.235965 0.971762 0.000000
vn 0.235964 -0.971762 0.000000
vn 0.235964 -0.971762 0.000000
vn 0.235964 -0.971762 0.000000
vn 0.235964 -0.971762 0.000000
vn 0.235964 0.971762 0.000000
vn 0.235964 0.971762 0.000000
vn 0.235964 0.971762 0.000000
vn 0.235964 0.971762 0.000000
vn -0.235964 -0.971762 0.000000
vn -0.235964 -0.971762 0.000000
vn -0.235964 -0.971762 0.000000
vn -0.235964 -0.971762 0.000000
vn -0.235964 0.971762 0.000000
vn -0.235964 0.971762 0.000000
vn -0.235964 0.971762 0.000000
vn -0.235964 0.971762 0.000000
s off
g pCube5
usemtl initialShadingGroup
f 9/1/1 10/2/2 4/3/3 3/4/4
f 5/5/5 6/6/6 15/7/7 16/8/8
f 8/9/9 7/10/10 11/11/11 12/12/12
f 12/12/13 17/13/14 18/14/15 8/9/16
f 13/15/17 14/16/18 10/2/19 9/1/20
f 22/17/21 11/18/22 7/19/23 21/20/24
f 40/21/25 39/22/26 41/23/27 42/24/28
f 42/24/29 43/25/30 44/26/31 40/21/32
f 45/27/33 46/28/34 47/29/35 48/30/36
f 49/31/37 50/32/38 41/33/39 39/34/40
f 16/8/41 15/7/42 2/35/43 1/36/44
f 44/26/45 43/25/46 45/27/47 48/30/48
f 18/14/49 17/13/50 13/15/51 9/1/52
f 19/37/53 18/14/54 9/1/55 3/4/56
f 31/38/57 32/39/58 33/40/59 34/41/60
f 10/2/61 21/20/62 20/42/63 4/3/64
f 14/16/65 22/17/66 21/20/67 10/2/68
f 46/28/69 50/32/70 49/31/71 47/29/72
f 35/43/73 36/44/74 37/45/75 38/46/76
f 19/47/77 20/48/78 21/49/79 18/50/80
f 8/51/81 18/52/82 24/53/83 23/54/84
f 18/52/85 21/20/86 25/55/87 24/53/88
f 21/20/89 7/19/90 26/56/91 25/55/92
f 7/19/93 8/51/94 23/54/95 26/56/96
f 3/4/97 4/3/98 28/57/99 27/58/100
f 4/3/101 20/48/102 29/59/103 28/57/104
f 20/48/105 19/47/106 30/60/107 29/59/108
f 19/47/109 3/4/110 27/58/111 30/60/112
f 27/61/113 28/62/114 32/39/115 31/38/116
f 28/62/117 29/63/118 33/64/119 32/39/120
f 29/63/121 30/65/122 34/66/123 33/64/124
f 30/65/125 27/67/126 31/68/127 34/66/128
f 23/69/129 24/70/130 36/71/131 35/43/132
f 24/70/133 25/72/134 37/73/135 36/71/136
f 25/74/137 26/75/138 38/46/139 37/76/140
f 26/75/141 23/69/142 35/43/143 38/46/144
f 12/77/145 11/78/146 39/22/147 40/21/148
f 6/6/149 5/5/150 42/24/151 41/79/152
f 5/5/153 16/8/154 43/25/155 42/24/156
f 17/80/157 12/77/158 40/21/159 44/26/160
f 1/36/161 2/35/162 46/81/163 45/27/164
f 14/82/165 13/83/166 48/30/167 47/29/168
f 15/7/169 6/6/170 41/79/171 50/84/172
f 11/85/173 22/86/174 49/31/175 39/34/176
f 16/8/177 1/36/178 45/27/179 43/25/180
f 13/83/181 17/80/182 44/26/183 48/30/184
f 2/35/185 15/7/186 50/84/187 46/81/188
f 22/86/189 14/82/190 47/29/191 49/31/192
g default
v -0.725758 -0.050968 0.515599
v 0.725758 -0.050968 0.515599
v -0.725758 2.975432 0.515599
v 0.725758 2.975432 0.515599
v -0.725758 -0.050968 -2.081454
v 0.725758 -0.050968 -2.081454
v 0.725758 2.017022 -2.081454
v -0.725758 2.017022 -2.081454
v -0.725758 2.017022 0.515599
v 0.725758 2.017022 0.515599
v 0.725758 0.301490 -2.081454
v -0.725758 0.301490 -2.081454
v -0.725758 0.301490 0.515599
v 0.725758 0.301490 0.515599
v 0.725758 -0.050968 -0.771623
v -0.725758 -0.050968 -0.771623
v -0.725758 0.301490 -0.771623
v -0.725758 2.017022 -0.771623
v -0.725758 2.975432 -0.771623
v 0.725758 2.975432 -0.771623
v 0.725758 2.017022 -0.771623
v 0.725758 0.301490 -0.771623
v -0.609638 2.017022 -1.976669
v -0.609638 2.017022 -0.876409
v 0.609638 2.017022 -0.876409
v 0.609638 2.017022 -1.976669
v -0.610541 2.975432 0.413423
v 0.610541 2.975432 0.413423
v 0.610541 2.975432 -0.669448
v -0.610541 2.975432 -0.669448
v -0.610541 0.197237 0.413423
v 0.610541 0.197237 0.413423
v 0.610541 0.197237 -0.669448
v -0.610541 0.197237 -0.669448
v -0.609638 0.157631 -1.976669
v -0.609638 0.157631 -0.876409
v 0.609638 0.157631 -0.876409
v 0.609638 0.157631 -1.976669
v 0.768212 0.311798 -2.157413
v -0.768212 0.311798 -2.157413
v 0.768212 -0.061277 -2.157413
v -0.768212 -0.061277 -2.157413
v -0.768212 -0.061277 -0.770962
v -0.768212 0.311798 -0.770962
v -0.768212 -0.061277 0.591558
v 0.768212 -0.061277 0.591558
v 0.768212 0.311798 0.591558
v -0.768212 0.311798 0.591558
v 0.768212 0.311798 -0.770962
v 0.768212 -0.061277 -0.770962
vt 0.437932 0.228483
vt 0.579576 0.228412
vt 0.578732 0.321855
vt 0.437183 0.321855
vt 0.151538 0.887831
vt 0.149686 0.759009
vt 0.288924 0.758032
vt 0.290774 0.886854
vt 0.184703 0.228387
vt 0.043140 0.228408
vt 0.043146 0.061102
vt 0.184709 0.061102
vt 0.312462 0.061102
vt 0.312431 0.228427
vt 0.438034 0.061122
vt 0.579567 0.061186
vt 0.704936 0.061218
vt 0.831297 0.061261
vt 0.831297 0.228016
vt 0.705164 0.228095
vt 0.143629 0.929619
vt 0.019757 0.930489
vt 0.019560 0.888757
vt 0.143432 0.887888
vt 0.290774 0.886854
vt 0.290971 0.928585
vt 0.419430 0.885951
vt 0.492997 0.885434
vt 0.493194 0.927166
vt 0.419628 0.927682
vt 0.547243 0.926786
vt 0.547046 0.885055
vt 0.596753 0.884706
vt 0.596951 0.926437
vt 0.412351 0.757165
vt 0.414202 0.885987
vt 0.312320 0.321855
vt 0.291175 0.722466
vt 0.290506 0.603360
vt 0.396125 0.602782
vt 0.396785 0.721875
vt 0.705164 0.321855
vt 0.706505 0.570390
vt 0.707061 0.441974
vt 0.849379 0.442423
vt 0.849027 0.570642
vt 0.437183 0.447583
vt 0.578732 0.447583
vt 0.578732 0.540886
vt 0.437183 0.540886
vt 0.831297 0.367227
vt 0.705164 0.367227
vt 0.714983 0.356064
vt 0.821187 0.356064
vt 0.715196 0.239263
vt 0.821187 0.239157
vt 0.567756 0.331968
vt 0.448673 0.331968
vt 0.567756 0.437617
vt 0.448673 0.437617
vt 0.020208 0.723966
vt 0.019546 0.604869
vt 0.018961 0.499254
vt 0.289919 0.497748
vt 0.018291 0.380143
vt 0.289281 0.378658
vt 0.017716 0.274554
vt 0.288672 0.273046
vt 0.706505 0.788468
vt 0.577503 0.788435
vt 0.577503 0.570422
vt 0.434567 0.788422
vt 0.434567 0.570435
vt 0.977942 0.787749
vt 0.849309 0.788132
vt 0.977513 0.570479
vt 0.151233 0.929566
vt 0.031478 0.930406
vt 0.141580 0.759066
vt 0.290971 0.928585
vt 0.417578 0.757129
vt 0.493194 0.927166
vt 0.409487 0.927753
vt 0.288924 0.758032
vt 0.593124 0.926465
vt 0.546731 0.926790
vn 0.000000 0.000000 1.000000
vn 0.000000 0.000000 1.000000
vn 0.000000 0.000000 1.000000
vn 0.000000 0.000000 1.000000
vn 0.000000 -1.000000 0.000000
vn 0.000000 -1.000000 0.000000
vn 0.000000 -1.000000 0.000000
vn 0.000000 -1.000000 0.000000
vn 0.000000 0.000000 -1.000000
vn 0.000000 0.000000 -1.000000
vn 0.000000 0.000000 -1.000000
vn 0.000000 0.000000 -1.000000
vn -1.000000 0.000000 0.000000
vn -1.000000 0.000000 0.000000
vn -1.000000 0.000000 0.000000
vn -1.000000 0.000000 0.000000
vn 0.000000 0.000000 1.000000
vn 0.000000 0.000000 1.000000
vn 0.000000 0.000000 1.000000
vn 0.000000 0.000000 1.000000
vn 1.000000 0.000000 0.000000
vn 1.000000 0.000000 0.000000
vn 1.000000 0.000000 0.000000
vn 1.000000 0.000000 0.000000
vn 0.000000 0.000000 -1.000000
vn 0.000000 0.000000 -1.000000
vn 0.000000 0.000000 -1.000000
vn 0.000000 0.000000 -1.000000
vn -1.000000 0.000000 0.000000
vn -1.000000 0.000000 0.000000
vn -1.000000 0.000000 0.000000
vn -1.000000 0.000000 0.000000
vn 0.000000 0.000000 1.000000
vn 0.000000 0.000000 1.000000
vn 0.000000 0.000000 1.000000
vn 0.000000 0.000000 1.000000
vn 1.000000 0.000000 0.000000
vn 1.000000 0.000000 0.000000
vn 1.000000 0.000000 0.000000
vn 1.000000 0.000000 0.000000
vn 0.000000 -1.000000 0.000000
vn 0.000000 -1.000000 0.000000
vn 0.000000 -1.000000 0.000000
vn 0.000000 -1.000000 0.000000
vn -1.000000 0.000000 0.000000
vn -1.000000 0.000000 0.000000
vn -1.000000 0.000000 0.000000
vn -1.000000 0.000000 0.000000
vn -1.000000 0.000000 0.000000
vn -1.000000 0.000000 0.000000
vn -1.000000 0.000000 0.000000
vn -1.000000 0.000000 0.000000
vn -1.000000 0.000000 0.000000
vn -1.000000 0.000000 0.000000
vn -1.000000 0.000000 0.000000
vn -1.000000 0.000000 0.000000
vn 0.000000 1.000000 0.000000
vn 0.000000 1.000000 0.000000
vn 0.000000 1.000000 0.000000
vn 0.000000 1.000000 0.000000
vn 1.000000 0.000000 0.000000
vn 1.000000 0.000000 0.000000
vn 1.000000 0.000000 0.000000
vn 1.000000 0.000000 0.000000
vn 1.000000 0.000000 0.000000
vn 1.000000 0.000000 0.000000
vn 1.000000 0.000000 0.000000
vn 1.000000 0.000000 0.000000
vn 1.000000 0.000000 0.000000
vn 1.000000 0.000000 0.000000
vn 1.000000 0.000000 0.000000
vn 1.000000 0.000000 0.000000
vn 0.000000 1.000000 0.000000
vn 0.000000 1.000000 0.000000
vn 0.000000 1.000000 0.000000
vn 0.000000 1.000000 0.000000
vn 0.000000 0.000000 -1.000000
vn 0.000000 0.000000 -1.000000
vn 0.000000 0.000000 -1.000000
vn 0.000000 0.000000 -1.000000
vn 0.000000 1.000000 0.000000
vn 0.000000 1.000000 0.000000
vn 0.000000 1.000000 0.000000
vn 0.000000 1.000000 0.000000
vn 0.000000 1.000000 -0.000001
vn 0.000000 1.000000 -0.000001
vn 0.000000 1.000000 -0.000001
vn 0.000000 1.000000 -0.000001
vn 0.000000 1.000000 0.000000
vn 0.000000 1.000000 0.000000
vn 0.000000 1.000000 0.000000
vn 0.000000 1.000000 0.000000
vn 0.000000 1.000000 0.000001
vn 0.000000 1.000000 0.000001
vn 0.000000 1.000000 0.000001
vn 0.000000 1.000000 0.000001
vn 0.000000 1.000000 -0.000001
vn 0.000000 1.000000 -0.000001
vn 0.000000 1.000000 -0.000001
vn 0.000000 1.000000 -0.000001
vn 0.000000 1.000000 0.000000
vn 0.000000 1.000000 0.000000
vn 0.000000 1.000000 0.000000
vn 0.000000 1.000000 0.000000
vn 0.000000 1.000000 0.000001
vn 0.000000 1.000000 0.000001
vn 0.000000 1.000000 0.000001
vn 0.000000 1.000000 0.000001
vn 0.000000 1.000000 0.000000
vn 0.000000 1.000000 0.000000
vn 0.000000 1.000000 0.000000
vn 0.000000 1.000000 0.000000
vn 0.000000 0.000000 -1.000000
vn 0.000000 0.000000 -1.000000
vn 0.000000 0.000000 -1.000000
vn 0.000000 0.000000 -1.000000
vn -1.000000 0.000000 0.000000
vn -1.000000 0.000000 0.000000
vn -1.000000 0.000000 0.000000
vn -1.000000 0.000000 0.000000
vn 0.000000 0.000000 1.000000
vn 0.000000 0.000000 1.000000
vn 0.000000 0.000000 1.000000
vn 0.000000 0.000000 1.000000
vn 1.000000 0.000000 0.000000
vn 1.000000 0.000000 0.000000
vn 1.000000 0.000000 0.000000
vn 1.000000 0.000000 0.000000
vn 1.000000 0.000000 0.000000
vn 1.000000 0.000000 0.000000
vn 1.000000 0.000000 0.000000
vn 1.000000 0.000000 0.000000
vn 0.000000 0.000000 -1.000000
vn 0.000000 0.000000 -1.000000
vn 0.000000 0.000000 -1.000000
vn 0.000000 0.000000 -1.000000
vn -1.000000 0.000000 0.000000
vn -1.000000 0.000000 0.000000
vn -1.000000 0.000000 0.000000
vn -1.000000 0.000000 0.000000
vn 0.000000 0.000000 1.000000
vn 0.000000 0.000000 1.000000
vn 0.000000 0.000000 1.000000
vn 0.000000 0.000000 1.000000
vn 0.000000 0.990916 0.134482
vn 0.000000 0.990916 0.134482
vn 0.000000 0.990916 0.134482
vn 0.000000 0.990916 0.134482
vn 0.000000 -0.990916 0.134482
vn 0.000000 -0.990916 0.134482
vn 0.000000 -0.990916 0.134482
vn 0.000000 -0.990916 0.134482
vn 0.235964 -0.971762 0.000000
vn 0.235964 -0.971762 0.000000
vn 0.235964 -0.971762 0.000000
vn 0.235964 -0.971762 0.000000
vn 0.235964 0.971762 0.000000
vn 0.235964 0.971762 0.000000
vn 0.235964 0.971762 0.000000
vn 0.235964 0.971762 0.000000
vn 0.000000 -0.990916 -0.134481
vn 0.000000 -0.990916 -0.134481
vn 0.000000 -0.990916 -0.134481
vn 0.000000 -0.990916 -0.134481
vn 0.000000 0.990916 -0.134482
vn 0.000000 0.990916 -0.134482
vn 0.000000 0.990916 -0.134482
vn 0.000000 0.990916 -0.134482
vn -0.235964 -0.971762 0.000000
vn -0.235964 -0.971762 0.000000
vn -0.235964 -0.971762 0.000000
vn -0.235964 -0.971762 0.000000
vn -0.235964 0.971762 0.000000
vn -0.235965 0.971762 0.000000
vn -0.235965 0.971762 0.000000
vn -0.235965 0.971762 0.000000
vn 0.235964 -0.971762 0.000000
vn 0.235964 -0.971762 0.000000
vn 0.235964 -0.971762 0.000000
vn 0.235964 -0.971762 0.000000
vn 0.235964 0.971762 0.000000
vn 0.235964 0.971762 0.000000
vn 0.235964 0.971762 0.000000
vn 0.235964 0.971762 0.000000
vn -0.235964 -0.971762 0.000000
vn -0.235964 -0.971762 0.000000
vn -0.235964 -0.971762 0.000000
vn -0.235964 -0.971762 0.000000
vn -0.235964 0.971762 0.000000
vn -0.235964 0.971762 0.000000
vn -0.235964 0.971762 0.000000
vn -0.235964 0.971762 0.000000
s off
g pCube5
f 59/87/193 60/88/194 54/89/195 53/90/196
f 55/91/197 56/92/198 65/93/199 66/94/200
f 58/95/201 57/96/202 61/97/203 62/98/204
f 62/98/205 67/99/206 68/100/207 58/95/208
f 63/101/209 64/102/210 60/88/211 59/87/212
f 72/103/213 61/104/214 57/105/215 71/106/216
f 90/107/217 89/108/218 91/109/219 92/110/220
f 92/110/221 93/111/222 94/112/223 90/107/224
f 95/113/225 96/114/226 97/115/227 98/116/228
f 99/117/229 100/118/230 91/119/231 89/120/232
f 66/94/233 65/93/234 52/121/235 51/122/236
f 94/112/237 93/111/238 95/113/239 98/116/240
f 68/100/241 67/99/242 63/101/243 59/87/244
f 69/123/245 68/100/246 59/87/247 53/90/248
f 81/124/249 82/125/250 83/126/251 84/127/252
f 60/88/253 71/106/254 70/128/255 54/89/256
f 64/102/257 72/103/258 71/106/259 60/88/260
f 96/114/261 100/118/262 99/117/263 97/115/264
f 85/129/265 86/130/266 87/131/267 88/132/268
f 69/133/269 70/134/270 71/135/271 68/136/272
f 58/137/273 68/138/274 74/139/275 73/140/276
f 68/138/277 71/106/278 75/141/279 74/139/280
f 71/106/281 57/105/282 76/142/283 75/141/284
f 57/105/285 58/137/286 73/140/287 76/142/288
f 53/90/289 54/89/290 78/143/291 77/144/292
f 54/89/293 70/134/294 79/145/295 78/143/296
f 70/134/297 69/133/298 80/146/299 79/145/300
f 69/133/301 53/90/302 77/144/303 80/146/304
f 77/147/305 78/148/306 82/125/307 81/124/308
f 78/148/309 79/149/310 83/150/311 82/125/312
f 79/149/313 80/151/314 84/152/315 83/150/316
f 80/151/317 77/153/318 81/154/319 84/152/320
f 73/155/321 74/156/322 86/157/323 85/129/324
f 74/156/325 75/158/326 87/159/327 86/157/328
f 75/160/329 76/161/330 88/132/331 87/162/332
f 76/161/333 73/155/334 85/129/335 88/132/336
f 62/163/337 61/164/338 89/108/339 90/107/340
f 56/92/341 55/91/342 92/110/343 91/165/344
f 55/91/345 66/94/346 93/111/347 92/110/348
f 67/166/349 62/163/350 90/107/351 94/112/352
f 51/122/353 52/121/354 96/167/355 95/113/356
f 64/168/357 63/169/358 98/116/359 97/115/360
f 65/93/361 56/92/362 91/165/363 100/170/364
f 61/171/365 72/172/366 99/117/367 89/120/368
f 66/94/369 51/122/370 95/113/371 93/111/372
f 63/169/373 67/166/374 94/112/375 98/116/376
f 52/121/377 65/93/378 100/170/379 96/167/380
f 72/172/381 64/168/382 97/115/383 99/117/384
