# This file uses centimeters as units for non-parametric coordinates.

mtllib clockArm_minutes.mtl
g default
v 0.783903 1.461191 -0.254705
v 0.666827 1.461191 -0.484478
v 0.484478 1.461191 -0.666827
v 0.358344 1.461191 -0.783902
v 0.000000 1.461191 -0.824244
v -0.358344 1.461191 -0.783902
v -0.484478 1.461191 -0.666827
v -0.666827 1.461191 -0.484478
v -0.783902 1.461191 -0.254705
v -0.824244 1.461191 0.000000
v -0.783902 1.461191 0.254705
v -0.666827 1.461191 0.484478
v -0.484478 1.461191 0.666827
v -0.254705 1.461191 0.783902
v -0.000000 1.461191 0.824243
v 0.254705 1.461191 0.783902
v 0.484478 1.461191 0.666827
v 0.666827 1.461191 0.484478
v 0.783902 1.461191 0.254705
v 0.824243 1.461191 0.000000
v 0.783903 1.722832 -0.254705
v 0.666827 1.722832 -0.484478
v 0.484478 1.722832 -0.666827
v 0.358344 1.722832 -0.783902
v 0.000000 1.722832 -0.824244
v -0.358344 1.722832 -0.783902
v -0.484478 1.722832 -0.666827
v -0.666827 1.722832 -0.484478
v -0.783902 1.722832 -0.254705
v -0.824244 1.722832 0.000000
v -0.783902 1.722832 0.254705
v -0.666827 1.722832 0.484478
v -0.484478 1.722832 0.666827
v -0.254705 1.722832 0.783902
v -0.000000 1.722832 0.824243
v 0.254705 1.722832 0.783902
v 0.484478 1.722832 0.666827
v 0.666827 1.722832 0.484478
v 0.783902 1.722832 0.254705
v 0.824243 1.722832 0.000000
v 0.000000 1.722832 0.000000
v 0.018610 1.461191 -6.793303
v 0.000000 1.461191 -6.833643
v 0.000000 1.722832 -6.833643
v 0.018610 1.722832 -6.793303
v -0.018610 1.461191 -6.793303
v -0.018610 1.722832 -6.793303
v 0.783903 1.054445 -0.254705
v 0.666827 1.054445 -0.484479
v 0.000000 1.054445 -0.000000
v 0.484478 1.054445 -0.666827
v 0.358344 1.054445 -0.783902
v 0.000000 1.054445 -0.824244
v -0.358344 1.054445 -0.783902
v -0.484478 1.054445 -0.666827
v -0.666827 1.054445 -0.484478
v -0.783902 1.054445 -0.254705
v -0.824244 1.054445 0.000000
v -0.783902 1.054445 0.254705
v -0.666827 1.054445 0.484478
v -0.484478 1.054445 0.666827
v -0.254705 1.054445 0.783902
v -0.000000 1.054445 0.824243
v 0.254705 1.054445 0.783902
v 0.484478 1.054445 0.666827
v 0.666827 1.054445 0.484478
v 0.783902 1.054445 0.254705
v 0.824243 1.054445 0.000000
vt 0.862758 0.381387
vt 0.886593 0.381388
vt 0.469127 0.209302
vt 0.484707 0.182246
vt 0.910428 0.381389
vt 0.444862 0.230773
vt 0.214855 0.244559
vt 0.692092 0.520837
vt 0.692080 0.517755
vt 0.167169 0.956921
vt 0.646443 0.521951
vt 0.714701 0.515525
vt 0.646448 0.525033
vt 0.377915 0.952171
vt 0.623823 0.525994
vt 0.529073 0.381371
vt 0.315921 0.230773
vt 0.332706 0.244559
vt 0.552908 0.381372
vt 0.291656 0.209302
vt 0.576743 0.381373
vt 0.276076 0.182246
vt 0.600577 0.381374
vt 0.270708 0.152254
vt 0.624412 0.381376
vt 0.276076 0.122262
vt 0.648246 0.381377
vt 0.291656 0.095207
vt 0.672081 0.381378
vt 0.315921 0.073735
vt 0.695916 0.381379
vt 0.346498 0.059949
vt 0.719750 0.381380
vt 0.380391 0.055199
vt 0.743585 0.381381
vt 0.414285 0.059949
vt 0.767420 0.381382
vt 0.444862 0.073735
vt 0.791254 0.381384
vt 0.469127 0.095207
vt 0.815089 0.381385
vt 0.484707 0.122262
vt 0.838924 0.381386
vt 0.490075 0.152254
vt 0.169444 0.137008
vt 0.167169 0.249309
vt 0.380391 0.152254
vt 0.380391 0.249309
vt 0.380391 0.956921
vt 0.623818 0.522912
vt 0.794600 0.560246
vt 0.382868 0.952171
vt 0.428077 0.244559
vt 0.794600 0.534203
vt 0.829503 0.534203
vt 0.829503 0.560246
vt 0.794600 0.508160
vt 0.829503 0.508160
vt 0.794600 0.490780
vt 0.829503 0.490780
vt 0.794600 0.942229
vt 0.794600 0.924849
vt 0.829503 0.924849
vt 0.829503 0.942229
vt 0.794600 0.898806
vt 0.829503 0.898806
vt 0.794600 0.872763
vt 0.829503 0.872763
vt 0.794600 0.846720
vt 0.829503 0.846720
vt 0.714713 0.518607
vt 0.164693 0.952171
vt 0.513167 0.381370
vt 0.169646 0.952171
vt 0.794600 0.820677
vt 0.829503 0.820677
vt 0.794600 0.794634
vt 0.829503 0.794634
vt 0.794600 0.768591
vt 0.829503 0.768591
vt 0.794600 0.742548
vt 0.829503 0.742548
vt 0.794600 0.716505
vt 0.829503 0.716505
vt 0.794600 0.690462
vt 0.829503 0.690462
vt 0.794600 0.664419
vt 0.829503 0.664419
vt 0.794600 0.638376
vt 0.829503 0.638375
vt 0.794600 0.612332
vt 0.829503 0.612332
vt 0.794600 0.586289
vt 0.647142 0.942650
vt 0.716324 0.936159
vt 0.829503 0.586289
vt 0.624517 0.943611
vt 0.693703 0.938389
vt 0.959663 0.381392
vt 0.119484 0.244559
vt 0.926333 0.381390
vt 0.203146 0.171487
vt 0.862760 0.343793
vt 0.212151 0.159385
vt 0.217855 0.151091
vt 0.217147 0.130009
vt 0.211770 0.109613
vt 0.203923 0.103307
vt 0.191821 0.094302
vt 0.177529 0.089477
vt 0.162445 0.089305
vt 0.148047 0.093802
vt 0.135743 0.102529
vt 0.126738 0.114631
vt 0.121913 0.128923
vt 0.121741 0.144007
vt 0.126239 0.158405
vt 0.134966 0.170709
vt 0.147067 0.179714
vt 0.161360 0.184539
vt 0.176443 0.184711
vt 0.838925 0.343792
vt 0.190842 0.180213
vt 0.815091 0.343791
vt 0.791256 0.343790
vt 0.767421 0.343789
vt 0.743587 0.343788
vt 0.719752 0.343787
vt 0.695918 0.343785
vt 0.672083 0.343784
vt 0.648248 0.343783
vt 0.624414 0.343782
vt 0.600579 0.343781
vt 0.576744 0.343780
vt 0.552910 0.343779
vt 0.529075 0.343777
vt 0.513169 0.343777
vt 0.959664 0.343798
vt 0.926335 0.343796
vt 0.910429 0.343796
vt 0.886595 0.343795
vt 0.479838 0.381369
vt 0.479840 0.343775
vn 0.951057 0.000000 -0.309016
vn 0.809017 0.000000 -0.587785
vn 0.809017 0.000000 -0.587785
vn 0.951057 0.000000 -0.309016
vn 0.696492 0.000000 -0.717565
vn 0.696492 0.000000 -0.717565
vn 0.680295 0.000000 -0.732938
vn 0.680296 0.000000 -0.732938
vn 0.908035 0.000000 -0.418895
vn 0.000000 0.000000 -1.000000
vn 0.000000 0.000000 -1.000000
vn 0.908035 0.000000 -0.418895
vn -0.908035 0.000000 -0.418895
vn -0.908035 0.000000 -0.418895
vn -0.680296 0.000000 -0.732937
vn -0.696492 0.000000 -0.717565
vn -0.696492 0.000000 -0.717565
vn -0.680296 0.000000 -0.732937
vn -0.809017 -0.000000 -0.587785
vn -0.809017 0.000000 -0.587785
vn -0.951057 -0.000000 -0.309017
vn -0.951057 0.000000 -0.309017
vn -1.000000 -0.000000 0.000000
vn -1.000000 0.000000 0.000000
vn -0.951057 -0.000000 0.309017
vn -0.951057 0.000000 0.309017
vn -0.809017 0.000000 0.587785
vn -0.809017 0.000000 0.587785
vn -0.587785 0.000000 0.809017
vn -0.587785 0.000000 0.809017
vn -0.309017 -0.000000 0.951057
vn -0.309017 0.000000 0.951057
vn 0.000000 -0.000000 1.000000
vn 0.000000 0.000000 1.000000
vn 0.309017 -0.000000 0.951057
vn 0.309017 0.000000 0.951057
vn 0.587785 0.000000 0.809017
vn 0.587785 0.000000 0.809017
vn 0.809017 0.000000 0.587785
vn 0.809017 0.000000 0.587785
vn 0.951057 0.000000 0.309017
vn 0.951057 0.000000 0.309017
vn 1.000000 0.000000 0.000001
vn 1.000000 0.000000 0.000001
vn 0.000000 -1.000000 -0.000000
vn 0.000000 -1.000000 0.000000
vn 0.000000 -1.000000 -0.000000
vn 0.000000 -1.000000 -0.000000
vn 0.000000 -1.000000 0.000000
vn 0.000000 -1.000000 0.000000
vn 0.000000 -1.000000 0.000000
vn 0.000000 -1.000000 0.000000
vn 0.000000 -1.000000 0.000000
vn 0.000000 -1.000000 0.000000
vn 0.000000 -1.000000 0.000000
vn 0.000000 -1.000000 0.000000
vn 0.000000 -1.000000 0.000000
vn 0.000000 -1.000000 0.000000
vn 0.000000 -1.000000 0.000000
vn 0.000000 -1.000000 -0.000000
vn 0.000000 -1.000000 0.000000
vn 0.000000 -1.000000 0.000000
vn 0.000000 -1.000000 0.000000
vn 0.000000 -1.000000 0.000000
vn 0.000000 -1.000000 -0.000000
vn 0.000000 1.000000 -0.000001
vn 0.000000 1.000000 0.000000
vn 0.000000 1.000000 -0.000000
vn 0.000000 1.000000 -0.000000
vn 0.000000 1.000000 -0.000000
vn 0.000000 1.000000 0.000000
vn 0.000000 1.000000 -0.000000
vn 0.000000 1.000000 -0.000000
vn 0.000000 1.000000 0.000000
vn 0.000000 1.000000 0.000000
vn 0.000000 1.000000 0.000000
vn 0.000000 1.000000 0.000000
vn 0.000000 1.000000 0.000000
vn 0.000000 1.000000 0.000000
vn 0.000000 1.000000 0.000000
vn 0.000000 1.000000 0.000000
vn 0.000000 1.000000 -0.000000
vn 0.000000 1.000000 0.000000
vn 0.000000 1.000000 0.000000
vn 0.000000 1.000000 0.000001
vn 0.000000 1.000000 -0.000000
vn 0.000000 -1.000000 -0.000000
vn 0.000000 -1.000000 -0.000000
vn 0.000000 -1.000000 -0.000000
vn 0.000000 -1.000000 -0.000000
vn 0.000000 1.000000 0.000000
vn 0.000000 1.000000 0.000000
vn 0.000000 1.000000 0.000000
vn 0.000000 1.000000 0.000000
vn 0.998406 0.000000 -0.056444
vn 0.998406 0.000000 -0.056444
vn 0.998406 0.000000 -0.056444
vn 0.998406 0.000000 -0.056444
vn 0.000000 -1.000000 -0.000000
vn 0.000000 -1.000000 -0.000000
vn 0.000000 -1.000000 -0.000000
vn 0.000000 -1.000000 -0.000000
vn -0.998406 0.000000 -0.056444
vn -0.998406 0.000000 -0.056444
vn -0.998406 0.000000 -0.056444
vn -0.998406 0.000000 -0.056444
vn 0.000000 1.000000 0.000000
vn 0.000000 1.000000 0.000000
vn 0.000000 1.000000 0.000000
vn 0.000000 1.000000 0.000000
vn 0.951057 0.000000 -0.309016
vn 0.809017 0.000000 -0.587785
vn 0.696492 0.000000 -0.717565
vn 0.680295 0.000000 -0.732938
vn 0.000000 0.000000 -1.000000
vn 0.111871 0.000000 -0.993723
vn 0.111871 0.000000 -0.993723
vn 0.000000 0.000000 -1.000000
vn -0.111871 0.000000 -0.993723
vn -0.111871 0.000000 -0.993723
vn -0.680296 0.000000 -0.732937
vn -0.696492 0.000000 -0.717565
vn -0.809017 -0.000000 -0.587785
vn -0.951057 -0.000000 -0.309017
vn -1.000000 -0.000000 0.000000
vn -0.951057 -0.000000 0.309017
vn -0.809017 0.000000 0.587785
vn -0.587785 0.000000 0.809017
vn -0.309017 -0.000000 0.951057
vn 0.000000 -0.000000 1.000000
vn 0.309017 -0.000000 0.951057
vn 0.587785 0.000000 0.809017
vn 0.809017 0.000000 0.587785
vn 0.951057 0.000000 0.309017
vn 1.000000 0.000000 0.000001
s 1
g clockArm_minutes
usemtl lambert2SG
f 1/51/1 2/54/2 22/55/3 21/56/4
f 2/54/2 3/57/5 23/58/6 22/55/3
f 3/57/5 4/59/7 24/60/8 23/58/6
s 2
f 42/8/9 43/9/10 44/12/11 45/71/12
f 43/11/10 46/13/13 47/15/14 44/50/11
s 1
f 6/61/15 7/62/16 27/63/17 26/64/18
f 7/62/16 8/65/19 28/66/20 27/63/17
f 8/65/19 9/67/21 29/68/22 28/66/20
f 9/67/21 10/69/23 30/70/24 29/68/22
f 10/69/23 11/75/25 31/76/26 30/70/24
f 11/75/25 12/77/27 32/78/28 31/76/26
f 12/77/27 13/79/29 33/80/30 32/78/28
f 13/79/29 14/81/31 34/82/32 33/80/30
f 14/81/31 15/83/33 35/84/34 34/82/32
f 15/83/33 16/85/35 36/86/36 35/84/34
f 16/85/35 17/87/37 37/88/38 36/86/36
f 17/87/37 18/89/39 38/90/40 37/88/38
f 18/89/39 19/91/41 39/92/42 38/90/40
f 19/91/41 20/93/43 40/96/44 39/92/42
f 20/93/43 1/51/1 21/56/4 40/96/44
s 4
f 49/102/45 48/123/46 50/45/47
f 51/104/48 49/102/45 50/45/47
f 52/105/49 51/104/48 50/45/47
f 53/106/50 52/105/49 50/45/47
f 54/107/51 53/106/50 50/45/47
f 55/108/52 54/107/51 50/45/47
f 56/109/53 55/108/52 50/45/47
f 57/110/54 56/109/53 50/45/47
f 58/111/55 57/110/54 50/45/47
f 59/112/56 58/111/55 50/45/47
f 60/113/57 59/112/56 50/45/47
f 61/114/58 60/113/57 50/45/47
f 62/115/59 61/114/58 50/45/47
f 63/116/60 62/115/59 50/45/47
f 64/117/61 63/116/60 50/45/47
f 65/118/62 64/117/61 50/45/47
f 66/119/63 65/118/62 50/45/47
f 67/120/64 66/119/63 50/45/47
f 68/121/65 67/120/64 50/45/47
f 48/123/46 68/121/65 50/45/47
s 5
f 21/4/66 22/3/67 41/47/68
f 22/3/67 23/6/69 41/47/68
f 23/6/69 24/53/70 41/47/68
f 24/53/70 25/48/71 41/47/68
f 25/48/71 26/18/72 41/47/68
f 26/18/72 27/17/73 41/47/68
f 27/17/73 28/20/74 41/47/68
f 28/20/74 29/22/75 41/47/68
f 29/22/75 30/24/76 41/47/68
f 30/24/76 31/26/77 41/47/68
f 31/26/77 32/28/78 41/47/68
f 32/28/78 33/30/79 41/47/68
f 33/30/79 34/32/80 41/47/68
f 34/32/80 35/34/81 41/47/68
f 35/34/81 36/36/82 41/47/68
f 36/36/82 37/38/83 41/47/68
f 37/38/83 38/40/84 41/47/68
f 38/40/84 39/42/85 41/47/68
f 39/42/85 40/44/86 41/47/68
f 40/44/86 21/4/66 41/47/68
s off
f 4/7/87 5/46/88 43/10/89 42/74/90
f 25/48/91 24/53/92 45/52/93 44/49/94
f 24/95/95 4/98/96 42/8/97 45/71/98
f 5/46/99 6/100/100 46/72/101 43/10/102
f 6/94/103 26/97/104 47/15/105 46/13/106
f 26/18/107 25/48/108 44/49/109 47/14/110
s 1
f 2/2/2 1/1/1 48/103/111 49/141/112
f 3/5/5 2/2/2 49/141/112 51/140/113
f 4/101/7 3/5/5 51/140/113 52/139/114
s 6
f 5/99/115 4/101/116 52/139/117 53/138/118
f 6/73/119 5/142/115 53/143/118 54/137/120
s 1
f 7/16/16 6/73/15 54/137/121 55/136/122
f 8/19/19 7/16/16 55/136/122 56/135/123
f 9/21/21 8/19/19 56/135/123 57/134/124
f 10/23/23 9/21/21 57/134/124 58/133/125
f 11/25/25 10/23/23 58/133/125 59/132/126
f 12/27/27 11/25/25 59/132/126 60/131/127
f 13/29/29 12/27/27 60/131/127 61/130/128
f 14/31/31 13/29/29 61/130/128 62/129/129
f 15/33/33 14/31/31 62/129/129 63/128/130
f 16/35/35 15/33/33 63/128/130 64/127/131
f 17/37/37 16/35/35 64/127/131 65/126/132
f 18/39/39 17/37/37 65/126/132 66/125/133
f 19/41/41 18/39/39 66/125/133 67/124/134
f 20/43/43 19/41/41 67/124/134 68/122/135
f 1/1/1 20/43/43 68/122/135 48/103/111
