# This file uses centimeters as units for non-parametric coordinates.

mtllib prongs.mtl
g default
v -3.500000 -0.092101 3.218187
v -2.500000 -0.092101 3.218187
v -3.500000 0.016559 3.218187
v -2.500000 0.016559 3.218187
v -3.500000 0.016559 2.218187
v -2.500000 0.016559 2.218187
v -3.500000 -0.092101 2.218187
v -2.500000 -0.092101 2.218187
v -3.000000 -0.092101 3.418682
v -3.000000 -0.092101 2.218187
v -3.000000 0.101374 2.218187
v -3.000000 0.101374 3.418682
v -3.456228 -0.092101 3.218187
v -3.456228 0.016559 3.218187
v -3.456228 0.016559 2.218187
v -3.456228 -0.092101 2.218187
v -2.543772 -0.092101 2.218187
v -2.543772 0.016559 2.218187
v -2.543772 0.016559 3.218187
v -2.543772 -0.092101 3.218187
v -3.324952 -0.092101 3.418682
v -3.324952 0.060008 3.418682
v -3.324952 0.060008 2.218187
v -3.324952 -0.092101 2.218187
v -2.675048 -0.092101 2.218187
v -2.675048 0.060008 2.218187
v -2.675048 0.060008 3.418682
v -2.675048 -0.092101 3.418682
v -3.177679 -0.092101 3.418682
v -3.177679 0.092694 3.418682
v -3.177679 0.092694 2.218187
v -3.177679 -0.092101 2.218187
v -2.822321 -0.092101 2.218187
v -2.822321 0.092694 2.218187
v -2.822321 0.092694 3.418682
v -2.822321 -0.092101 3.418682
v -2.543772 0.075089 2.218187
v -2.543772 0.075089 3.218187
v -2.500000 0.075089 3.218187
v -2.500000 0.075089 2.218187
v -3.500000 0.075089 3.218187
v -3.456228 0.075089 3.218187
v -3.456228 0.075089 2.218187
v -3.500000 0.075089 2.218187
v -3.304952 -0.072101 3.418682
v -3.197679 -0.072101 3.418682
v -3.197679 0.045706 3.418682
v -3.304952 0.045705 3.418682
v -2.802321 0.045706 3.418682
v -2.802321 -0.072101 3.418682
v -2.695048 -0.072101 3.418682
v -2.695048 0.045705 3.418682
v -3.304952 -0.066439 3.654480
v -3.197679 -0.066439 3.654480
v -3.197679 0.045706 3.654480
v -3.304952 0.045705 3.654480
v -2.802321 0.045705 3.654480
v -2.802321 -0.066439 3.654480
v -2.695048 -0.066439 3.654480
v -2.695048 0.045705 3.654480
v -3.274952 -0.042101 3.654480
v -3.227679 -0.042101 3.654480
v -3.227679 0.015706 3.654480
v -3.274952 0.015705 3.654480
v -2.772321 0.015706 3.654480
v -2.772321 -0.042101 3.654480
v -2.725048 -0.042101 3.654480
v -2.725048 0.015705 3.654480
v -3.274952 -0.042101 3.837550
v -3.227679 -0.042101 3.837550
v -3.227679 0.015706 3.837550
v -3.274952 0.015705 3.837550
v -2.772321 0.015706 3.837550
v -2.772321 -0.042101 3.837550
v -2.725048 -0.042101 3.837550
v -2.725048 0.015705 3.837550
vt 0.935570 0.865343
vt 0.907646 0.832849
vt 0.923328 0.831547
vt 0.080083 0.835486
vt 0.114410 0.477282
vt 0.946430 0.883171
vt 0.101035 0.835344
vt 0.925652 0.415875
vt 0.909363 0.475519
vt 0.135367 0.477145
vt 0.925310 0.436786
vt 0.925032 0.475601
vt 0.566448 0.474931
vt 0.568345 0.831990
vt 0.544444 0.857857
vt 0.527511 0.475013
vt 0.582126 0.474907
vt 0.584022 0.833230
vt 0.582039 0.435971
vt 0.508545 0.832507
vt 0.492885 0.832633
vt 0.581843 0.414990
vt 0.506540 0.475076
vt 0.471948 0.832799
vt 0.632576 0.901060
vt 0.613813 0.945487
vt 0.629060 0.420311
vt 0.629061 0.474832
vt 0.862448 0.475306
vt 0.862675 0.420784
vt 0.878585 0.944200
vt 0.859113 0.900804
vt 0.206070 0.190075
vt 0.261929 0.195518
vt 0.242407 0.195321
vt 0.226538 0.193595
vt 0.676044 0.968328
vt 0.681961 0.408380
vt 0.681956 0.474527
vt 0.683427 0.902114
vt 0.809495 0.474718
vt 0.238899 0.476477
vt 0.815756 0.968948
vt 0.413614 0.188947
vt 0.462848 0.187933
vt 0.447596 0.189844
vt 0.428908 0.190183
vt 0.808459 0.901872
vt 0.745985 0.902882
vt 0.305264 0.905720
vt 0.745877 0.405273
vt 0.745696 0.474473
vt 0.289103 0.348885
vt 0.326102 0.334947
vt 0.243145 0.357362
vt 0.200369 0.354999
vt 0.510964 0.322773
vt 0.393105 0.342743
vt 0.475876 0.335828
vt 0.433009 0.344125
vt 0.268874 0.270439
vt 0.299239 0.254599
vt 0.240160 0.274628
vt 0.213684 0.270226
vt 0.485528 0.246331
vt 0.403769 0.261503
vt 0.456165 0.260880
vt 0.428990 0.265309
vt 0.265172 0.261022
vt 0.282618 0.253907
vt 0.240053 0.262225
vt 0.219353 0.260840
vt 0.388417 0.246771
vt 0.408946 0.252651
vt 0.452739 0.252071
vt 0.428734 0.253625
vt 0.566163 0.415139
vt 0.490859 0.475130
vt 0.566363 0.436065
vt 0.469888 0.475210
vt 0.909996 0.415604
vt 0.098738 0.477386
vt 0.077783 0.477526
vt 0.909623 0.436596
vt 0.809799 0.408609
vt 0.184880 0.476821
vt 0.366313 0.475716
vt 0.302603 0.476086
vt 0.420345 0.475424
vt 0.868267 0.941790
vt 0.854247 0.907537
vt 0.637433 0.907569
vt 0.624054 0.942958
vt 0.669697 0.950575
vt 0.675496 0.909267
vt 0.038881 0.477787
vt 0.532413 0.875570
vt 0.545778 0.883724
vt 0.556140 0.866039
vt 0.529482 0.832333
vt 0.116704 0.835237
vt 0.959305 0.874596
vt 0.947397 0.857242
vt 0.137654 0.835095
vt 0.241600 0.906157
vt 0.187605 0.906525
vt 0.368924 0.905278
vt 0.745823 0.971997
vt 0.422904 0.904896
vt 0.041185 0.835749
vt 0.229520 0.176766
vt 0.208984 0.173207
vt 0.277942 0.194120
vt 0.198206 0.253223
vt 0.158640 0.341952
vt 0.416179 0.173007
vt 0.396582 0.170091
vt 0.394104 0.186204
vt 0.816439 0.908876
vt 0.822056 0.951168
vt 0.353190 0.331626
vt 0.468726 0.245566
vt 0.372488 0.251603
vt 0.181344 0.257345
vn 0.741072 0.000000 0.671425
vn 0.766949 0.000000 0.641708
vn 0.000000 0.000000 1.000000
vn 0.000000 0.000000 1.000000
vn 0.000000 1.000000 0.000000
vn 0.000000 1.000000 0.000000
vn 0.000000 1.000000 0.000000
vn 0.000000 1.000000 0.000000
vn 0.000001 0.000000 -1.000000
vn 0.000001 0.000000 -1.000000
vn 0.000000 0.000000 -1.000000
vn 0.000000 0.000000 -1.000000
vn 0.000000 -1.000000 0.000000
vn 0.000000 -1.000000 0.000000
vn 0.000000 -1.000000 0.000000
vn 0.000000 -1.000000 0.000000
vn 1.000000 0.000000 0.000000
vn 1.000000 0.000000 0.000000
vn 1.000000 0.000000 0.000000
vn 1.000000 0.000000 0.000000
vn -1.000000 0.000000 0.000000
vn -1.000000 0.000000 0.000000
vn -1.000000 0.000000 0.000000
vn -1.000000 0.000000 0.000000
vn 0.000000 -1.000000 0.000000
vn 0.000000 -1.000000 0.000000
vn 0.000000 -1.000000 0.000000
vn 0.000000 -1.000000 0.000000
vn 0.000000 0.000000 -1.000000
vn 0.000000 0.000000 -1.000000
vn 0.000000 0.000000 -1.000000
vn 0.000000 0.000000 -1.000000
vn 0.000000 1.000000 0.000000
vn 0.000000 1.000000 0.000000
vn 0.000000 1.000000 0.000000
vn 0.000000 1.000000 0.000000
vn 0.000000 0.000000 1.000000
vn -0.766949 0.000000 0.641708
vn -0.741073 0.000000 0.671425
vn 0.000000 0.000000 1.000000
vn -0.836620 0.000000 0.547784
vn -0.836620 0.000000 0.547784
vn -0.314215 0.949352 0.000000
vn -0.314215 0.949352 0.000000
vn -0.240704 0.970599 0.000000
vn -0.261534 0.965194 0.000000
vn 0.000000 0.000000 -1.000000
vn 0.000000 0.000000 -1.000000
vn 0.000000 -1.000000 0.000000
vn 0.000000 -1.000000 0.000000
vn 0.000000 0.000000 -1.000000
vn 0.000000 0.000000 -1.000000
vn 0.261534 0.965194 0.000000
vn 0.240704 0.970599 0.000000
vn 0.314215 0.949352 0.000000
vn 0.314215 0.949352 0.000000
vn 0.836620 0.000000 0.547784
vn 0.836620 0.000000 0.547784
vn 0.000000 -1.000000 0.000000
vn 0.000000 -1.000000 0.000000
vn -0.000005 0.000000 1.000000
vn -0.000005 0.000000 1.000000
vn -0.000005 0.000000 1.000000
vn -0.000005 0.000000 1.000000
vn -0.126277 0.991995 0.000000
vn -0.126277 0.991995 0.000000
vn 0.000001 0.000000 -1.000000
vn 0.000001 0.000000 -1.000000
vn 0.000000 -1.000000 0.000000
vn 0.000000 -1.000000 0.000000
vn -0.000001 0.000000 -1.000000
vn -0.000001 0.000000 -1.000000
vn 0.126277 0.991995 0.000000
vn 0.126277 0.991995 0.000000
vn 0.000003 0.000000 1.000000
vn 0.000003 0.000000 1.000000
vn 0.000003 0.000000 1.000000
vn 0.000003 0.000000 1.000000
vn 0.000000 -1.000000 0.000000
vn 0.000000 -1.000000 0.000000
vn -0.000001 0.000000 1.000000
vn 0.000000 0.000000 1.000000
vn 0.000000 0.000000 1.000000
vn -0.000001 0.000000 1.000000
vn 0.000000 1.000000 0.000000
vn 0.000000 1.000000 0.000000
vn 0.000000 0.000000 -1.000000
vn 0.000000 0.000000 -1.000000
vn 0.000000 -1.000000 0.000000
vn 0.000000 -1.000000 0.000000
vn 0.000002 0.000000 1.000000
vn 0.000002 0.000000 1.000000
vn -1.000000 0.000000 0.000000
vn -1.000000 0.000000 0.000000
vn -1.000000 0.000000 0.000000
vn -1.000000 0.000000 0.000000
vn 0.000000 0.000000 1.000000
vn 0.000000 0.000000 1.000000
vn 1.000000 0.000000 0.000000
vn 1.000000 0.000000 0.000000
vn 0.000000 0.000000 -1.000000
vn 0.000000 0.000000 -1.000000
vn 0.000000 0.000000 1.000000
vn 0.000000 0.000000 1.000000
vn 1.000000 0.000000 0.000000
vn 1.000000 0.000000 0.000000
vn 1.000000 0.000000 0.000000
vn 1.000000 0.000000 0.000000
vn 0.000000 0.000000 -1.000000
vn 0.000000 0.000000 -1.000000
vn -1.000000 0.000000 0.000000
vn -1.000000 0.000000 0.000000
vn -0.000004 0.000000 1.000000
vn 0.000005 0.000000 1.000000
vn -0.000004 0.000000 1.000000
vn 0.000005 0.000000 1.000000
vn -0.000003 0.000000 1.000000
vn -0.000003 0.000000 1.000000
vn -0.000003 0.000000 1.000000
vn -0.000003 0.000000 1.000000
vn 0.000006 0.000000 1.000000
vn 0.000006 0.000000 1.000000
vn 0.000004 0.000000 1.000000
vn 0.000003 0.000000 1.000000
vn 0.000000 -0.999712 0.024003
vn 0.000000 -0.999712 0.024003
vn 0.000000 -0.999712 0.024003
vn 0.000000 -0.999712 0.024003
vn 1.000000 0.000000 0.000000
vn 1.000000 0.000000 0.000000
vn 1.000000 0.000000 0.000000
vn 1.000000 0.000000 0.000000
vn -0.000002 1.000000 0.000000
vn -0.000002 1.000000 0.000000
vn -0.000002 1.000000 0.000000
vn -0.000002 1.000000 0.000000
vn -1.000000 0.000000 0.000000
vn -1.000000 0.000000 0.000000
vn -1.000000 0.000000 0.000000
vn -1.000000 0.000000 0.000000
vn 0.000000 -0.999712 0.024003
vn 0.000000 -0.999712 0.024003
vn 0.000000 -0.999712 0.024003
vn 0.000000 -0.999712 0.024003
vn 1.000000 0.000000 0.000000
vn 1.000000 0.000000 0.000000
vn 1.000000 0.000000 0.000000
vn 1.000000 0.000000 0.000000
vn 0.000001 1.000000 0.000001
vn 0.000001 1.000000 0.000001
vn 0.000001 1.000000 0.000001
vn 0.000001 1.000000 0.000001
vn 0.000000 0.000000 1.000000
vn 0.000000 0.000000 1.000000
vn 0.000000 0.000000 1.000000
vn 0.000000 0.000000 1.000000
vn 0.000003 0.000000 1.000000
vn 0.000003 0.000000 1.000000
vn 0.000003 0.000000 1.000000
vn 0.000003 0.000000 1.000000
vn 0.000000 0.000000 1.000000
vn 0.000000 0.000000 1.000000
vn 0.000000 0.000000 1.000000
vn 0.000000 0.000000 1.000000
vn 0.000000 0.000000 1.000000
vn 0.000000 0.000000 1.000000
vn 0.000000 0.000000 1.000000
vn 0.000000 0.000000 1.000000
vn 0.000000 0.000000 1.000000
vn 0.000000 0.000000 1.000000
vn 0.000000 0.000000 1.000000
vn 0.000000 0.000000 1.000000
vn 0.000000 -1.000000 0.000000
vn 0.000000 -1.000000 0.000000
vn 0.000000 -1.000000 0.000000
vn 0.000000 -1.000000 0.000000
vn 1.000000 0.000000 0.000000
vn 1.000000 0.000000 0.000000
vn 1.000000 0.000000 0.000000
vn 1.000000 0.000000 0.000000
vn -0.000002 1.000000 0.000000
vn -0.000002 1.000000 0.000000
vn -0.000002 1.000000 0.000000
vn -0.000002 1.000000 0.000000
vn -1.000000 0.000000 0.000000
vn -1.000000 0.000000 0.000000
vn -1.000000 0.000000 0.000000
vn -1.000000 0.000000 0.000000
vn -1.000000 0.000000 0.000000
vn -1.000000 0.000000 0.000000
vn -1.000000 0.000000 0.000000
vn -1.000000 0.000000 0.000000
vn 0.000000 -1.000000 0.000000
vn 0.000000 -1.000000 0.000000
vn 0.000000 -1.000000 0.000000
vn 0.000000 -1.000000 0.000000
vn 1.000000 0.000000 0.000000
vn 1.000000 0.000000 0.000000
vn 1.000000 0.000000 0.000000
vn 1.000000 0.000000 0.000000
vn 0.000002 1.000000 0.000000
vn 0.000002 1.000000 0.000000
vn 0.000002 1.000000 0.000000
vn 0.000002 1.000000 0.000000
vn -1.000000 0.000000 0.000000
vn -1.000000 0.000000 0.000000
vn -1.000000 0.000000 0.000000
vn -1.000000 0.000000 0.000000
vn 0.000000 0.000000 1.000000
vn 0.000000 0.000000 1.000000
vn 0.000000 0.000000 1.000000
vn 0.000000 0.000000 1.000000
vn 0.000000 0.000000 1.000000
vn 0.000000 0.000000 1.000000
vn 0.000000 0.000000 1.000000
vn 0.000000 0.000000 1.000000
vn -0.000003 0.000000 1.000000
vn -0.000003 0.000000 1.000000
vn -0.000003 0.000000 1.000000
vn -0.000003 0.000000 1.000000
s 1
g prongs Greebles
usemtl initialShadingGroup
f 19/1/1 20/2/2 2/3/3 4/103/4
s off
f 37/5/5 38/101/6 39/7/7 40/82/8
s 2
f 17/9/9 18/84/10 6/11/11 8/12/12
s 3
f 20/2/13 17/9/14 8/12/15 2/3/16
s 4
f 2/110/17 8/96/18 6/83/19 4/4/20
s 5
f 7/13/21 1/14/22 3/100/23 5/16/24
s 3
f 7/13/25 16/17/26 13/18/27 1/14/28
s 2
f 5/79/29 15/19/30 16/17/31 7/13/32
s off
f 41/20/33 42/21/34 43/78/35 44/23/36
s 8
f 1/14/37 13/18/38 14/99/39 3/15/40
f 13/18/38 21/25/41 22/26/42 14/99/39
s 9
f 15/80/43 14/24/44 22/109/45 23/89/46
s 2
f 16/17/31 15/19/30 23/27/47 24/28/48
s 3
f 13/18/27 16/17/26 24/28/49 21/25/50
s 2
f 25/29/51 26/30/52 18/84/10 17/9/9
s 9
f 26/86/53 27/106/54 19/104/55 18/10/56
s 1
f 27/31/57 28/32/58 20/2/2 19/1/1
s 3
f 28/32/59 25/29/60 17/9/14 20/2/13
s off
f 69/33/61 70/112/62 71/111/63 72/36/64
s 9
f 23/89/46 22/109/45 30/107/65 31/87/66
s 2
f 24/28/48 23/27/47 31/38/67 32/39/68
s 3
f 21/25/50 24/28/49 32/39/69 29/40/70
s 2
f 33/41/71 34/85/72 26/30/52 25/29/51
s 9
f 34/42/73 35/105/74 27/106/54 26/86/53
s off
f 73/44/75 74/118/76 75/117/77 76/116/78
s 3
f 36/48/79 33/41/80 25/29/60 28/32/59
s 11
f 29/40/81 9/49/82 12/108/83 30/37/84
s 9
f 31/87/66 30/107/65 12/50/85 11/88/86
s 2
f 32/39/68 31/38/67 11/51/87 10/52/88
s 3
f 29/40/70 32/39/69 10/52/89 9/49/90
s 2
f 10/52/88 11/51/87 34/85/72 33/41/71
s 9
f 11/88/86 12/50/85 35/105/74 34/42/73
s 11
f 12/108/83 9/49/82 36/48/91 35/43/92
s 3
f 9/49/90 10/52/89 33/41/80 36/48/79
s off
f 18/10/93 19/104/94 38/101/95 37/5/96
s 1
f 19/1/1 4/103/4 39/102/97 38/6/98
s 4
f 4/4/20 6/83/19 40/82/99 39/7/100
s 2
f 6/11/11 18/84/10 37/81/101 40/8/102
s 8
f 3/15/40 14/99/39 42/98/103 41/97/104
s off
f 14/24/105 15/80/106 43/78/107 42/21/108
s 2
f 15/19/30 5/79/29 44/77/109 43/22/110
s 5
f 5/16/24 3/100/23 41/20/111 44/23/112
s 11
f 21/25/113 29/40/81 46/95/114 45/92/115
f 29/40/81 30/37/84 47/94/116 46/95/114
f 30/37/84 22/26/117 48/93/118 47/94/116
f 22/26/117 21/25/113 45/92/115 48/93/118
f 35/43/92 36/48/91 50/119/119 49/120/120
f 36/48/91 28/32/121 51/91/122 50/119/119
f 28/32/121 27/31/123 52/90/124 51/91/122
f 27/31/123 35/43/92 49/120/120 52/90/124
s off
f 45/54/125 46/53/126 54/61/127 53/62/128
f 46/53/129 47/55/130 55/63/131 54/61/132
f 47/55/133 48/56/134 56/64/135 55/63/136
f 48/56/137 45/115/138 53/124/139 56/64/140
f 50/57/141 51/59/142 59/67/143 58/65/144
f 51/59/145 52/60/146 60/68/147 59/67/148
f 52/60/149 49/58/150 57/66/151 60/68/152
f 55/63/153 56/64/154 64/72/155 63/71/156
f 56/64/157 53/124/158 61/114/159 64/72/160
f 54/61/161 62/69/162 61/70/163 53/62/164
f 55/63/165 63/71/166 62/69/167 54/61/168
f 59/67/169 60/68/170 68/76/171 67/75/172
f 61/70/173 62/69/174 70/34/175 69/113/176
f 62/69/177 63/71/178 71/35/179 70/34/180
f 63/71/181 64/72/182 72/36/183 71/35/184
f 64/72/185 61/114/186 69/33/187 72/36/188
f 65/74/189 66/73/190 74/118/191 73/44/192
f 66/122/193 67/75/194 75/46/195 74/45/196
f 67/75/197 68/76/198 76/47/199 75/46/200
f 68/76/201 65/74/202 73/44/203 76/47/204
f 57/66/205 49/58/206 50/121/207 58/123/208
f 58/65/209 59/67/210 67/75/211 66/122/212
f 66/73/213 65/74/214 57/66/215 58/123/216
f 60/68/217 57/66/218 65/74/219 68/76/220
