# This file uses centimeters as units for non-parametric coordinates.

mtllib RaidiatorLP.mtl
g default
v 2.926079 0.039683 0.403381
v 2.926076 0.039683 -0.346073
v 2.926079 2.340546 0.403381
v 2.926076 2.340546 -0.346073
v -2.587382 2.340546 0.403381
v -2.587384 2.340546 -0.346076
v -2.587382 0.039683 0.403381
v -2.587384 0.039683 -0.346076
v 2.926077 3.295212 -0.068254
v 2.926076 3.295212 -0.346073
v -2.587384 3.295212 -0.346076
v -2.587382 3.295212 -0.068254
v -2.587382 0.373763 0.403381
v 2.926079 0.373763 0.403381
v 2.926076 0.373763 -0.346073
v -2.587384 0.373763 -0.346076
v 2.804430 2.442945 0.434419
v -2.465736 2.442945 0.434418
v 2.804434 3.249488 0.026503
v -2.465736 3.249488 0.026505
v -2.587382 0.110298 0.515384
v -2.587382 0.039683 0.436990
v 2.926077 0.110298 0.515384
v 2.926077 0.039683 0.436990
v 2.926077 0.303149 0.515384
v 2.926077 0.373763 0.436990
v -2.587382 0.303149 0.515384
v -2.587382 0.373763 0.436990
v 2.804431 3.159873 0.071827
v -2.465736 3.159873 0.071828
v -2.587381 3.189138 -0.015851
v -2.587384 3.189138 -0.346076
v 2.926076 3.189138 -0.346073
v 2.926080 3.189138 -0.015851
v 2.804432 3.070257 0.117151
v -2.465737 3.070257 0.117151
v -2.587381 3.083064 0.036552
v -2.587384 3.083064 -0.346076
v 2.926076 3.083064 -0.346073
v 2.926077 3.083064 0.036553
v 2.804434 2.980641 0.162474
v -2.465736 2.980641 0.162476
v -2.587382 2.976990 0.088958
v -2.587384 2.976990 -0.346076
v 2.926076 2.976990 -0.346073
v 2.926076 2.976990 0.088958
v 2.804431 2.891025 0.207800
v -2.465736 2.891025 0.207800
v -2.587382 2.870916 0.141361
v -2.587384 2.870916 -0.346076
v 2.926076 2.870916 -0.346073
v 2.926077 2.870916 0.141361
v 2.804430 2.801409 0.253123
v -2.465737 2.801409 0.253123
v -2.587381 2.764842 0.193765
v -2.587384 2.764842 -0.346076
v 2.926076 2.764842 -0.346073
v 2.926079 2.764842 0.193765
v 2.804431 2.711794 0.298446
v -2.465736 2.711794 0.298446
v -2.587381 2.658768 0.246170
v -2.587384 2.658768 -0.346076
v 2.926076 2.658768 -0.346073
v 2.926077 2.658768 0.246170
v 2.804431 2.622178 0.343770
v -2.465737 2.622178 0.343770
v -2.587382 2.552694 0.298575
v -2.587384 2.552694 -0.346076
v 2.926076 2.552694 -0.346073
v 2.926076 2.552694 0.298575
v 2.804430 2.532562 0.389095
v -2.465737 2.532562 0.389093
v -2.587382 2.446620 0.350979
v -2.587384 2.446620 -0.346076
v 2.926076 2.446620 -0.346073
v 2.926077 2.446620 0.350978
v 2.804431 2.925892 -0.168296
v -2.465737 2.925892 -0.168295
v 2.804431 3.015507 -0.213619
v -2.465737 3.015507 -0.213618
v 2.804432 2.746653 -0.077645
v -2.465736 2.746653 -0.077646
v 2.804434 2.836269 -0.122970
v -2.465735 2.836269 -0.122969
v 2.804430 2.567429 0.013000
v -2.465737 2.567429 0.013000
v 2.804428 2.657045 -0.032323
v -2.465737 2.657045 -0.032323
v 2.804432 2.388192 0.103648
v -2.465736 2.388192 0.103648
v 2.804431 2.477808 0.058324
v -2.465736 2.477808 0.058326
vt 0.969472 0.780339
vt 0.787029 0.014294
vt 0.814364 0.366146
vt 0.157232 0.364111
vt 0.799749 0.378814
vt 0.171723 0.376861
vt 0.799758 0.390782
vt 0.171598 0.388821
vt 0.943215 0.772377
vt 0.943215 0.400867
vt 0.956501 0.400867
vt 0.956501 0.772377
vt 0.812984 0.804027
vt 0.073952 0.975007
vt 0.073551 0.347208
vt 0.105186 0.347188
vt 0.170488 0.789618
vt 0.798511 0.791465
vt 0.170485 0.777654
vt 0.798583 0.779501
vt 0.933925 0.772377
vt 0.883879 0.772377
vt 0.883879 0.400867
vt 0.933925 0.400867
vt 0.936169 0.400867
vt 0.936169 0.772377
vt 0.965794 0.400867
vt 0.965794 0.772377
vt 0.963549 0.772377
vt 0.963549 0.400867
vt 0.170729 0.689427
vt 0.798846 0.691285
vt 0.798732 0.729410
vt 0.170622 0.727556
vt 0.170765 0.677458
vt 0.798881 0.679317
vt 0.798697 0.741378
vt 0.170591 0.739531
vt 0.171016 0.589230
vt 0.799147 0.591108
vt 0.799033 0.629227
vt 0.170906 0.627360
vt 0.171051 0.577260
vt 0.799180 0.579142
vt 0.798997 0.641193
vt 0.170874 0.639336
vt 0.171305 0.489030
vt 0.799445 0.490946
vt 0.799327 0.529062
vt 0.171193 0.527159
vt 0.171338 0.477058
vt 0.799481 0.478980
vt 0.799292 0.541027
vt 0.171159 0.539134
vt 0.799637 0.428902
vt 0.171482 0.426952
vt 0.799599 0.440866
vt 0.171447 0.438927
vt 0.959491 0.345204
vt 0.872446 0.238406
vt 0.938088 0.393544
vt 0.938088 0.345204
vt 0.872451 0.250491
vt 0.854556 0.422015
vt 0.960009 0.395625
vt 0.938088 0.395809
vt 0.872458 0.262574
vt 0.854430 0.436097
vt 0.837637 0.429051
vt 0.872476 0.274663
vt 0.816202 0.488148
vt 0.872484 0.286753
vt 0.853994 0.540411
vt 0.837370 0.529165
vt 0.872494 0.298845
vt 0.815779 0.592479
vt 0.872499 0.310944
vt 0.853598 0.644853
vt 0.837091 0.629345
vt 0.872500 0.323047
vt 0.815334 0.697010
vt 0.872496 0.335143
vt 0.853205 0.749359
vt 0.836815 0.729493
vt 0.872492 0.347250
vt 0.073442 0.238458
vt 0.073405 0.014342
vt 0.152861 0.250518
vt 0.073443 0.250548
vt 0.928904 0.869562
vt 0.928904 0.780339
vt 0.146896 0.262598
vt 0.073456 0.262635
vt 0.928904 0.772377
vt 0.969472 0.777304
vt 0.133123 0.438867
vt 0.140934 0.274676
vt 0.073468 0.274723
vt 0.134974 0.286758
vt 0.073485 0.286809
vt 0.132765 0.539094
vt 0.129020 0.298845
vt 0.073501 0.298892
vt 0.123068 0.310934
vt 0.073518 0.310972
vt 0.132474 0.639372
vt 0.117111 0.323019
vt 0.073530 0.323053
vt 0.111153 0.335099
vt 0.073538 0.335134
vt 0.132187 0.739628
vt 0.836783 0.741458
vt 0.132179 0.727532
vt 0.837068 0.641293
vt 0.132480 0.627286
vt 0.837350 0.541104
vt 0.132790 0.527034
vt 0.837596 0.440989
vt 0.133147 0.426841
vt 0.965761 0.869562
vt 0.158808 0.014342
vt 0.959952 0.393544
vt 0.872419 0.014294
vt 0.158828 0.238436
vt 0.105586 0.974986
vt 0.155941 0.802094
vt 0.116177 0.419710
vt 0.154479 0.472070
vt 0.115882 0.524144
vt 0.154360 0.576516
vt 0.115602 0.628704
vt 0.154249 0.680937
vt 0.115412 0.733296
vt 0.153771 0.787337
vt 0.793018 0.250514
vt 0.799000 0.262607
vt 0.804977 0.274694
vt 0.810958 0.286772
vt 0.816927 0.298852
vt 0.822888 0.310941
vt 0.828863 0.323031
vt 0.834831 0.335135
vt 0.840800 0.347244
vt 0.787029 0.238420
vt 0.155100 0.378802
vt 0.116234 0.433854
vt 0.154537 0.486194
vt 0.115919 0.538364
vt 0.154373 0.590632
vt 0.115663 0.643014
vt 0.154221 0.694980
vt 0.115489 0.747642
vt 0.815538 0.382046
vt 0.816292 0.474061
vt 0.854066 0.526357
vt 0.815813 0.578407
vt 0.853665 0.630788
vt 0.815434 0.682917
vt 0.853321 0.735235
vt 0.815260 0.789291
vn 1.000000 0.000000 -0.000003
vn 1.000000 0.000000 -0.000003
vn 1.000000 0.000000 -0.000003
vn 1.000000 0.000000 -0.000003
vn 0.000000 1.000000 0.000000
vn 0.000000 1.000000 0.000000
vn 0.000000 1.000000 0.000000
vn 0.000000 1.000000 0.000000
vn -1.000000 0.000000 0.000002
vn -1.000000 0.000000 0.000002
vn -1.000000 -0.000000 0.000002
vn -1.000000 0.000000 0.000002
vn 0.000000 -1.000000 0.000000
vn 0.000000 -1.000000 0.000000
vn 0.000000 -1.000000 0.000000
vn 0.000000 -1.000000 0.000000
vn 0.000000 -0.000000 1.000000
vn 0.000000 -0.000000 1.000000
vn 0.000000 -0.000000 1.000000
vn 0.000000 -0.000000 1.000000
vn 1.000000 0.000006 -0.000002
vn 1.000000 0.000007 -0.000002
vn -1.000000 0.000001 0.000002
vn -1.000000 0.000001 0.000002
vn -0.000000 0.451321 0.892362
vn -0.000000 0.451321 0.892362
vn -0.000000 0.451321 0.892362
vn -0.000000 0.451321 0.892362
vn 0.000000 0.000000 1.000000
vn 0.000000 0.000000 1.000000
vn 0.000000 0.000000 1.000000
vn 0.000000 0.000000 1.000000
vn 1.000000 -0.000000 -0.000001
vn 1.000000 0.000000 -0.000003
vn -1.000000 0.000000 0.000002
vn -1.000000 0.000000 0.000002
vn 0.000000 -1.000000 0.000000
vn 0.000000 -1.000000 0.000000
vn 1.000000 -0.000000 0.000015
vn 1.000000 -0.000000 0.000015
vn 1.000000 -0.000000 0.000015
vn 1.000000 -0.000000 0.000015
vn 0.000000 1.000000 -0.000000
vn 0.000000 1.000000 -0.000000
vn 0.000000 1.000000 -0.000000
vn 0.000000 1.000000 -0.000000
vn -1.000000 0.000000 0.000000
vn -1.000000 0.000000 0.000000
vn -1.000000 0.000000 0.000000
vn -1.000000 0.000000 0.000000
vn -0.000000 -0.290070 0.957006
vn -0.000000 -0.290070 0.957006
vn -0.000000 -0.290070 0.957006
vn -0.000000 -0.290070 0.957006
vn 0.514600 0.383089 0.767092
vn 0.512631 0.383614 0.768147
vn 0.511279 0.383973 0.768868
vn 0.514600 0.383089 0.767092
vn 0.000000 0.900631 0.434584
vn 0.000000 0.900631 0.434584
vn 0.000000 0.900631 0.434584
vn 0.000000 0.900631 0.434584
vn -0.512626 0.383609 0.768153
vn -0.514594 0.383080 0.767100
vn -0.514594 0.383080 0.767100
vn -0.511276 0.383970 0.768872
vn 0.000000 -0.743011 0.669279
vn 0.000000 -0.743011 0.669279
vn 0.000000 -0.743011 0.669279
vn 0.000000 -0.743011 0.669279
vn 0.000000 0.743011 0.669279
vn 0.000000 0.743011 0.669279
vn 0.000000 0.743011 0.669279
vn 0.000000 0.743011 0.669279
vn 0.000000 0.451319 0.892363
vn 0.000000 0.451319 0.892363
vn 0.000000 0.451319 0.892363
vn 0.000000 0.451319 0.892363
vn -0.470475 0.394243 0.789446
vn -0.472544 0.393750 0.788456
vn -0.474156 0.393364 0.787681
vn -0.470475 0.394243 0.789446
vn -1.000000 0.000000 0.000007
vn -1.000000 0.000000 0.000007
vn -1.000000 0.000000 0.000007
vn -1.000000 0.000000 0.000007
vn 1.000000 -0.000008 -0.000008
vn 1.000000 -0.000003 -0.000008
vn 1.000000 0.000014 -0.000009
vn 1.000000 0.000014 -0.000009
vn 0.474139 0.393372 0.787687
vn 0.472527 0.393758 0.788462
vn 0.470459 0.394252 0.789451
vn 0.470459 0.394252 0.789451
vn 0.000000 0.451312 0.892366
vn 0.000000 0.451312 0.892366
vn 0.000000 0.451312 0.892366
vn 0.000000 0.451312 0.892366
vn -0.478448 0.392330 0.785598
vn -0.479637 0.392042 0.785017
vn -1.000000 0.000004 0.000006
vn -1.000000 0.000005 0.000006
vn 1.000000 -0.000007 -0.000003
vn 1.000000 -0.000010 -0.000004
vn 0.479630 0.392041 0.785022
vn 0.478437 0.392331 0.785604
vn 0.000000 0.451317 0.892363
vn 0.000000 0.451317 0.892363
vn 0.000000 0.451317 0.892364
vn 0.000000 0.451317 0.892364
vn -0.484300 0.390896 0.782722
vn -0.485048 0.390710 0.782352
vn -1.000000 0.000003 0.000004
vn -1.000000 0.000002 0.000004
vn 1.000000 0.000001 -0.000001
vn 1.000000 0.000000 -0.000001
vn 0.485049 0.390706 0.782353
vn 0.484300 0.390892 0.782724
vn 0.000000 0.451322 0.892361
vn 0.000000 0.451322 0.892361
vn 0.000000 0.451322 0.892361
vn 0.000000 0.451322 0.892361
vn -0.490104 0.389445 0.779827
vn -0.490400 0.389371 0.779678
vn -1.000000 0.000000 0.000004
vn -1.000000 0.000000 0.000004
vn 1.000000 0.000006 -0.000003
vn 1.000000 0.000005 -0.000003
vn 0.490396 0.389371 0.779680
vn 0.490101 0.389445 0.779829
vn 0.000000 0.451313 0.892366
vn 0.000000 0.451313 0.892366
vn 0.000000 0.451313 0.892366
vn 0.000000 0.451313 0.892366
vn -0.495845 0.387993 0.776917
vn -0.495691 0.388032 0.776995
vn -1.000000 0.000001 0.000004
vn -1.000000 0.000001 0.000004
vn 1.000000 -0.000002 -0.000003
vn 1.000000 -0.000000 -0.000004
vn 0.495682 0.388034 0.777000
vn 0.495836 0.387995 0.776922
vn 0.000000 0.451313 0.892366
vn 0.000000 0.451313 0.892366
vn 0.000000 0.451313 0.892366
vn 0.000000 0.451313 0.892366
vn -0.501514 0.386540 0.773997
vn -0.500929 0.386690 0.774301
vn -1.000000 0.000003 0.000004
vn -1.000000 0.000003 0.000004
vn 1.000000 -0.000007 -0.000002
vn 1.000000 -0.000007 -0.000002
vn 0.500921 0.386689 0.774306
vn 0.501507 0.386538 0.774002
vn 0.000000 0.451322 0.892361
vn 0.000000 0.451322 0.892361
vn 0.000000 0.451322 0.892361
vn 0.000000 0.451322 0.892361
vn -0.507109 0.385078 0.771074
vn -0.506122 0.385339 0.771592
vn -1.000000 0.000002 0.000003
vn -1.000000 0.000001 0.000003
vn 1.000000 0.000000 -0.000001
vn 1.000000 -0.000001 -0.000001
vn 0.506120 0.385336 0.771595
vn 0.507108 0.385076 0.771076
vn 0.000000 0.451316 0.892364
vn 0.000000 0.451316 0.892364
vn 0.000000 0.451316 0.892364
vn 0.000000 0.451316 0.892364
vn -0.000000 0.892365 -0.451315
vn -0.000000 0.892365 -0.451315
vn -0.000000 0.892365 -0.451315
vn -0.000000 0.892365 -0.451315
vn -1.000000 -0.000007 0.000005
vn -1.000000 -0.000007 0.000005
vn -1.000000 -0.000007 0.000005
vn -1.000000 -0.000007 0.000005
vn 0.000000 -0.892364 0.451316
vn 0.000000 -0.892364 0.451316
vn 0.000000 -0.892364 0.451316
vn 0.000000 -0.892364 0.451316
vn 1.000000 -0.000007 0.000001
vn 1.000000 -0.000007 0.000001
vn 1.000000 -0.000007 0.000001
vn 1.000000 -0.000007 0.000001
vn 0.000000 0.892355 -0.451333
vn 0.000000 0.892355 -0.451333
vn 0.000000 0.892355 -0.451334
vn 0.000000 0.892355 -0.451333
vn -1.000000 0.000017 -0.000011
vn -1.000000 0.000017 -0.000011
vn -1.000000 0.000017 -0.000011
vn -1.000000 0.000017 -0.000011
vn 0.000000 -0.892355 0.451335
vn 0.000000 -0.892355 0.451335
vn 0.000000 -0.892355 0.451335
vn 0.000000 -0.892355 0.451335
vn 1.000000 -0.000004 0.000004
vn 1.000000 -0.000004 0.000004
vn 1.000000 -0.000004 0.000004
vn 1.000000 -0.000004 0.000004
vn 0.000000 0.892365 -0.451314
vn 0.000000 0.892365 -0.451314
vn 0.000000 0.892365 -0.451314
vn 0.000000 0.892365 -0.451314
vn -1.000000 -0.000011 0.000010
vn -1.000000 -0.000011 0.000010
vn -1.000000 -0.000011 0.000010
vn -1.000000 -0.000011 0.000010
vn 0.000000 -0.892365 0.451315
vn 0.000000 -0.892365 0.451315
vn 0.000000 -0.892365 0.451315
vn 0.000000 -0.892365 0.451315
vn 1.000000 0.000006 -0.000005
vn 1.000000 0.000006 -0.000005
vn 1.000000 0.000006 -0.000005
vn 1.000000 0.000006 -0.000005
vn 0.000000 0.892359 -0.451327
vn 0.000000 0.892359 -0.451327
vn 0.000000 0.892359 -0.451327
vn 0.000000 0.892359 -0.451327
vn -1.000000 -0.000002 -0.000003
vn -1.000000 -0.000002 -0.000003
vn -1.000000 -0.000002 -0.000003
vn -1.000000 -0.000002 -0.000003
vn 0.000000 -0.892359 0.451326
vn 0.000000 -0.892359 0.451326
vn 0.000000 -0.892359 0.451326
vn 0.000000 -0.892359 0.451326
vn 1.000000 0.000002 0.000004
vn 1.000000 0.000002 0.000004
vn 1.000000 0.000002 0.000004
vn 1.000000 0.000002 0.000004
s 1
g Ceiling_Pipes:pCube65
usemtl initialShadingGroup
f 14/2/1 15/123/2 4/60/3 3/144/4
s off
f 9/125/5 10/14/6 11/15/7 12/16/8
s 2
f 5/124/9 6/86/10 16/87/11 13/121/12
s 3
f 7/21/13 8/22/14 2/23/15 1/24/16
s off
f 13/121/17 14/2/18 3/144/19 5/124/20
s 1
f 3/144/4 4/60/3 75/63/21 76/135/22
s 2
f 6/86/10 5/124/9 73/88/23 74/89/24
s off
f 18/6/25 17/5/26 71/7/27 72/8/28
f 21/9/29 23/10/30 25/11/31 27/12/32
s 1
f 1/61/33 2/62/34 15/59/2 14/122/1
s 2
f 13/1/12 16/120/11 8/90/35 7/91/36
s 3
f 7/21/13 1/24/16 24/25/37 22/26/38
s 1
f 1/61/33 14/122/1 26/65/39 25/11/40 23/10/41 24/66/42
s off
f 14/27/43 13/28/44 28/29/45 26/30/46
s 2
f 13/1/12 7/91/36 22/94/47 21/9/48 27/12/49 28/95/50
s off
f 5/4/51 3/3/52 17/5/53 18/6/54
s 4
f 3/3/55 76/153/56 71/7/57 17/5/58
s off
f 9/13/59 12/126/60 20/17/61 19/18/62
s 5
f 73/145/63 5/4/64 18/6/65 72/8/66
s off
f 21/9/67 22/26/68 24/25/69 23/10/70
f 25/11/71 26/30/72 28/29/73 27/12/74
f 30/19/75 29/20/76 19/18/77 20/17/78
s 5
f 12/126/79 31/134/80 30/19/81 20/17/82
s 2
f 32/110/83 31/109/84 12/16/85 11/15/86
s 1
f 34/142/87 33/82/88 10/85/89 9/143/90
s 4
f 29/20/91 34/160/92 9/13/93 19/18/94
s off
f 78/34/95 77/33/96 79/37/97 80/38/98
s 5
f 31/152/80 37/133/99 36/113/100 30/111/81
s 2
f 38/108/101 37/107/102 31/109/84 32/110/83
s 1
f 40/141/103 39/80/104 33/82/88 34/142/87
s 4
f 35/84/105 40/159/106 34/83/92 29/112/91
s off
f 42/35/107 41/36/108 35/32/109 36/31/110
s 5
f 37/151/99 43/132/111 42/35/112 36/31/100
s 2
f 44/105/113 43/104/114 37/107/102 38/108/101
s 1
f 46/140/115 45/77/116 39/80/104 40/141/103
s 4
f 41/36/117 46/158/118 40/81/106 35/32/105
s off
f 82/42/119 81/41/120 83/45/121 84/46/122
s 5
f 43/150/111 49/131/123 48/115/124 42/106/112
s 2
f 50/103/125 49/102/126 43/104/114 44/105/113
s 1
f 52/139/127 51/75/128 45/77/116 46/140/115
s 4
f 47/79/129 52/157/130 46/78/118 41/114/117
s off
f 54/43/131 53/44/132 47/40/133 48/39/134
s 5
f 49/149/123 55/130/135 54/43/136 48/39/124
s 2
f 56/100/137 55/99/138 49/102/126 50/103/125
s 1
f 58/138/139 57/72/140 51/75/128 52/139/127
s 4
f 53/44/141 58/156/142 52/76/130 47/40/129
s off
f 86/50/143 85/49/144 87/53/145 88/54/146
s 5
f 55/148/135 61/129/147 60/117/148 54/101/136
s 2
f 62/98/149 61/97/150 55/99/138 56/100/137
s 1
f 64/137/151 63/70/152 57/72/140 58/138/139
s 4
f 59/74/153 64/155/154 58/73/142 53/116/141
s off
f 66/51/155 65/52/156 59/48/157 60/47/158
s 5
f 61/147/147 67/128/159 66/51/160 60/47/148
s 2
f 68/93/161 67/92/162 61/97/150 62/98/149
s 1
f 70/136/163 69/67/164 63/70/152 64/137/151
s 4
f 65/52/165 70/154/166 64/71/154 59/48/153
s off
f 90/56/167 89/55/168 91/57/169 92/58/170
s 5
f 67/146/159 73/127/63 72/119/66 66/96/160
s 2
f 74/89/24 73/88/23 67/92/162 68/93/161
s 1
f 76/135/22 75/63/21 69/67/164 70/136/163
s 4
f 71/69/57 76/64/56 70/68/166 65/118/165
s off
f 36/31/171 35/32/172 77/33/173 78/34/174
f 35/84/175 29/112/176 79/37/177 77/33/178
f 29/20/179 30/19/180 80/38/181 79/37/182
f 30/111/183 36/113/184 78/34/185 80/38/186
f 48/39/187 47/40/188 81/41/189 82/42/190
f 47/79/191 41/114/192 83/45/193 81/41/194
f 41/36/195 42/35/196 84/46/197 83/45/198
f 42/106/199 48/115/200 82/42/201 84/46/202
f 60/47/203 59/48/204 85/49/205 86/50/206
f 59/74/207 53/116/208 87/53/209 85/49/210
f 53/44/211 54/43/212 88/54/213 87/53/214
f 54/101/215 60/117/216 86/50/217 88/54/218
f 72/8/219 71/7/220 89/55/221 90/56/222
f 71/69/223 65/118/224 91/57/225 89/55/226
f 65/52/227 66/51/228 92/58/229 91/57/230
f 66/96/231 72/119/232 90/56/233 92/58/234
