# This file uses centimeters as units for non-parametric coordinates.

mtllib end_Wall.mtl
g default
v -0.163365 -1.311943 -1.177076
v -0.163364 -0.004872 -1.916984
v -0.163365 1.311943 -1.117239
v -0.163365 -1.311943 1.916983
v -0.163364 -0.004872 1.916975
v -0.163365 1.311943 1.916983
v -0.163364 -0.981943 -0.984678
v -0.163364 -0.010743 -1.534455
v -0.163364 -0.981943 1.586981
v -0.163364 -0.004872 1.586975
v -0.163364 0.981943 -0.931565
v -0.163364 0.981943 1.586981
v 0.163364 -0.872781 -0.872292
v 0.163365 -0.009548 -1.360951
v 0.163364 -0.872781 1.413477
v 0.163364 -0.004331 1.413472
v 0.163364 0.872781 -0.825084
v 0.163364 0.872781 1.413477
v 0.163364 -0.763175 -0.825083
v 0.163365 -0.019832 -0.825084
v 0.163364 -0.763176 1.260524
v 0.163364 -0.005770 1.260523
v 0.163364 0.763176 -0.825083
v 0.163364 0.763176 1.260524
v 0.163364 -0.494245 -0.625083
v 0.163364 -0.597641 -0.659549
v 0.163364 -0.563175 -0.556153
v 0.099364 -0.563175 -0.556153
v 0.099364 -0.494245 -0.625083
v 0.163365 -0.218025 -0.556386
v 0.163365 -0.184140 -0.659665
v 0.163365 -0.287188 -0.625084
v 0.099364 -0.218025 -0.556386
v 0.099364 -0.287188 -0.625084
v 0.163364 -0.563176 0.991594
v 0.163364 -0.597641 1.094989
v 0.163364 -0.494245 1.060524
v 0.099364 -0.494245 1.060524
v 0.099364 -0.563175 0.991594
v 0.163364 -0.276287 1.060524
v 0.163364 -0.172542 1.094872
v 0.163364 -0.207590 0.991361
v 0.099364 -0.207590 0.991361
v 0.099364 -0.276287 1.060524
v 0.163365 0.250685 -0.625084
v 0.163365 0.146939 -0.659433
v 0.163365 0.181987 -0.555921
v 0.099364 0.181987 -0.555921
v 0.099364 0.250685 -0.625084
v 0.163364 0.563176 -0.556153
v 0.163364 0.597641 -0.659549
v 0.163364 0.494245 -0.625083
v 0.099364 0.563176 -0.556153
v 0.099364 0.494245 -0.625083
v 0.163364 0.192423 0.991826
v 0.163364 0.158537 1.095105
v 0.163364 0.261585 1.060524
v 0.099364 0.261585 1.060524
v 0.099364 0.192423 0.991826
v 0.163364 0.494245 1.060524
v 0.163364 0.597641 1.094989
v 0.163364 0.563176 0.991594
v 0.099364 0.563176 0.991594
v 0.099364 0.494245 1.060524
v -0.182374 -1.311943 -1.177076
v -0.182373 -0.004872 -1.916984
v -0.182374 -0.981943 -0.984678
v -0.182373 -0.010743 -1.534455
v -0.182374 -1.311943 1.916983
v -0.182374 -0.981943 1.586981
v -0.182373 -0.004872 1.916975
v -0.182373 -0.004872 1.586975
v -0.182374 1.311943 -1.117239
v -0.182374 0.981943 -0.931565
v -0.182374 1.311943 1.916983
v -0.182374 0.981943 1.586981
vt 0.000000 0.344497
vt 0.184025 0.009420
vt 0.236930 0.099153
vt 0.106239 0.342599
vt 0.951953 0.000000
vt 0.874580 0.096300
vt 1.000000 0.339042
vt 0.907202 0.339824
vt 0.201601 0.680865
vt 0.253014 0.590686
vt 0.957007 0.680909
vt 0.876779 0.586178
vt 0.336544 0.171398
vt 0.244412 0.334149
vt 0.767499 0.171402
vt 0.767497 0.335138
vt 0.345442 0.500503
vt 0.767496 0.500507
vt 0.345445 0.192063
vt 0.345443 0.332211
vt 0.738662 0.192067
vt 0.738660 0.334867
vt 0.345442 0.479839
vt 0.738659 0.479842
vt 0.376654 0.223273
vt 0.383152 0.242767
vt 0.169215 0.782814
vt 0.376631 0.301234
vt 0.707452 0.223276
vt 0.687958 0.229774
vt 0.188252 0.714036
vt 0.707429 0.303423
vt 0.700953 0.283863
vt 0.507507 0.731456
vt 0.396104 0.294845
vt 0.488366 0.802292
vt 0.376675 0.363655
vt 0.383150 0.383215
vt 0.549997 0.782484
vt 0.376652 0.448629
vt 0.707472 0.365844
vt 0.688000 0.372233
vt 0.568434 0.709882
vt 0.707450 0.448632
vt 0.700952 0.429138
vt 0.874932 0.728680
vt 0.396146 0.442131
vt 0.856598 0.799309
vt 0.180388 0.777956
vt 0.179881 0.738724
vt 0.192378 0.725591
vt 0.484113 0.723412
vt 0.496327 0.736324
vt 0.496841 0.777629
vt 0.484304 0.790716
vt 0.192562 0.790912
vt 0.560763 0.777852
vt 0.560260 0.733535
vt 0.572323 0.720988
vt 0.852465 0.720879
vt 0.864171 0.733309
vt 0.864661 0.775633
vt 0.852643 0.788225
vt 0.572519 0.790242
vt 0.874238 0.779368
vt 0.687956 0.442134
vt 0.855882 0.709979
vt 0.700952 0.385273
vt 0.569169 0.801161
vt 0.383150 0.429135
vt 0.550652 0.729794
vt 0.396190 0.370263
vt 0.506745 0.781532
vt 0.687913 0.296815
vt 0.487622 0.712034
vt 0.700954 0.242770
vt 0.188989 0.802272
vt 0.383151 0.281805
vt 0.170019 0.734827
vt 0.396148 0.229771
vt 0.332008 0.509397
vt 0.781659 0.511046
vt 0.791193 0.337296
vt 0.223987 0.336088
vt 0.781840 0.165292
vt 0.322704 0.167355
vt 0.004677 0.344380
vt 0.186090 0.013634
vt 0.235053 0.094893
vt 0.101584 0.342734
vt 0.949666 0.004052
vt 0.876729 0.092185
vt 0.995209 0.339078
vt 0.912008 0.339764
vt 0.203608 0.676612
vt 0.251245 0.595014
vt 0.954517 0.676997
vt 0.879060 0.590215
vt 0.295328 0.575016
vt 0.827979 0.573557
vt 0.872507 0.337115
vt 0.151800 0.336574
vt 0.827811 0.102541
vt 0.285061 0.101874
vn -1.000000 -0.000000 0.000000
vn -1.000000 0.000001 0.000000
vn -1.000000 0.000001 0.000000
vn -1.000000 -0.000000 0.000000
vn -1.000000 0.000001 -0.000000
vn -1.000000 0.000001 -0.000000
vn -1.000000 -0.000000 -0.000000
vn -1.000000 -0.000000 -0.000000
vn -1.000000 -0.000001 0.000000
vn -1.000000 -0.000001 0.000000
vn -1.000000 -0.000001 -0.000000
vn -1.000000 -0.000001 -0.000000
vn -0.397113 0.452118 0.798681
vn -0.398980 0.451719 0.797975
vn -0.420844 0.446878 0.789424
vn -0.420844 0.446878 0.789424
vn -0.296270 0.955104 0.000000
vn -0.293643 0.955915 0.000000
vn -0.316887 0.948463 0.000000
vn -0.316887 0.948463 0.000000
vn -0.442769 -0.000005 -0.896636
vn -0.447368 0.000000 -0.894350
vn -0.469005 -0.000005 -0.883196
vn -0.469005 -0.000005 -0.883196
vn -0.390347 -0.477916 0.786909
vn -0.388139 -0.478400 0.787707
vn -0.411869 -0.473024 0.778854
vn -0.411869 -0.473024 0.778854
vn -0.442769 0.000006 -0.896636
vn -0.469005 0.000006 -0.883196
vn -0.469005 0.000006 -0.883196
vn -0.293643 -0.955915 0.000000
vn -0.296506 -0.955031 0.000000
vn -0.316887 -0.948463 0.000000
vn -0.316887 -0.948463 0.000000
vn -1.000000 0.000000 -0.000000
vn -1.000000 0.000000 -0.000000
vn -1.000000 0.000000 -0.000000
vn -1.000000 0.000000 -0.000000
vn -1.000000 0.000000 0.000000
vn -1.000000 0.000000 0.000000
vn -1.000000 -0.000000 0.000000
vn -1.000000 -0.000000 -0.000000
vn -1.000000 -0.000000 -0.000000
vn -1.000000 -0.000000 -0.000000
vn -1.000000 -0.000000 0.000000
vn -1.000000 -0.000000 0.000000
vn -1.000000 0.000000 -0.000000
vn -1.000000 0.000001 -0.000000
vn -1.000000 0.000001 -0.000000
vn -1.000000 0.000000 -0.000000
vn -1.000000 0.000000 -0.000000
vn -1.000000 0.000000 0.000000
vn -1.000000 0.000000 0.000000
vn -1.000000 0.000000 -0.000000
vn -1.000000 0.000000 -0.000000
vn -1.000000 0.000000 -0.000000
vn -1.000000 0.000000 -0.000000
vn -1.000000 0.000000 -0.000000
vn -1.000000 -0.000000 -0.000000
vn -1.000000 -0.000001 0.000000
vn -1.000000 -0.000001 0.000000
vn -1.000000 -0.000000 0.000000
vn -1.000000 -0.000000 -0.000000
vn -1.000000 -0.000000 -0.000000
vn -1.000000 -0.000000 -0.000000
vn -1.000000 -0.000000 0.000000
vn -1.000000 -0.000000 0.000000
vn -1.000000 -0.000000 0.000000
vn -1.000000 -0.000000 0.000000
vn -1.000000 -0.000000 0.000000
vn 0.000000 -0.000002 -1.000000
vn 0.000000 -0.000002 -1.000000
vn 0.000000 -0.000002 -1.000000
vn 0.000000 -0.000002 -1.000000
vn -0.000002 -1.000000 -0.000000
vn -0.000002 -1.000000 -0.000000
vn -0.000002 -1.000000 -0.000000
vn -0.000002 -1.000000 -0.000000
vn -0.000001 0.000001 1.000000
vn -0.000001 0.000001 1.000000
vn -0.000001 0.000001 1.000000
vn -0.000001 0.000001 1.000000
vn 0.000000 0.999977 -0.006742
vn 0.000000 0.999977 -0.006742
vn 0.000000 0.999977 -0.006742
vn 0.000000 0.999977 -0.006742
vn 0.000000 0.000002 -1.000000
vn 0.000000 0.000002 -1.000000
vn 0.000000 0.000002 -1.000000
vn 0.000000 0.000002 -1.000000
vn 0.000000 -0.999977 0.006742
vn 0.000000 -0.999977 0.006742
vn 0.000000 -0.999977 0.006742
vn 0.000000 -0.999977 0.006742
vn 0.000000 -0.000001 1.000000
vn 0.000000 -0.000001 1.000000
vn 0.000000 -0.000001 1.000000
vn 0.000000 -0.000001 1.000000
vn 0.000000 1.000000 0.000000
vn 0.000000 1.000000 0.000000
vn 0.000000 1.000000 0.000000
vn 0.000000 1.000000 0.000000
vn -1.000000 0.000001 -0.000000
vn -1.000000 0.000001 -0.000000
vn -1.000000 0.000001 -0.000000
vn -1.000000 0.000001 -0.000000
vn -1.000000 0.000001 -0.000000
vn -1.000000 0.000001 -0.000000
vn -1.000000 0.000001 -0.000000
vn -1.000000 0.000001 -0.000000
vn -1.000000 -0.000001 -0.000000
vn -1.000000 -0.000001 -0.000000
vn -1.000000 -0.000001 -0.000000
vn -1.000000 -0.000001 -0.000000
vn -1.000000 -0.000001 -0.000000
vn -1.000000 -0.000001 -0.000000
vn -1.000000 -0.000001 -0.000000
vn -1.000000 -0.000001 -0.000000
vn -0.000001 -0.707106 -0.707107
vn -0.000001 -0.707106 -0.707107
vn -0.000001 -0.707106 -0.707107
vn -0.000001 -0.707106 -0.707107
vn 0.000000 0.704718 -0.709487
vn 0.000000 0.704718 -0.709487
vn 0.000000 0.704718 -0.709487
vn 0.000000 0.704718 -0.709487
vn -0.000001 -0.707106 0.707108
vn -0.000001 -0.707106 0.707108
vn -0.000001 -0.707106 0.707108
vn -0.000001 -0.707106 0.707108
vn 0.000000 0.709487 0.704718
vn 0.000000 0.709487 0.704718
vn 0.000000 0.709487 0.704718
vn 0.000000 0.709487 0.704718
vn 0.000000 -0.709487 -0.704718
vn 0.000000 -0.709487 -0.704718
vn 0.000000 -0.709487 -0.704718
vn 0.000000 -0.709487 -0.704718
vn 0.000000 0.707106 -0.707107
vn 0.000000 0.707106 -0.707107
vn 0.000000 0.707106 -0.707107
vn 0.000000 0.707106 -0.707107
vn 0.000000 -0.704719 0.709486
vn 0.000000 -0.704719 0.709486
vn 0.000000 -0.704719 0.709486
vn 0.000000 -0.704719 0.709486
vn 0.000000 0.707106 0.707107
vn 0.000000 0.707106 0.707107
vn 0.000000 0.707106 0.707107
vn 0.000000 0.707106 0.707107
vn 0.000000 -0.492627 -0.870241
vn 0.000000 -0.492627 -0.870241
vn 0.000000 -0.492627 -0.870241
vn 0.000000 -0.492627 -0.870241
vn 0.000000 0.492626 0.870241
vn 0.000000 0.492626 0.870241
vn 0.000000 -1.000000 -0.000000
vn 0.000000 -1.000000 -0.000000
vn 0.000000 -1.000000 -0.000000
vn 0.000000 -1.000000 -0.000000
vn 0.000000 1.000000 0.000000
vn 0.000000 1.000000 0.000000
vn 0.000000 0.000006 1.000000
vn -0.000000 -0.000000 1.000000
vn -0.000000 -0.000000 1.000000
vn 0.000000 0.000006 1.000000
vn -0.000000 -0.000006 -1.000000
vn -0.000000 0.000000 -1.000000
vn 0.000000 0.519097 -0.854716
vn 0.000000 0.519097 -0.854716
vn 0.000000 0.519097 -0.854716
vn 0.000000 0.519097 -0.854716
vn 0.000000 -0.519097 0.854716
vn 0.000000 -0.519096 0.854716
vn -0.000000 -0.000007 1.000000
vn -0.000000 -0.000007 1.000000
vn 0.000000 0.000007 -1.000000
vn 0.000000 1.000000 0.000000
vn 0.000000 1.000000 0.000000
vn 0.000000 1.000000 0.000000
vn 0.000000 1.000000 0.000000
vn 0.000000 -1.000000 0.000000
vn 0.000000 -1.000000 0.000000
s 1
g polySurface2 pPlane6
usemtl initialShadingGroup
f 66/87/1 65/88/2 67/89/3 68/90/4
f 65/88/2 69/91/5 70/92/6 67/89/3
f 69/91/5 71/93/7 72/94/8 70/92/6
f 73/95/9 66/87/1 68/90/4 74/96/10
f 71/93/7 75/97/11 76/98/12 72/94/8
f 75/97/11 73/95/9 74/96/10 76/98/12
s 2
f 8/102/13 7/104/14 13/86/15 14/84/16
s 3
f 7/104/17 9/103/18 15/85/19 13/86/20
s 4
f 9/103/21 10/101/22 16/83/23 15/85/24
s 5
f 11/99/25 8/102/26 14/84/27 17/81/28
s 4
f 10/101/22 12/100/29 18/82/30 16/83/31
s 7
f 12/100/32 11/99/33 17/81/34 18/82/35
s 8
f 14/14/36 13/13/37 19/19/38 20/20/39
f 13/13/37 15/15/40 21/21/41 19/19/38
f 15/15/40 16/16/42 22/22/43 21/21/41
f 17/17/44 14/14/36 20/20/39 23/23/45
f 16/16/42 18/18/46 24/24/47 22/22/43
f 18/18/46 17/17/44 23/23/45 24/24/47
f 20/20/39 19/19/38 26/25/48 25/26/49 32/78/50 31/28/51
f 19/19/38 21/21/41 36/29/52 35/30/53 27/80/54 26/25/48
f 21/21/41 22/22/43 41/32/55 40/33/56 37/76/57 36/29/52
f 22/22/43 20/20/39 31/28/51 30/35/58 42/74/59 41/32/55
f 23/23/45 20/20/39 46/37/60 45/38/61 52/70/62 51/40/63
f 20/20/39 22/22/43 56/41/64 55/42/65 47/72/66 46/37/60
f 22/22/43 24/24/47 61/44/67 60/45/68 57/68/69 56/41/64
f 24/24/47 23/23/45 51/40/63 50/47/70 62/66/71 61/44/67
s off
f 34/49/72 32/27/73 25/79/74 29/50/75
f 28/51/76 27/31/77 35/75/78 39/52/79
f 38/53/80 37/34/81 40/73/82 44/54/83
f 43/55/84 42/36/85 30/77/86 33/56/87
f 54/57/88 52/39/89 45/71/90 49/58/91
f 48/59/92 47/43/93 55/67/94 59/60/95
f 58/61/96 57/46/97 60/65/98 64/62/99
f 63/63/100 62/48/101 50/69/102 53/64/103
f 33/56/104 34/49/105 29/50/106 28/51/107 39/52/108 38/53/109 44/54/110 43/55/111
f 53/64/112 54/57/113 49/58/114 48/59/115 59/60/116 58/61/117 64/62/118 63/63/119
f 25/79/120 27/31/121 28/51/122 29/50/123
f 30/77/124 32/27/125 34/49/126 33/56/127
f 35/75/128 37/34/129 38/53/130 39/52/131
f 40/73/132 42/36/133 43/55/134 44/54/135
f 45/71/136 47/43/137 48/59/138 49/58/139
f 50/69/140 52/39/141 54/57/142 53/64/143
f 55/67/144 57/46/145 58/61/146 59/60/147
f 60/65/148 62/48/149 63/63/150 64/62/151
s 8
f 25/26/49 26/25/48 27/80/54
f 30/35/58 31/28/51 32/78/50
f 35/30/53 36/29/52 37/76/57
f 40/33/56 41/32/55 42/74/59
f 45/38/61 46/37/60 47/72/66
f 50/47/70 51/40/63 52/70/62
f 55/42/65 56/41/64 57/68/69
f 60/45/68 61/44/67 62/66/71
s off
f 2/1/152 1/2/153 65/88/154 66/87/155
s 2
f 7/3/14 8/4/13 68/90/156 67/89/157
s off
f 1/2/158 4/5/159 69/91/160 65/88/161
s 3
f 9/6/18 7/3/17 67/89/162 70/92/163
s 9
f 4/5/164 5/7/165 71/93/166 69/91/167
s 4
f 10/8/22 9/6/21 70/92/168 72/94/169
s off
f 3/9/170 2/1/171 66/87/172 73/95/173
s 5
f 8/4/26 11/10/25 74/96/174 68/90/175
s 9
f 5/7/165 6/11/176 75/97/177 71/93/166
s 4
f 12/12/29 10/8/22 72/94/169 76/98/178
s off
f 6/11/179 3/9/180 73/95/181 75/97/182
s 7
f 11/10/33 12/12/32 76/98/183 74/96/184
