# This file uses centimeters as units for non-parametric coordinates.

mtllib ConfRoomBlocker.mtl
g default
v -7.555056 3.180938 -0.786283
v 5.825377 3.180938 -0.786283
v -7.555056 7.268474 -0.786283
v 5.825377 7.268474 -0.786283
v -7.555056 7.268474 -11.162165
v 5.825377 7.268474 -11.162165
v -7.555056 3.180938 -11.162165
v 5.825377 3.180938 -11.162165
v 5.825377 6.191415 -0.786283
v -7.555056 6.191415 -0.786283
v -7.555056 6.338121 -11.162165
v 5.825377 6.338121 -11.162165
v 5.825377 6.191415 -0.160378
v -7.555056 6.191415 -0.160378
v 5.825377 7.268474 -0.160378
v -7.555056 7.268474 -0.160378
v 2.042084 3.180938 -0.786283
v 2.042084 3.180938 -11.162165
v 2.042084 6.338121 -11.162165
v 2.042084 7.268474 -11.162165
v 2.042084 7.268474 -0.786283
v 2.042084 7.268474 -0.160378
v 2.042084 6.191415 -0.160378
v 2.042084 6.191415 -0.786283
v -5.468963 6.191415 -0.786283
v -5.468963 6.191415 -0.160378
v -5.468963 7.268474 -0.160378
v -5.468963 7.268474 -0.786283
v -5.468963 7.268474 -11.162165
v -5.468963 6.338121 -11.162165
v -5.468963 3.180938 -11.162165
v -5.468963 3.180938 -0.786283
v 5.825377 3.180938 -4.284238
v 2.042084 3.180938 -4.284238
v -5.468963 3.180938 -4.284237
v -7.555057 3.180938 -4.284238
v -7.555057 6.241302 -4.284238
v -7.555057 7.268474 -4.284238
v -5.468963 7.268474 -4.284237
v 2.042084 7.268474 -4.284238
v 5.825377 7.268474 -4.284238
v 5.825377 4.319654 -11.162165
v 2.042084 4.319654 -11.162165
v -5.468963 4.319654 -11.162165
v -7.555056 4.319654 -11.162165
v -7.555058 4.284733 -4.284238
v -7.555056 4.266740 -0.786283
v -5.468963 4.266740 -0.786283
v 5.825377 4.332798 -0.786283
v 2.042083 4.332798 -0.786283
v 7.480373 3.098686 -11.162165
v 7.480373 3.180938 -4.284238
v 7.480373 3.180938 -0.786283
v 7.480373 3.292284 -11.162165
v 7.480373 3.305428 -0.786283
v 5.825377 7.190388 -0.786283
v 5.825377 7.190388 -4.284238
v 5.825377 7.190388 -11.162165
vt 0.375000 0.500000
vt 0.375000 0.250000
vt 0.625000 0.250000
vt 0.375000 0.500000
vt 0.625000 0.500000
vt 0.375000 0.750000
vt 0.625000 0.750000
vt 0.625000 1.000000
vt 0.125000 0.000000
vt 0.125000 0.250000
vt 0.625000 0.191411
vt 0.375000 0.191411
vt 0.125000 0.191411
vt 0.375000 0.558589
vt 0.625000 0.558589
vt 0.375000 0.191411
vt 0.625000 0.191411
vt 0.625000 0.250000
vt 0.375000 0.250000
vt 0.568577 1.000000
vt 0.568577 0.750000
vt 0.568577 0.558589
vt 0.568577 0.500000
vt 0.568577 0.250000
vt 0.568577 0.250000
vt 0.568577 0.191411
vt 0.568577 0.191411
vt 0.397601 0.191411
vt 0.397601 0.191411
vt 0.397601 0.250000
vt 0.397601 0.250000
vt 0.397601 0.500000
vt 0.397601 0.558589
vt 0.397601 0.750000
vt 0.397601 1.000000
vt 0.625000 0.914988
vt 0.568577 0.914988
vt 0.397601 0.914988
vt 0.332494 0.457494
vt 0.289988 0.191411
vt 0.289988 0.250000
vt 0.375000 0.335012
vt 0.397601 0.335012
vt 0.568577 0.335012
vt 0.625000 0.335012
vt 0.625000 0.680963
vt 0.568577 0.680963
vt 0.397601 0.680963
vt 0.125000 0.069037
vt 0.375000 0.680963
vt 0.317163 0.361525
vt 0.375000 0.388700
vt 0.397601 0.708363
vt 0.625000 0.690620
vt 0.568577 0.690620
vt 0.000000 0.000000
vt 1.000000 0.000000
vt 1.000000 1.000000
vt 0.000000 1.000000
vt 0.000000 0.000000
vt 1.000000 0.000000
vt 1.000000 1.000000
vt 0.000000 1.000000
vt 0.000000 0.000000
vt 1.000000 0.000000
vt 1.000000 1.000000
vt 0.000000 1.000000
vt 0.000000 0.000000
vt 1.000000 0.000000
vt 1.000000 1.000000
vt 0.000000 1.000000
vt 0.000000 0.000000
vt 1.000000 0.000000
vt 1.000000 1.000000
vt 0.000000 1.000000
vt 0.000000 0.000000
vt 1.000000 0.000000
vt 1.000000 1.000000
vt 0.000000 1.000000
vn 0.000000 1.000000 0.000000
vn 0.000000 1.000000 0.000000
vn 0.000000 1.000000 0.000000
vn 0.000000 1.000000 0.000000
vn 0.000000 0.000000 -1.000000
vn 0.000000 0.000000 -1.000000
vn 0.000000 0.000000 -1.000000
vn 0.000000 0.000000 -1.000000
vn 0.000000 -1.000000 0.000000
vn 0.000000 -1.000000 0.000000
vn 0.000000 -1.000000 0.000000
vn 0.000000 -1.000000 0.000000
vn -1.000000 0.000000 -0.000000
vn -1.000000 -0.000000 -0.000000
vn -1.000000 0.000000 0.000000
vn -1.000000 0.000000 -0.000000
vn 0.000000 0.000000 1.000000
vn 0.000000 0.000000 1.000000
vn 0.000000 0.000000 1.000000
vn 0.000000 0.000000 1.000000
vn -1.000000 0.000000 0.000000
vn -1.000000 0.000000 -0.000000
vn 0.000000 0.000000 -1.000000
vn 0.000000 0.000000 -1.000000
vn 0.000000 -1.000000 0.000000
vn 0.000000 -1.000000 0.000000
vn 0.000000 -1.000000 0.000000
vn 0.000000 -1.000000 0.000000
vn 1.000000 0.000000 0.000000
vn 1.000000 0.000000 0.000000
vn 1.000000 0.000000 0.000000
vn 1.000000 0.000000 0.000000
vn 0.000000 1.000000 0.000000
vn 0.000000 1.000000 0.000000
vn 0.000000 1.000000 0.000000
vn 0.000000 1.000000 0.000000
vn -1.000000 0.000000 0.000000
vn -1.000000 0.000000 0.000000
vn -1.000000 0.000000 0.000000
vn -1.000000 0.000000 0.000000
vn 0.000000 -1.000000 0.000000
vn 0.000000 -1.000000 0.000000
vn 0.000000 -1.000000 0.000000
vn 0.000000 -1.000000 0.000000
vn 0.000000 0.000000 -1.000000
vn 0.000000 0.000000 -1.000000
vn 0.000000 0.000000 -1.000000
vn 0.000000 0.000000 -1.000000
vn 0.000000 0.000000 -1.000000
vn 0.000000 0.000000 -1.000000
vn 0.000000 1.000000 -0.000000
vn 0.000000 1.000000 0.000000
vn 0.000000 1.000000 -0.000000
vn 0.000000 1.000000 -0.000000
vn 0.000000 1.000000 0.000000
vn 0.000000 1.000000 0.000000
vn 0.000000 1.000000 0.000000
vn 0.000000 1.000000 0.000000
vn 0.000000 0.000000 1.000000
vn 0.000000 0.000000 1.000000
vn 0.000000 0.000000 1.000000
vn 0.000000 0.000000 1.000000
vn 0.000000 -1.000000 0.000000
vn 0.000000 -1.000000 0.000000
vn 0.000000 -1.000000 0.000000
vn 0.000000 -1.000000 0.000000
vn 0.000000 0.000000 1.000000
vn 0.000000 0.000000 1.000000
vn 0.000000 0.000000 1.000000
vn 0.000000 0.000000 1.000000
vn -0.000000 0.000000 1.000000
vn -0.000000 0.000000 1.000000
vn -0.000000 0.000000 1.000000
vn -0.000000 0.000000 1.000000
vn -1.000000 0.000000 0.000000
vn -1.000000 0.000000 0.000000
vn -1.000000 0.000000 0.000000
vn 0.000000 1.000000 0.000000
vn 0.000000 1.000000 0.000000
vn 0.000000 1.000000 0.000000
vn 0.000000 1.000000 0.000000
vn 0.000000 -1.000000 0.000000
vn 0.000000 -1.000000 0.000000
vn 0.000000 -1.000000 0.000000
vn 0.000000 -1.000000 0.000000
vn 0.000000 -1.000000 -0.000000
vn 0.000000 -1.000000 -0.000000
vn 0.000000 -1.000000 -0.000000
vn 0.000000 -1.000000 -0.000000
vn 0.000000 -1.000000 0.000000
vn 0.000000 -1.000000 0.000000
vn 0.000000 -1.000000 0.000000
vn 0.000000 -1.000000 0.000000
vn 0.000000 0.000000 -1.000000
vn 0.000000 0.000000 -1.000000
vn 0.000000 0.000000 -1.000000
vn 0.000000 0.000000 -1.000000
vn -1.000000 -0.000000 -0.000000
vn -1.000000 -0.000000 -0.000000
vn -1.000000 0.000000 0.000000
vn -0.000000 0.000000 1.000000
vn -0.000000 0.000000 1.000000
vn 0.000000 0.000000 1.000000
vn 0.000000 0.000000 1.000000
vn -0.024841 -0.999674 0.005977
vn -0.024841 -0.999674 0.005977
vn -0.024841 -0.999674 0.005977
vn -0.024841 -0.999674 0.005977
vn 0.000000 -1.000000 0.000000
vn 0.000000 -1.000000 0.000000
vn 0.000000 -1.000000 0.000000
vn 0.000000 -1.000000 0.000000
vn -0.000000 0.000000 -1.000000
vn -0.000000 0.000000 -1.000000
vn -0.000000 0.000000 -1.000000
vn -0.000000 0.000000 -1.000000
vn 0.000000 0.000000 1.000000
vn 0.000000 0.000000 1.000000
vn 0.000000 0.000000 1.000000
vn 0.000000 0.000000 1.000000
vn 1.000000 0.000000 0.000000
vn 1.000000 0.000000 0.000000
vn 1.000000 0.000000 0.000000
vn 1.000000 0.000000 0.000000
vn 1.000000 0.000000 0.000000
vn 1.000000 0.000000 0.000000
vn 1.000000 0.000000 0.000000
vn 1.000000 0.000000 0.000000
s 1
g pCube24
usemtl blinn1SG
f 40/44/1 41/45/2 6/5/3 20/23/4
s 2
f 19/22/5 12/15/6 42/46/7 43/47/8
s 3
f 18/21/9 8/7/10 33/36/11 34/37/12
s 4
f 45/49/13 46/51/14 37/40/15 11/13/16
s 5
f 23/26/17 13/17/18 15/18/19 22/25/20
s 4
f 11/13/16 37/40/15 38/41/21 5/10/22
s 2
f 20/23/23 6/5/24 12/15/6 19/22/5
s 6
f 24/27/25 9/11/26 13/17/27 23/26/28
s off
f 9/11/29 4/3/30 15/18/31 13/17/32
s 7
f 4/3/33 21/24/34 22/25/35 15/18/36
s off
f 3/2/37 10/12/38 14/16/39 16/19/40
s 3
f 7/6/41 31/34/42 35/38/43 36/39/44
s 2
f 11/14/45 30/33/46 44/48/47 45/50/48
f 5/4/49 29/32/50 30/33/46 11/14/45
s 1
f 38/42/51 39/43/52 29/32/53 5/4/54
s 7
f 27/30/55 28/31/56 3/2/57 16/19/58
s 5
f 14/16/59 26/29/60 27/30/61 16/19/62
s 6
f 10/12/63 25/28/64 26/29/65 14/16/66
s 10
f 49/54/67 50/55/68 17/20/69 2/8/70
s 6
f 25/28/64 24/27/25 23/26/28 26/29/65
s 5
f 27/30/61 26/29/60 23/26/17 22/25/20
s 7
f 22/25/35 21/24/34 28/31/56 27/30/55
s 1
f 29/32/53 39/43/52 40/44/1 20/23/4
s 2
f 30/33/46 29/32/50 20/23/23 19/22/5
f 44/48/47 30/33/46 19/22/5 43/47/8
s 3
f 35/38/43 31/34/42 18/21/9 34/37/12
s 11
f 47/52/71 48/53/72 25/28/73 10/12/74
s 4
f 37/40/15 46/51/14 47/52/75 10/12/76
f 38/41/21 37/40/15 10/12/76 3/2/77
s 1
f 3/2/78 28/31/79 39/43/52 38/42/51
f 40/44/1 39/43/52 28/31/79 21/24/80
f 21/24/80 4/3/81 41/45/2 40/44/1
s off
f 2/8/82 17/20/83 34/37/84 33/36/85
f 32/35/86 1/1/87 36/39/88 35/38/89
f 34/37/90 17/20/91 32/35/92 35/38/93
s 2
f 43/47/8 42/46/7 8/7/94 18/21/95
f 31/34/96 44/48/47 43/47/8 18/21/95
f 45/50/48 44/48/47 31/34/96 7/6/97
s 4
f 7/9/98 36/39/99 46/51/14 45/49/13
f 47/52/75 46/51/14 36/39/99 1/1/100
s 11
f 1/1/101 32/35/102 48/53/72 47/52/71
s 10
f 9/11/103 24/27/104 50/55/68 49/54/67
s off
f 33/56/105 8/57/106 51/58/107 52/59/108
f 2/60/109 33/61/110 52/62/111 53/63/112
f 8/64/113 42/65/114 54/66/115 51/67/116
f 49/68/117 2/69/118 53/70/119 55/71/120
f 41/72/121 4/73/122 56/74/123 57/75/124
f 6/76/125 41/77/126 57/78/127 58/79/128
