# This file uses centimeters as units for non-parametric coordinates.

mtllib PhoneTable_LP.mtl
g default
v 0.676722 0.166925 -0.001116
v 0.676722 0.337999 -0.001116
v 0.001369 0.337711 -0.001493
v 0.565983 0.337229 0.282531
v 0.001095 0.337147 0.309762
v 0.951386 0.339691 0.975750
v 0.001254 0.334151 1.866645
v 0.951386 0.168165 0.975750
v 0.001254 0.164105 1.858938
v 0.565983 0.166361 0.282531
v 0.565983 0.337229 -0.277026
v 0.001095 0.337147 -0.304256
v 0.951386 0.339691 -0.970244
v 0.001254 0.334151 -1.861139
v 0.951386 0.168165 -0.970244
v -0.000166 0.164105 -1.853433
v 0.565983 0.166361 -0.277026
v -0.675634 0.166925 -0.001116
v -0.675634 0.337999 -0.001116
v -0.564895 0.337229 0.282531
v -0.950297 0.339691 0.975750
v -0.950297 0.168165 0.975750
v -0.564895 0.166361 0.282531
v -0.564895 0.337229 -0.277026
v -0.950297 0.339691 -0.970244
v -0.950297 0.168165 -0.970244
v -0.564895 0.166361 -0.277026
v 1.363417 0.182864 1.216281
v 1.363417 0.011793 1.216281
v 0.001562 0.179020 2.317798
v 0.001562 0.007949 2.331693
v 0.811007 0.010085 0.351694
v 0.811007 0.181156 0.351694
v 0.969732 0.010619 -0.002073
v 0.969732 0.181690 -0.002073
v 1.363417 0.182864 -1.210775
v 1.363417 0.011793 -1.210775
v -0.000474 0.007949 -2.326187
v -0.000474 0.179020 -2.312292
v 0.811007 0.181156 -0.346188
v 0.811007 0.010085 -0.346188
v -1.362329 0.182864 1.216281
v -1.362329 0.011793 1.216281
v -0.809919 0.181156 0.351694
v -0.809919 0.010085 0.351694
v -0.968644 0.181690 -0.002073
v -0.968644 0.010619 -0.002073
v -1.362329 0.182864 -1.210775
v -1.362329 0.011793 -1.210775
v -0.809919 0.010085 -0.346188
v -0.809919 0.181156 -0.346188
vt 0.907558 0.551206
vt 0.884855 0.491287
vt 0.765448 0.549860
vt 0.766047 0.484365
vt 0.967417 0.346232
vt 0.769367 0.156762
vt 0.389016 0.981728
vt 0.389016 0.964430
vt 0.257618 0.981728
vt 0.257618 0.964430
vt 0.604730 0.011431
vt 0.604730 0.024666
vt 0.740833 0.011431
vt 0.740833 0.024666
vt 0.525240 0.024666
vt 0.525240 0.011431
vt 0.495198 0.024666
vt 0.495198 0.011431
vt 0.469171 0.964430
vt 0.469171 0.981728
vt 0.499943 0.964430
vt 0.499943 0.981728
vt 0.883675 0.609028
vt 0.764752 0.613567
vt 0.963311 0.755709
vt 0.761502 0.941170
vt 0.610143 0.981728
vt 0.610143 0.964430
vt 0.741599 0.964430
vt 0.741599 0.981728
vt 0.386345 0.011431
vt 0.386345 0.024666
vt 0.250122 0.024666
vt 0.250122 0.011431
vt 0.465838 0.011431
vt 0.465838 0.024666
vt 0.529988 0.981728
vt 0.529988 0.964430
vt 0.622994 0.548352
vt 0.646895 0.488899
vt 0.567259 0.342221
vt 0.126274 0.981728
vt 0.126274 0.964430
vt 0.876245 0.011431
vt 0.876245 0.024666
vt 0.955295 0.011431
vt 0.955295 0.024666
vt 0.985159 0.011431
vt 0.985159 0.024666
vt 0.046249 0.981728
vt 0.046249 0.964430
vt 0.015518 0.981728
vt 0.015518 0.964430
vt 0.645713 0.606643
vt 0.563155 0.751697
vt 0.872896 0.981728
vt 0.872896 0.964430
vt 0.114488 0.011431
vt 0.114488 0.024666
vt 0.035242 0.024666
vt 0.035242 0.011431
vt 0.005980 0.024666
vt 0.005980 0.011431
vt 0.952934 0.964430
vt 0.952934 0.981728
vt 0.982943 0.964430
vt 0.982943 0.981728
vt 0.484448 0.297384
vt 0.562999 0.251474
vt 0.303268 0.129125
vt 0.303340 0.041617
vt 0.411138 0.429600
vt 0.457926 0.416410
vt 0.432223 0.483674
vt 0.488146 0.483857
vt 0.484438 0.668490
vt 0.562988 0.714406
vt 0.302978 0.836738
vt 0.302925 0.924247
vt 0.411136 0.536271
vt 0.457921 0.549461
vt 0.121774 0.297339
vt 0.043237 0.251410
vt 0.195052 0.429571
vt 0.148269 0.416370
vt 0.173953 0.483667
vt 0.118031 0.483847
vt 0.121763 0.668517
vt 0.043224 0.714440
vt 0.195049 0.536287
vt 0.148264 0.549483
vn -0.003734 0.999992 0.001178
vn -0.000428 0.999997 0.002271
vn 0.000088 0.999998 0.001927
vn 0.000929 0.999998 0.002007
vn -0.004262 0.999990 0.001003
vn -0.003734 0.999992 0.001178
vn 0.000929 0.999998 0.002007
vn 0.001086 0.999997 0.002021
vn 0.686223 0.046304 0.725916
vn 0.686223 0.046304 0.725916
vn 0.660891 0.030114 0.749877
vn 0.660891 0.030114 0.749877
vn 0.586151 0.032878 0.809534
vn 0.641054 0.000000 0.767496
vn 0.641054 0.000000 0.767496
vn 0.586151 0.032878 0.809534
vn 0.842681 0.000000 -0.538414
vn 0.951568 0.000000 -0.307440
vn 0.951545 0.000000 -0.307510
vn 0.842681 0.000000 -0.538414
vn 0.951568 0.000000 -0.307440
vn 0.912375 0.000000 0.409356
vn 0.912375 0.000000 0.409356
vn 0.951545 0.000000 -0.307510
vn 0.874007 0.000000 -0.485913
vn 0.962620 0.000000 -0.270855
vn 0.962589 0.000000 -0.270966
vn 0.874007 0.000000 -0.485913
vn 0.962620 0.000000 -0.270855
vn 0.931526 0.000000 0.363675
vn 0.931526 0.000000 0.363675
vn 0.962589 0.000000 -0.270966
vn 0.000164 0.999998 -0.001934
vn -0.000471 0.999997 -0.002260
vn -0.003735 0.999992 -0.001178
vn 0.000941 0.999998 -0.002008
vn 0.000941 0.999998 -0.002008
vn -0.003735 0.999992 -0.001178
vn -0.004262 0.999990 -0.001003
vn 0.001086 0.999997 -0.002022
vn 0.659468 0.027364 -0.751234
vn 0.686223 0.046304 -0.725916
vn 0.686223 0.046304 -0.725916
vn 0.659468 0.027364 -0.751234
vn 0.641054 0.000000 -0.767496
vn 0.641054 0.000000 -0.767496
vn 0.583162 0.032966 -0.811687
vn 0.583162 0.032966 -0.811686
vn 0.842681 0.000000 0.538414
vn 0.842681 0.000000 0.538414
vn 0.950826 0.000000 0.309727
vn 0.950846 0.000000 0.309664
vn 0.950846 0.000000 0.309664
vn 0.950826 0.000000 0.309727
vn 0.908057 0.000000 -0.418846
vn 0.908057 0.000000 -0.418846
vn 0.874007 0.000000 0.485913
vn 0.874007 0.000000 0.485913
vn 0.962025 0.000000 0.272960
vn 0.962053 0.000000 0.272861
vn 0.962053 0.000000 0.272861
vn 0.962025 0.000000 0.272960
vn 0.928041 0.000000 -0.372477
vn 0.928041 0.000000 -0.372477
vn 0.000428 0.999997 0.002271
vn 0.003734 0.999992 0.001178
vn -0.000922 0.999998 0.002007
vn -0.000088 0.999998 0.001927
vn -0.000922 0.999998 0.002007
vn 0.003734 0.999992 0.001178
vn 0.004262 0.999990 0.001003
vn -0.001079 0.999997 0.002022
vn -0.657946 0.030116 0.752463
vn -0.686223 0.046304 0.725916
vn -0.686223 0.046304 0.725916
vn -0.657946 0.030116 0.752463
vn -0.641054 0.000000 0.767496
vn -0.641054 0.000000 0.767496
vn -0.583163 0.032965 0.811686
vn -0.583163 0.032965 0.811686
vn -0.842681 0.000000 -0.538414
vn -0.842681 0.000000 -0.538414
vn -0.951545 0.000000 -0.307510
vn -0.951568 0.000000 -0.307440
vn -0.951568 0.000000 -0.307440
vn -0.951545 0.000000 -0.307510
vn -0.912375 0.000000 0.409356
vn -0.912375 0.000000 0.409356
vn -0.874007 0.000000 -0.485913
vn -0.874007 0.000000 -0.485913
vn -0.962589 0.000000 -0.270966
vn -0.962620 0.000000 -0.270855
vn -0.962620 0.000000 -0.270855
vn -0.962589 0.000000 -0.270966
vn -0.931526 0.000000 0.363675
vn -0.931526 0.000000 0.363675
vn 0.003735 0.999992 -0.001178
vn 0.000471 0.999997 -0.002260
vn -0.000163 0.999998 -0.001934
vn -0.000934 0.999998 -0.002008
vn 0.004262 0.999990 -0.001003
vn 0.003735 0.999992 -0.001178
vn -0.000934 0.999998 -0.002008
vn -0.001079 0.999997 -0.002022
vn -0.686223 0.046304 -0.725916
vn -0.686223 0.046304 -0.725916
vn -0.659359 0.032865 -0.751110
vn -0.659359 0.032865 -0.751110
vn -0.586151 0.032878 -0.809535
vn -0.641054 0.000000 -0.767496
vn -0.641054 0.000000 -0.767496
vn -0.586151 0.032878 -0.809535
vn -0.842681 0.000000 0.538414
vn -0.950846 0.000000 0.309664
vn -0.950826 0.000000 0.309727
vn -0.842681 0.000000 0.538414
vn -0.950846 0.000000 0.309664
vn -0.908057 0.000000 -0.418846
vn -0.908057 0.000000 -0.418846
vn -0.950826 0.000000 0.309727
vn -0.874007 0.000000 0.485913
vn -0.962053 0.000000 0.272861
vn -0.962025 0.000000 0.272960
vn -0.874007 0.000000 0.485913
vn -0.962053 0.000000 0.272861
vn -0.928041 0.000000 -0.372477
vn -0.928041 0.000000 -0.372477
vn -0.962025 0.000000 0.272960
vn 0.000028 0.999497 -0.031716
vn -0.030650 0.999372 -0.017797
vn -0.038050 0.999263 -0.005086
vn -0.000013 0.999497 -0.031715
vn -0.056860 0.998348 0.008222
vn -0.038050 0.999263 -0.005086
vn -0.030650 0.999372 -0.017797
vn -0.058779 0.998065 0.020261
vn -0.052213 0.998636 0.000016
vn -0.056860 0.998348 0.008222
vn -0.058779 0.998065 0.020261
vn -0.052213 0.998636 -0.000035
vn 0.000013 0.999497 0.031715
vn -0.038050 0.999263 0.005086
vn -0.030650 0.999372 0.017797
vn -0.000028 0.999497 0.031716
vn -0.038050 0.999263 0.005086
vn -0.056863 0.998347 -0.008408
vn -0.058775 0.998064 -0.020326
vn -0.030650 0.999372 0.017797
vn -0.056863 0.998347 -0.008408
vn -0.052213 0.998636 0.000016
vn -0.052213 0.998636 -0.000035
vn -0.058775 0.998064 -0.020326
vn -0.000013 0.999497 -0.031715
vn 0.038050 0.999263 -0.005086
vn 0.030650 0.999372 -0.017797
vn 0.000028 0.999497 -0.031716
vn 0.038050 0.999263 -0.005086
vn 0.056860 0.998348 0.008222
vn 0.058779 0.998065 0.020261
vn 0.030650 0.999372 -0.017797
vn 0.056860 0.998348 0.008222
vn 0.052213 0.998636 0.000016
vn 0.052213 0.998636 -0.000035
vn 0.058779 0.998065 0.020261
vn -0.000028 0.999497 0.031716
vn 0.030650 0.999372 0.017797
vn 0.038050 0.999263 0.005086
vn 0.000013 0.999497 0.031715
vn 0.056863 0.998347 -0.008408
vn 0.038050 0.999263 0.005086
vn 0.030650 0.999372 0.017797
vn 0.058775 0.998064 -0.020326
vn 0.052213 0.998636 0.000016
vn 0.056863 0.998347 -0.008408
vn 0.058775 0.998064 -0.020326
vn 0.052213 0.998636 -0.000035
s off
g table_stand
usemtl initialShadingGroup
f 4/2/1 2/1/2 3/3/3 5/4/4
f 6/5/5 4/2/6 5/4/7 7/6/8
f 8/8/9 6/7/10 7/9/11 9/10/12
f 31/14/13 29/12/14 28/11/15 30/13/16
f 29/12/17 32/15/18 33/16/19 28/11/20
f 32/15/21 34/17/22 35/18/23 33/16/24
f 8/8/25 10/19/26 4/20/27 6/7/28
f 10/19/29 1/21/30 2/22/31 4/20/32
f 3/3/33 2/1/34 11/23/35 12/24/36
f 12/24/37 11/23/38 13/25/39 14/26/40
f 14/30/41 13/27/42 15/28/43 16/29/44
f 36/31/45 37/32/46 38/33/47 39/34/48
f 37/32/49 36/31/50 40/35/51 41/36/52
f 41/36/53 40/35/54 35/18/55 34/17/56
f 15/28/57 13/27/58 11/37/59 17/38/60
f 17/38/61 11/37/62 2/22/63 1/21/64
f 19/39/65 20/40/66 5/4/67 3/3/68
f 5/4/69 20/40/70 21/41/71 7/6/72
f 7/9/73 21/42/74 22/43/75 9/10/76
f 42/44/77 43/45/78 31/14/79 30/13/80
f 43/45/81 42/44/82 44/46/83 45/47/84
f 45/47/85 44/46/86 46/48/87 47/49/88
f 22/43/89 21/42/90 20/50/91 23/51/92
f 23/51/93 20/50/94 19/52/95 18/53/96
f 24/54/97 19/39/98 3/3/99 12/24/100
f 25/55/101 24/54/102 12/24/103 14/26/104
f 26/57/105 25/56/106 14/30/107 16/29/108
f 38/33/109 49/59/110 48/58/111 39/34/112
f 49/59/113 50/60/114 51/61/115 48/58/116
f 50/60/117 47/62/118 46/63/119 51/61/120
f 26/57/121 27/64/122 24/65/123 25/56/124
f 27/64/125 18/66/126 19/67/127 24/65/128
f 30/71/129 28/69/130 8/68/131 9/70/132
f 10/72/133 8/68/134 28/69/135 33/73/136
f 1/74/137 10/72/138 33/73/139 35/75/140
f 16/78/141 15/76/142 36/77/143 39/79/144
f 15/76/145 17/80/146 40/81/147 36/77/148
f 17/80/149 1/74/150 35/75/151 40/81/152
f 9/70/153 22/82/154 42/83/155 30/71/156
f 22/82/157 23/84/158 44/85/159 42/83/160
f 23/84/161 18/86/162 46/87/163 44/85/164
f 39/79/165 48/89/166 26/88/167 16/78/168
f 27/90/169 26/88/170 48/89/171 51/91/172
f 18/86/173 27/90/174 51/91/175 46/87/176
