# This file uses centimeters as units for non-parametric coordinates.

mtllib BinLP.mtl
g default
v -1.283366 0.187574 0.709216
v 1.283366 0.187574 0.709216
v -1.577954 4.201790 0.929400
v 1.577954 4.201790 0.929400
v -1.151342 0.322132 0.666588
v 1.151342 0.322132 0.666588
v 1.158189 0.187574 0.591195
v -1.158189 0.187574 0.591195
v 1.107497 0.018986 0.578042
v -1.107497 0.018986 0.578042
v -1.679321 3.933865 1.027422
v 1.679321 3.933865 1.027422
v 0.717088 3.596351 0.995470
v 0.687585 3.571742 0.963035
v -0.695564 3.597776 0.996467
v -0.670288 3.571887 0.962835
v 0.716064 2.968424 0.943381
v 0.687617 3.001084 0.916649
v -0.697488 2.968248 0.944977
v -0.670943 3.001173 0.917338
v -0.724513 3.622842 0.822321
v -0.692105 3.591084 0.848080
v 0.716851 3.623534 0.823284
v 0.688635 3.590806 0.850405
v -0.723468 2.987062 0.794491
v -0.691223 3.013732 0.824323
v 0.717971 2.988447 0.795469
v 0.688581 3.013397 0.827147
v -1.679750 4.153424 1.030045
v 1.679750 4.153424 1.030045
v -1.283366 0.187574 -0.709216
v 1.283366 0.187574 -0.709216
v -1.577954 4.201790 -0.929400
v 1.577954 4.201790 -0.929400
v -1.151342 0.322132 -0.666588
v 1.151342 0.322132 -0.666588
v 1.158189 0.187574 -0.591195
v -1.158189 0.187574 -0.591195
v 1.107497 0.018986 -0.578042
v -1.107497 0.018986 -0.578042
v -1.679321 3.933865 -1.027422
v 1.679321 3.933865 -1.027422
v 0.717088 3.596351 -0.995470
v 0.687585 3.571742 -0.963035
v -0.695564 3.597776 -0.996467
v -0.670288 3.571887 -0.962835
v 0.716064 2.968424 -0.943381
v 0.687617 3.001084 -0.916649
v -0.697488 2.968248 -0.944977
v -0.670943 3.001173 -0.917338
v -0.724513 3.622842 -0.822321
v -0.692105 3.591084 -0.848080
v 0.716851 3.623534 -0.823284
v 0.688635 3.590806 -0.850405
v -0.723468 2.987062 -0.794491
v -0.691223 3.013732 -0.824323
v 0.717971 2.988447 -0.795469
v 0.688581 3.013397 -0.827147
v -1.679750 4.153424 -1.030045
v 1.679750 4.153424 -1.030045
v -1.719875 3.964526 1.043464
v -1.736585 3.992725 1.050799
v 1.736585 3.992725 1.050799
v 1.719875 3.964526 1.043464
v -1.736585 3.992725 -1.050799
v -1.719875 3.964526 -1.043464
v 1.736585 3.992725 -1.050799
v 1.719875 3.964526 -1.043464
vt 0.906503 0.676451
vt 0.533101 0.628159
vt 0.533101 0.498796
vt 0.905221 0.480019
vt 0.533101 0.141342
vt 0.878844 0.012914
vt 0.908533 0.177729
vt 0.533101 0.265365
vt 0.328352 0.278195
vt 0.051259 0.242166
vt 0.051259 0.124737
vt 0.328352 0.193926
vt 0.051259 0.445938
vt 0.446545 0.512340
vt 0.328352 0.512374
vt 0.051259 0.564733
vt 0.521684 0.615206
vt 0.505626 0.615206
vt 0.505626 0.508568
vt 0.521684 0.508568
vt 0.510012 0.158407
vt 0.533101 0.158407
vt 0.533101 0.265365
vt 0.510012 0.265365
vt 0.078545 0.963790
vt 0.030846 0.963790
vt 0.030846 0.954609
vt 0.078545 0.954609
vt 0.078545 0.967630
vt 0.027861 0.967630
vt 0.078545 0.951227
vt 0.028845 0.951227
vt 0.235585 0.963790
vt 0.192339 0.963790
vt 0.192339 0.954609
vt 0.235585 0.954609
vt 0.192339 0.967630
vt 0.235585 0.967630
vt 0.192339 0.951227
vt 0.235585 0.951227
vt 0.931179 0.016872
vt 0.931179 0.016872
vt 0.931179 0.160142
vt 0.928575 0.496679
vt 0.938367 0.669222
vt 0.938367 0.507728
vt 0.367782 0.918476
vt 0.367782 0.928369
vt 0.319467 0.928369
vt 0.319467 0.918476
vt 0.367782 0.931811
vt 0.319467 0.931811
vt 0.319467 0.914745
vt 0.369571 0.914745
vt 0.208594 0.918476
vt 0.208594 0.928369
vt 0.165402 0.928369
vt 0.165402 0.918476
vt 0.208594 0.931811
vt 0.165402 0.931811
vt 0.165402 0.914745
vt 0.208594 0.914745
vt 0.328352 0.716676
vt 0.399438 0.487090
vt 0.511453 0.831946
vt 0.506987 0.281037
vt 0.506987 0.487090
vt 0.533101 0.636472
vt 0.522367 0.281037
vt 0.352337 0.963790
vt 0.352337 0.954609
vt 0.352337 0.967630
vt 0.357227 0.951227
vt 0.050640 0.928369
vt 0.050640 0.918476
vt 0.044728 0.931811
vt 0.050640 0.914745
vt 0.533101 0.840556
vt 0.103929 0.392739
vt 0.144956 0.392739
vt 0.103929 0.299775
vt 0.144956 0.299775
vt 0.533101 0.854483
vt 0.787447 0.746471
vt 0.787447 0.871135
vt 0.843986 0.761793
vt 0.843986 0.886422
vt 0.910999 0.971965
vt 0.522367 0.487090
vt 0.150490 0.615769
vt 0.111479 0.615769
vt 0.150304 0.701965
vt 0.111264 0.701965
vt 0.051259 0.758540
vt 0.787447 0.291277
vt 0.787447 0.419751
vt 0.843986 0.285272
vt 0.843986 0.413658
vt 0.924732 0.184957
vt 0.934568 0.194367
vt 0.934568 0.467506
vt 0.924732 0.480019
vt 0.928036 0.975485
vt 0.928036 0.695076
vt 0.937415 0.706231
vt 0.937415 0.975485
vt 0.911995 0.016872
vt 0.914505 0.175152
vt 0.908439 0.184957
vt 0.914426 0.975485
vt 0.910999 0.975485
vt 0.913767 0.676451
vt 0.910920 0.676451
vt 0.910920 0.496679
vt 0.910957 0.480019
vt 0.908439 0.480019
vt 0.914505 0.016872
vt 0.914426 0.686885
vt 0.928575 0.676451
vt 0.913767 0.496679
vt 0.910999 0.686885
vt 0.399438 0.281037
vt 0.511453 0.636472
vt 0.878844 0.192551
vt 0.878844 0.497771
vt 0.906503 0.496679
vt 0.878844 0.981447
vt 0.908533 0.022264
vt 0.878844 0.685225
vt 0.910999 0.689847
vt 0.911995 0.175152
vt 0.905221 0.187534
vt 0.931179 0.175152
vt 0.910957 0.184957
vt 0.328352 0.427046
vt 0.446561 0.716738
vn 0.000000 1.000000 0.000000
vn 0.000000 1.000000 0.000000
vn 0.000000 1.000000 0.000000
vn 0.000000 1.000000 0.000000
vn 0.000000 -1.000000 0.000000
vn 0.000000 -1.000000 0.000000
vn 0.000000 -1.000000 0.000000
vn 0.000000 -1.000000 0.000000
vn 0.994461 -0.105107 0.000000
vn 0.994461 -0.105107 0.000000
vn 0.994461 -0.105107 0.000000
vn 0.994461 -0.105107 0.000000
vn -0.994461 -0.105107 0.000000
vn -0.994461 -0.105107 0.000000
vn -0.994461 -0.105107 0.000000
vn -0.994461 -0.105107 0.000000
vn -0.994009 0.109302 0.000000
vn -0.994009 0.109302 0.000000
vn -0.994009 0.109302 0.000000
vn -0.994009 0.109302 0.000000
vn 0.994009 0.109302 0.000000
vn 0.994009 0.109302 0.000000
vn 0.994009 0.109302 0.000000
vn 0.994009 0.109302 0.000000
vn 0.000000 -1.000000 0.000000
vn 0.000000 -1.000000 0.000000
vn 0.000000 -1.000000 0.000000
vn 0.000000 -1.000000 0.000000
vn 0.000000 -1.000000 0.000000
vn 0.000000 -1.000000 0.000000
vn 0.000000 -1.000000 0.000000
vn 0.000000 -1.000000 0.000000
vn 0.000000 -1.000000 0.000000
vn 0.000000 -1.000000 0.000000
vn 0.000000 -1.000000 0.000000
vn 0.000000 -1.000000 0.000000
vn 0.957645 -0.287951 0.000000
vn 0.957645 -0.287951 0.000000
vn 0.957645 -0.287951 0.000000
vn 0.957645 -0.287951 0.000000
vn 0.000000 -0.077782 0.996970
vn 0.000000 -0.077782 0.996970
vn 0.000000 -0.077782 0.996970
vn 0.000000 -0.077782 0.996970
vn -0.957645 -0.287951 0.000000
vn -0.957645 -0.287951 0.000000
vn -0.957645 -0.287951 0.000000
vn -0.957645 -0.287951 0.000000
vn -0.717115 -0.056480 0.694663
vn -0.717115 -0.056480 0.694663
vn -0.717115 -0.056480 0.694663
vn -0.717115 -0.056480 0.694663
vn -0.000276 -0.794480 0.607291
vn -0.000276 -0.794480 0.607291
vn -0.000276 -0.794480 0.607291
vn -0.000276 -0.794480 0.607291
vn 0.765452 -0.053463 0.641268
vn 0.765452 -0.053463 0.641268
vn 0.765452 -0.053463 0.641268
vn 0.765452 -0.053463 0.641268
vn 0.000615 0.638236 0.769840
vn 0.000615 0.638236 0.769840
vn 0.000615 0.638236 0.769840
vn 0.000615 0.638236 0.769840
vn 0.653103 0.033208 -0.756541
vn 0.653103 0.033208 -0.756541
vn 0.653103 0.033208 -0.756541
vn 0.653103 0.033208 -0.756541
vn 0.000994 -0.634036 -0.773303
vn 0.000994 -0.634036 -0.773303
vn 0.000994 -0.634036 -0.773303
vn 0.000994 -0.634036 -0.773303
vn -0.715929 0.028754 -0.697581
vn -0.715929 0.028754 -0.697581
vn -0.715929 0.028754 -0.697581
vn -0.715929 0.028754 -0.697581
vn 0.000582 0.765989 -0.642853
vn 0.000582 0.765989 -0.642853
vn 0.000582 0.765989 -0.642853
vn 0.000582 0.765989 -0.642853
vn -0.048862 0.101962 -0.993588
vn -0.039320 0.117502 -0.992294
vn -0.027839 0.051345 -0.998293
vn -0.004363 0.048644 -0.998807
vn 0.000445 -0.084190 0.996450
vn 0.000186 -0.084191 0.996450
vn -0.000704 -0.084167 0.996451
vn 0.000609 -0.084161 0.996452
vn 0.000879 -0.085048 0.996377
vn 0.000666 -0.087459 0.996168
vn -0.001560 -0.087493 0.996164
vn -0.002316 -0.085108 0.996369
vn 0.048190 0.101483 -0.993670
vn 0.038588 0.117550 -0.992317
vn 0.004780 0.048665 -0.998804
vn 0.027626 0.051442 -0.998294
vn 0.980372 0.012064 -0.196789
vn 0.980372 0.012064 -0.196789
vn 0.980372 0.012064 -0.196789
vn 0.980372 0.012064 -0.196789
vn 0.000048 0.990844 0.135012
vn 0.000048 0.990844 0.135012
vn 0.000048 0.990844 0.135012
vn 0.000048 0.990844 0.135012
vn -0.999951 0.000617 -0.009870
vn -0.999951 0.000617 -0.009870
vn -0.999951 0.000617 -0.009870
vn -0.999951 0.000617 -0.009870
vn 0.000001 -0.986138 -0.165928
vn 0.000001 -0.986138 -0.165928
vn 0.000001 -0.986138 -0.165928
vn 0.000001 -0.986138 -0.165928
vn 0.000000 0.901328 0.433138
vn 0.000000 0.901327 0.433138
vn 0.000000 0.901327 0.433138
vn 0.000000 0.901328 0.433138
vn -0.429145 0.903236 0.000000
vn -0.429145 0.903236 0.000000
vn -0.429145 0.903236 0.000000
vn -0.429145 0.903236 0.000000
vn 0.429145 0.903236 0.000000
vn 0.429145 0.903235 0.000000
vn 0.429145 0.903235 0.000000
vn 0.429145 0.903236 0.000000
vn 0.000000 -1.000000 0.000000
vn 0.000000 -1.000000 0.000000
vn 0.000000 -1.000000 0.000000
vn 0.000000 -1.000000 0.000000
vn 0.000000 -0.077782 -0.996970
vn 0.000000 -0.077782 -0.996970
vn 0.000000 -0.077782 -0.996970
vn 0.000000 -0.077782 -0.996970
vn -0.717115 -0.056480 -0.694663
vn -0.717115 -0.056480 -0.694663
vn -0.717115 -0.056480 -0.694663
vn -0.717115 -0.056480 -0.694663
vn -0.000276 -0.794482 -0.607288
vn -0.000276 -0.794481 -0.607288
vn -0.000276 -0.794481 -0.607288
vn -0.000276 -0.794482 -0.607288
vn 0.765451 -0.053463 -0.641269
vn 0.765451 -0.053463 -0.641269
vn 0.765451 -0.053463 -0.641269
vn 0.765451 -0.053463 -0.641269
vn 0.000615 0.638235 -0.769842
vn 0.000615 0.638235 -0.769842
vn 0.000615 0.638235 -0.769842
vn 0.000615 0.638235 -0.769842
vn 0.653102 0.033208 0.756542
vn 0.653102 0.033208 0.756542
vn 0.653102 0.033208 0.756542
vn 0.653102 0.033208 0.756542
vn 0.000994 -0.634038 0.773301
vn 0.000994 -0.634038 0.773301
vn 0.000994 -0.634038 0.773301
vn 0.000994 -0.634038 0.773301
vn -0.715929 0.028754 0.697581
vn -0.715929 0.028754 0.697581
vn -0.715929 0.028754 0.697581
vn -0.715929 0.028754 0.697581
vn 0.000582 0.765989 0.642853
vn 0.000582 0.765989 0.642853
vn 0.000582 0.765989 0.642853
vn 0.000582 0.765989 0.642853
vn -0.048862 0.101962 0.993587
vn -0.004363 0.048644 0.998807
vn -0.027839 0.051345 0.998293
vn -0.039320 0.117502 0.992294
vn 0.000445 -0.084190 -0.996450
vn 0.000609 -0.084161 -0.996452
vn -0.000704 -0.084167 -0.996451
vn 0.000186 -0.084191 -0.996450
vn 0.000879 -0.085048 -0.996376
vn -0.002316 -0.085108 -0.996369
vn -0.001560 -0.087493 -0.996164
vn 0.000666 -0.087459 -0.996168
vn 0.038588 0.117550 0.992317
vn 0.048190 0.101483 0.993670
vn 0.004780 0.048665 0.998804
vn 0.027626 0.051442 0.998294
vn 0.980372 0.012064 0.196789
vn 0.980372 0.012064 0.196789
vn 0.980372 0.012064 0.196789
vn 0.980372 0.012064 0.196789
vn 0.000048 0.990844 -0.135011
vn 0.000048 0.990844 -0.135011
vn 0.000048 0.990844 -0.135011
vn 0.000048 0.990844 -0.135011
vn -0.999951 0.000617 0.009870
vn -0.999951 0.000617 0.009870
vn -0.999951 0.000617 0.009870
vn -0.999951 0.000617 0.009870
vn 0.000001 -0.986138 0.165928
vn 0.000001 -0.986138 0.165928
vn 0.000001 -0.986138 0.165928
vn 0.000001 -0.986138 0.165928
vn 0.000000 0.901327 -0.433138
vn 0.000000 0.901327 -0.433138
vn 0.000000 0.901328 -0.433138
vn 0.000000 0.901328 -0.433138
vn -0.860292 -0.509801 0.000000
vn -0.860292 -0.509801 0.000000
vn -0.860292 -0.509801 0.000000
vn -0.860292 -0.509801 0.000000
vn -0.000000 0.077803 0.996969
vn 0.000000 -0.251748 0.967793
vn 0.000000 -0.251748 0.967793
vn -0.000000 0.077803 0.996969
vn 0.860292 -0.509801 0.000000
vn 0.860292 -0.509801 0.000000
vn 0.860292 -0.509801 0.000000
vn 0.860292 -0.509801 0.000000
vn 0.000000 -0.251748 -0.967793
vn -0.000000 0.077803 -0.996969
vn -0.000000 0.077803 -0.996969
vn 0.000000 -0.251748 -0.967793
vn -0.942774 0.333433 0.000000
vn -0.942774 0.333433 0.000000
vn -0.942774 0.333433 0.000000
vn -0.942774 0.333433 0.000000
vn -0.000000 0.128087 0.991763
vn -0.000000 0.128087 0.991763
vn 0.942774 0.333434 0.000000
vn 0.942774 0.333434 0.000000
vn 0.942774 0.333434 0.000000
vn 0.942774 0.333434 0.000000
vn -0.295169 -0.719392 0.628769
vn 0.295169 -0.719392 0.628769
vn 0.443334 -0.798975 0.406317
vn -0.443334 -0.798975 0.406317
vn -0.443335 -0.798975 -0.406317
vn -0.295169 -0.719392 -0.628769
vn 0.295169 -0.719392 -0.628769
vn 0.443335 -0.798975 -0.406317
vn -0.000000 0.128087 -0.991763
vn -0.000000 0.128087 -0.991763
s off
g pCube2
usemtl initialShadingGroup
f 5/14/1 6/136/2 36/63/3 35/15/4
f 9/64/5 10/122/6 40/66/7 39/67/8
f 12/129/9 2/2/10 32/3/11 42/125/12
f 1/5/13 11/6/14 41/124/15 31/8/16
f 6/9/17 4/10/18 34/11/19 36/12/20
f 3/13/21 5/135/22 35/15/23 33/16/24
f 2/2/25 7/17/26 37/20/27 32/3/28
f 2/2/29 1/83/30 8/78/31 7/68/32
f 8/22/33 1/5/34 31/8/35 38/23/36
f 7/17/37 9/18/38 39/19/39 37/20/40
f 7/68/41 8/78/42 10/65/43 9/123/44
f 10/21/45 8/22/46 38/23/47 40/24/48
f 13/37/49 14/34/50 18/33/51 17/38/52
f 14/34/53 13/37/54 15/29/55 16/25/56
f 16/25/57 15/29/58 19/30/59 20/26/60
f 17/38/61 18/33/62 20/70/63 19/72/64
f 21/31/65 22/28/66 26/27/67 25/32/68
f 22/28/69 21/31/70 23/39/71 24/35/72
f 24/35/73 23/39/74 27/40/75 28/36/76
f 25/73/77 26/71/78 28/36/79 27/40/80
s 1
f 3/13/81 21/79/82 25/80/83 5/135/84
s 2
f 1/83/85 2/2/86 17/84/87 19/85/88
f 11/127/89 15/87/90 13/86/91 12/129/92
f 1/83/85 19/85/88 15/87/90 11/127/89
f 17/84/87 2/2/86 12/129/92 13/86/91
s 1
f 3/13/81 4/10/93 23/81/94 21/79/82
f 6/9/95 27/82/96 23/81/94 4/10/93
f 5/135/84 25/80/83 27/82/96 6/9/95
s off
f 16/25/97 20/26/98 26/27/99 22/28/100
f 20/70/101 18/33/102 28/36/103 26/71/104
f 18/33/105 14/34/106 24/35/107 28/36/108
f 14/34/109 16/25/110 22/28/111 24/35/112
f 29/103/113 30/104/114 4/105/115 3/106/116
f 29/41/117 3/42/118 33/43/119 59/133/120
f 4/45/121 30/119/122 60/44/123 34/46/124
f 32/3/125 37/89/126 38/69/127 31/8/128
f 37/89/129 39/67/130 40/66/131 38/69/132
f 43/61/133 47/62/134 48/55/135 44/58/136
f 44/58/137 46/75/138 45/77/139 43/61/140
f 46/47/141 50/50/142 49/53/143 45/54/144
f 47/62/145 49/53/146 50/50/147 48/55/148
f 51/51/149 55/52/150 56/49/151 52/48/152
f 52/74/153 54/57/154 53/60/155 51/76/156
f 54/57/157 58/56/158 57/59/159 53/60/160
f 55/52/161 57/59/162 58/56/163 56/49/164
s 3
f 33/16/165 35/15/166 55/90/167 51/91/168
s 4
f 31/8/169 49/95/170 47/96/171 32/3/172
f 41/124/173 42/125/174 43/98/175 45/97/176
f 31/8/169 41/124/173 45/97/176 49/95/170
f 47/96/171 43/98/175 42/125/174 32/3/172
s 3
f 33/16/165 51/91/168 53/93/177 34/94/178
f 36/63/179 34/94/178 53/93/177 57/92/180
f 35/15/166 36/63/179 57/92/180 55/90/167
s off
f 46/47/181 52/48/182 56/49/183 50/50/184
f 50/50/185 56/49/186 58/56/187 48/55/188
f 48/55/189 58/56/190 54/57/191 44/58/192
f 44/58/193 54/57/194 52/74/195 46/75/196
f 59/99/197 33/100/198 34/101/199 60/102/200
f 61/107/201 62/117/202 65/108/203 66/131/204
s 5
f 62/110/205 61/111/206 64/121/207 63/118/208
s off
f 63/112/209 64/113/210 68/114/211 67/120/212
s 6
f 66/109/213 65/134/214 67/115/215 68/116/216
s off
f 62/117/217 29/41/218 59/133/219 65/108/220
s 5
f 29/103/221 62/110/205 63/118/208 30/104/222
s off
f 30/119/223 63/112/224 67/120/225 60/44/226
s 7
f 11/88/227 12/130/228 64/121/229 61/111/230
f 11/128/227 61/107/230 66/131/231 41/7/232
f 64/113/229 12/1/228 42/126/233 68/114/234
s 6
f 59/99/235 60/102/236 67/115/215 65/134/214
s 7
f 41/132/232 66/109/231 68/116/234 42/4/233
