# This file uses centimeters as units for non-parametric coordinates.

mtllib FrameLP.mtl
g default
v -0.203880 4.076691 -1.133188
v -0.312907 4.054018 -1.133188
v -0.262718 4.378006 -1.000861
v -0.186276 4.019753 -1.428029
v -0.552257 3.928592 -1.428028
v -0.631700 4.301277 -1.026559
v -0.577317 4.038157 -1.142647
v -0.661487 4.320822 -1.026513
v -0.243132 4.407499 -1.000867
v -0.240604 4.412635 -1.457193
v -0.666617 4.323995 -1.457253
v -0.161656 4.025028 -1.452762
v -0.576878 3.923304 -1.453347
v -0.617613 4.027596 -1.142755
v -0.169419 4.087098 -1.132765
v -0.203880 4.076691 1.133188
v -0.312907 4.054018 1.133188
v -0.262718 4.378006 1.000861
v -0.186276 4.019753 1.428029
v -0.552257 3.928592 1.428028
v -0.631700 4.301277 1.026559
v -0.577317 4.038157 1.142647
v -0.661487 4.320822 1.026513
v -0.243132 4.407499 1.000867
v -0.240604 4.412635 1.457193
v -0.666617 4.323995 1.457253
v -0.161656 4.025028 1.452762
v -0.576878 3.923304 1.453347
v -0.617613 4.027596 1.142755
v -0.169419 4.087098 1.132765
v 0.549781 0.452469 -1.133188
v 0.440754 0.429797 -1.133188
v 0.615944 0.039457 -1.000861
v 0.543227 0.511704 -1.428029
v 0.171244 0.449405 -1.428028
v 0.246962 0.045068 -1.026559
v 0.191941 0.338933 -1.142647
v 0.227437 0.015268 -1.026513
v 0.645664 0.020217 -1.000867
v 0.650030 0.016515 -1.457193
v 0.223997 0.010313 -1.457253
v 0.567908 0.516682 -1.452762
v 0.146556 0.444440 -1.453347
v 0.150775 0.332554 -1.142755
v 0.585535 0.456663 -1.132765
v 0.549781 0.452469 1.133188
v 0.440754 0.429797 1.133188
v 0.615944 0.039457 1.000861
v 0.543227 0.511704 1.428029
v 0.171244 0.449405 1.428028
v 0.246962 0.045068 1.026559
v 0.191941 0.338933 1.142647
v 0.227437 0.015268 1.026513
v 0.645664 0.020217 1.000867
v 0.650030 0.016515 1.457193
v 0.223997 0.010313 1.457253
v 0.567908 0.516682 1.452762
v 0.146556 0.444440 1.453347
v 0.150775 0.332554 1.142755
v 0.585535 0.456663 1.132765
v -1.815464 0.001935 0.529319
v -1.380845 0.001935 0.529319
v -0.220223 3.340347 0.494644
v -0.071244 2.702029 0.500000
v -0.220223 3.340347 -0.505356
v -0.071244 2.702029 -0.500000
v -1.815464 0.001935 -0.529319
v -1.380845 0.001935 -0.529319
v -1.603952 0.441383 -0.500000
v -1.603952 0.441383 0.500000
v -1.225700 0.421487 0.500000
v -1.225700 0.421487 -0.500000
v -1.628365 0.442013 0.529319
v -1.628365 0.442013 -0.529319
v -1.201114 0.421288 0.529319
v -1.201114 0.421288 -0.529319
v -0.020814 2.014712 0.691631
v -0.291955 3.148930 0.691631
v -0.291955 3.148930 -0.691631
v -0.020814 2.014712 -0.691631
v -0.195629 2.005771 0.691631
v -0.325587 2.100523 0.579500
v -0.496499 2.891240 0.579500
v -0.417009 3.029974 0.691631
v -0.496499 2.891240 -0.579500
v -0.417009 3.029974 -0.691631
v -0.325587 2.100523 -0.579500
v -0.195629 2.005771 -0.691631
v -0.020815 2.014713 0.691631
v -0.291955 3.148930 0.691631
v -0.291955 3.148930 -0.691631
v -0.020815 2.014713 -0.691631
v -0.195629 2.005771 0.691631
v -0.325587 2.100523 0.579500
v -0.496499 2.891241 0.579500
v -0.417009 3.029974 0.691631
v -0.496499 2.891241 -0.579500
v -0.417009 3.029974 -0.691631
v -0.325587 2.100523 -0.579500
v -0.195629 2.005771 -0.691631
v -0.333039 2.135000 0.528965
v -0.333039 2.135000 -0.528965
v -0.489047 2.856764 0.528965
v -0.489047 2.856764 -0.528965
v -0.299245 2.142305 0.528965
v -0.299245 2.142305 -0.528965
v -0.455253 2.864069 0.528965
v -0.455253 2.864069 -0.528965
vt 0.781027 0.096115
vt 0.781027 0.152146
vt 0.735413 0.152146
vt 0.735413 0.096115
vt 0.683174 0.152146
vt 0.683174 0.096115
vt 0.331166 0.678180
vt 0.051050 0.678180
vt 0.051050 0.220658
vt 0.331166 0.220658
vt 0.735413 0.054203
vt 0.781027 0.054203
vt 0.781027 0.198887
vt 0.735413 0.198887
vt 0.792300 0.287782
vt 0.803052 0.287673
vt 0.806619 0.645120
vt 0.795868 0.645227
vt 0.697931 0.182295
vt 0.698035 0.193045
vt 0.479223 0.195240
vt 0.479118 0.184491
vt 0.685556 0.222791
vt 0.492293 0.224748
vt 0.763886 0.293797
vt 0.767337 0.639779
vt 0.727517 0.295585
vt 0.730940 0.638710
vt 0.688395 0.259171
vt 0.699856 0.285007
vt 0.479206 0.287211
vt 0.490166 0.261156
vt 0.451758 0.298340
vt 0.455167 0.641508
vt 0.792949 0.103959
vt 0.792949 0.151576
vt 0.680043 0.147183
vt 0.680043 0.097547
vt 0.643644 0.097547
vt 0.643644 0.096115
vt 0.640410 0.147183
vt 0.640410 0.152146
vt 0.596891 0.147183
vt 0.594114 0.152146
vt 0.608740 0.097547
vt 0.605999 0.096115
vt 0.013576 0.059945
vt 0.075762 0.059945
vt 0.075762 0.120973
vt 0.013576 0.120973
vt 0.119705 0.059945
vt 0.119705 0.120973
vt 0.119705 0.010091
vt 0.119705 0.171963
vt 0.075762 0.171963
vt 0.376066 0.291933
vt 0.386820 0.291827
vt 0.390359 0.649316
vt 0.379604 0.649422
vt 0.415351 0.297274
vt 0.418784 0.643299
vt 0.075762 0.010091
vt 0.010150 0.072015
vt 0.010150 0.123571
vt 0.132105 0.111249
vt 0.132105 0.058105
vt 0.170150 0.059945
vt 0.170150 0.058105
vt 0.176214 0.111249
vt 0.176214 0.120973
vt 0.223331 0.111249
vt 0.226509 0.120973
vt 0.210865 0.059945
vt 0.208049 0.058105
vt 0.383471 0.148620
vt 0.321660 0.148620
vt 0.321660 0.086722
vt 0.383471 0.086722
vt 0.273366 0.148620
vt 0.273366 0.086722
vt 0.273366 0.200382
vt 0.273366 0.037587
vt 0.321660 0.037587
vt 0.321660 0.200382
vt 0.386891 0.146976
vt 0.386891 0.095506
vt 0.264443 0.089804
vt 0.264443 0.144262
vt 0.223175 0.148620
vt 0.223175 0.144262
vt 0.223265 0.089804
vt 0.223265 0.086722
vt 0.176226 0.089804
vt 0.173465 0.086722
vt 0.182442 0.148620
vt 0.185615 0.144262
vt 0.416048 0.126344
vt 0.416048 0.063244
vt 0.480809 0.063244
vt 0.480809 0.126344
vt 0.527632 0.063244
vt 0.527632 0.126344
vt 0.527632 0.178262
vt 0.527632 0.009416
vt 0.480809 0.009416
vt 0.703702 0.752543
vt 0.484804 0.754840
vt 0.484691 0.744079
vt 0.703589 0.741790
vt 0.497161 0.714292
vt 0.690483 0.712276
vt 0.692569 0.675873
vt 0.494307 0.677916
vt 0.482834 0.652082
vt 0.703497 0.649835
vt 0.480809 0.178262
vt 0.412485 0.117432
vt 0.412485 0.063816
vt 0.539610 0.068947
vt 0.539610 0.124818
vt 0.580611 0.124818
vt 0.580611 0.126344
vt 0.584257 0.068947
vt 0.584257 0.063244
vt 0.633282 0.068947
vt 0.636413 0.063244
vt 0.619883 0.124818
vt 0.622963 0.126344
vt 0.957971 0.701971
vt 0.992942 0.718029
vt 0.988436 0.977273
vt 0.952859 0.991720
vt 0.851280 0.989928
vt 0.816233 0.974235
vt 0.820875 0.714993
vt 0.856391 0.700181
vt 0.400040 0.904509
vt 0.401562 0.838844
vt 0.561476 0.842570
vt 0.559949 0.908211
vt 0.719296 0.713173
vt 0.714655 0.972417
vt 0.558308 0.979900
vt 0.398385 0.976228
vt 0.626429 0.818061
vt 0.626933 0.882643
vt 0.403181 0.769393
vt 0.563112 0.773131
vt 0.334278 0.875843
vt 0.337780 0.811340
vt 0.553795 0.983487
vt 0.402730 0.980019
vt 0.630887 0.821736
vt 0.631333 0.878922
vt 0.407697 0.765782
vt 0.558771 0.769312
vt 0.330055 0.871918
vt 0.333154 0.814807
vt 0.210251 0.766468
vt 0.202146 0.807440
vt 0.118321 0.807450
vt 0.110207 0.766480
vt 0.243082 0.799154
vt 0.243093 0.899537
vt 0.202155 0.884939
vt 0.210270 0.927638
vt 0.110225 0.927649
vt 0.118330 0.884949
vt 0.077395 0.899556
vt 0.077384 0.799174
vt 0.307863 0.801647
vt 0.298353 0.912574
vt 0.210277 0.984415
vt 0.110232 0.984426
vt 0.022139 0.912606
vt 0.012603 0.801681
vt 0.110199 0.701651
vt 0.210244 0.701639
vt 0.210251 0.766468
vt 0.202146 0.807440
vt 0.118321 0.807450
vt 0.110207 0.766480
vt 0.243082 0.799154
vt 0.243093 0.899537
vt 0.202155 0.884939
vt 0.210270 0.927638
vt 0.110225 0.927649
vt 0.118330 0.884949
vt 0.077395 0.899556
vt 0.077384 0.799174
vt 0.307863 0.801647
vt 0.298353 0.912574
vt 0.210277 0.984415
vt 0.110232 0.984426
vt 0.022139 0.912606
vt 0.012603 0.801681
vt 0.110199 0.701651
vt 0.210244 0.701639
vt 0.118321 0.807450
vt 0.202146 0.807440
vt 0.202155 0.884939
vt 0.118330 0.884949
vt 0.202146 0.807440
vt 0.118321 0.807450
vt 0.202155 0.884939
vt 0.118330 0.884949
vn -0.203570 0.979012 0.009767
vn -0.203570 0.979012 0.009767
vn -0.203570 0.979012 0.009767
vn -0.203570 0.979012 0.009767
vn 0.003015 -0.009931 -0.999946
vn 0.003015 -0.009931 -0.999946
vn 0.003015 -0.009931 -0.999946
vn 0.003015 -0.009931 -0.999946
vn 0.979055 0.203596 0.000000
vn 0.979055 0.203596 0.000000
vn 0.979055 0.203596 0.000000
vn 0.979055 0.203596 0.000000
vn -0.974272 -0.218729 -0.054333
vn -0.982621 -0.184460 -0.020736
vn -0.982166 -0.186624 -0.022846
vn 0.979806 0.199396 -0.014909
vn 0.979806 0.199396 -0.014909
vn 0.979806 0.199396 -0.014909
vn 0.975216 0.221115 0.007891
vn 0.975216 0.221115 0.007891
vn 0.975216 0.221115 0.007891
vn 0.000000 0.000000 1.000000
vn 0.000000 0.000000 1.000000
vn 0.000000 0.000000 1.000000
vn 0.000000 0.000000 1.000000
vn 0.203603 -0.979054 0.000000
vn 0.203603 -0.979054 0.000000
vn 0.203603 -0.979054 0.000000
vn 0.203603 -0.979054 0.000000
vn 0.981463 0.191650 0.000000
vn 0.981463 0.191650 0.000000
vn 0.981463 0.191650 0.000000
vn 0.981463 0.191650 0.000000
vn 0.978876 0.203558 0.019137
vn 0.978876 0.203558 0.019137
vn 0.978876 0.203558 0.019137
vn 0.978876 0.203558 0.019137
vn -0.000001 0.000000 -1.000000
vn -0.000001 0.000000 -1.000000
vn -0.000001 0.000000 -1.000000
vn -0.000001 0.000000 -1.000000
vn -0.979302 -0.202407 0.000000
vn -0.976934 -0.213543 0.000000
vn -0.976934 -0.213543 0.000000
vn -0.979302 -0.202407 0.000000
vn -0.203595 0.979055 0.000000
vn -0.203595 0.979055 0.000000
vn -0.203595 0.979055 0.000000
vn -0.203595 0.979055 0.000000
vn -0.979028 -0.203727 0.000000
vn -0.979028 -0.203727 0.000000
vn -0.979082 -0.203465 0.000000
vn -0.979082 -0.203465 0.000000
vn -0.982166 -0.186624 -0.022846
vn -0.982621 -0.184460 -0.020736
vn -0.988308 -0.152097 0.010651
vn -0.976934 -0.213543 0.000000
vn -0.979028 -0.203727 0.000000
vn -0.979028 -0.203727 0.000000
vn -0.976934 -0.213543 0.000000
vn -0.057786 -0.206561 0.976726
vn 0.093463 -0.181271 0.978982
vn 0.105023 -0.193537 0.975456
vn -0.057304 -0.222747 0.973191
vn 0.282899 -0.954480 0.094530
vn 0.167688 -0.969332 0.179656
vn 0.161982 -0.967744 0.192958
vn 0.284418 -0.953683 0.097954
vn 0.167688 -0.969332 0.179656
vn 0.092743 -0.933881 0.345348
vn 0.092743 -0.933881 0.345348
vn 0.161982 -0.967744 0.192958
vn 0.325000 -0.925889 0.192623
vn 0.282899 -0.954480 0.094530
vn 0.284418 -0.953683 0.097954
vn 0.325000 -0.925890 0.192623
vn 0.093463 -0.181271 0.978982
vn 0.240796 -0.335693 0.910674
vn 0.240796 -0.335693 0.910674
vn 0.105023 -0.193537 0.975456
vn -0.051133 -0.392521 0.918321
vn -0.057786 -0.206561 0.976726
vn -0.057304 -0.222747 0.973191
vn -0.051133 -0.392521 0.918321
vn -0.203570 0.979012 -0.009767
vn -0.203570 0.979012 -0.009767
vn -0.203570 0.979012 -0.009767
vn -0.203570 0.979012 -0.009767
vn 0.003015 -0.009931 0.999946
vn 0.003015 -0.009931 0.999946
vn 0.003015 -0.009931 0.999946
vn 0.003015 -0.009931 0.999946
vn -0.974272 -0.218729 0.054333
vn -0.982166 -0.186624 0.022846
vn -0.982621 -0.184460 0.020736
vn 0.979806 0.199396 0.014909
vn 0.979806 0.199396 0.014909
vn 0.979806 0.199396 0.014909
vn 0.975216 0.221115 -0.007891
vn 0.975216 0.221115 -0.007891
vn 0.975216 0.221115 -0.007891
vn 0.000000 0.000000 -1.000000
vn 0.000000 0.000000 -1.000000
vn 0.000000 0.000000 -1.000000
vn 0.000000 0.000000 -1.000000
vn 0.978876 0.203558 -0.019137
vn 0.978876 0.203558 -0.019137
vn 0.978876 0.203558 -0.019137
vn 0.978876 0.203558 -0.019137
vn -0.000001 0.000000 1.000000
vn -0.000001 0.000000 1.000000
vn -0.000001 0.000000 1.000000
vn -0.000001 0.000000 1.000000
vn -0.982166 -0.186624 0.022846
vn -0.988308 -0.152097 -0.010651
vn -0.982621 -0.184460 0.020736
vn -0.057785 -0.206561 -0.976726
vn -0.057303 -0.222747 -0.973191
vn 0.105022 -0.193537 -0.975456
vn 0.093461 -0.181271 -0.978982
vn 0.282899 -0.954480 -0.094527
vn 0.284418 -0.953683 -0.097952
vn 0.161981 -0.967745 -0.192957
vn 0.167687 -0.969332 -0.179655
vn 0.167687 -0.969332 -0.179655
vn 0.161981 -0.967745 -0.192957
vn 0.092742 -0.933880 -0.345350
vn 0.092742 -0.933880 -0.345350
vn 0.325000 -0.925890 -0.192623
vn 0.325000 -0.925889 -0.192623
vn 0.284418 -0.953683 -0.097952
vn 0.282899 -0.954480 -0.094527
vn 0.093461 -0.181271 -0.978982
vn 0.105022 -0.193537 -0.975456
vn 0.240793 -0.335693 -0.910675
vn 0.240793 -0.335693 -0.910675
vn -0.051132 -0.392521 -0.918321
vn -0.051132 -0.392521 -0.918321
vn -0.057303 -0.222747 -0.973191
vn -0.057785 -0.206561 -0.976726
vn 0.203601 -0.979005 0.009767
vn 0.203601 -0.979005 0.009767
vn 0.203601 -0.979005 0.009767
vn 0.203601 -0.979005 0.009767
vn -0.001194 0.010310 -0.999946
vn -0.001194 0.010310 -0.999946
vn -0.001194 0.010310 -0.999946
vn -0.001194 0.010310 -0.999946
vn -0.980702 -0.187810 -0.054334
vn -0.975142 -0.220400 -0.022846
vn -0.974697 -0.222566 -0.020736
vn 0.978069 0.207746 -0.014909
vn 0.978069 0.207746 -0.014909
vn 0.978069 0.207746 -0.014909
vn 0.982518 0.185998 0.007891
vn 0.982518 0.185998 0.007891
vn 0.982518 0.185998 0.007891
vn -0.975142 -0.220400 -0.022846
vn -0.967010 -0.254514 0.010651
vn -0.974697 -0.222566 -0.020736
vn -0.135343 0.166400 0.976726
vn -0.141353 0.181436 0.973191
vn 0.019161 0.219363 0.975455
vn 0.013449 0.203503 0.978982
vn -0.121068 0.988134 0.094520
vn -0.119356 0.988009 0.097945
vn -0.237255 0.952093 0.192950
vn -0.232655 0.955824 0.179647
vn -0.232655 0.955824 0.179647
vn -0.237255 0.952093 0.192950
vn -0.287255 0.893431 0.345349
vn -0.287255 0.893431 0.345349
vn -0.071054 0.978697 0.192623
vn -0.071054 0.978697 0.192623
vn -0.119356 0.988009 0.097945
vn -0.121068 0.988134 0.094520
vn 0.013449 0.203503 0.978982
vn 0.019161 0.219363 0.975455
vn 0.087005 0.403859 0.910675
vn 0.087005 0.403859 0.910675
vn -0.203376 0.339597 0.918320
vn -0.203376 0.339597 0.918320
vn -0.141353 0.181436 0.973191
vn -0.135343 0.166400 0.976726
vn 0.203601 -0.979005 -0.009767
vn 0.203601 -0.979005 -0.009767
vn 0.203601 -0.979005 -0.009767
vn 0.203601 -0.979005 -0.009767
vn -0.001194 0.010310 0.999946
vn -0.001194 0.010310 0.999946
vn -0.001194 0.010310 0.999946
vn -0.001194 0.010310 0.999946
vn -0.980702 -0.187810 0.054333
vn -0.974697 -0.222566 0.020736
vn -0.975142 -0.220400 0.022846
vn 0.978069 0.207746 0.014909
vn 0.978069 0.207746 0.014909
vn 0.978069 0.207746 0.014909
vn 0.982518 0.185998 -0.007891
vn 0.982518 0.185998 -0.007891
vn 0.982518 0.185998 -0.007891
vn -0.203592 0.979056 0.000000
vn -0.203592 0.979056 0.000000
vn -0.203592 0.979056 0.000000
vn -0.203592 0.979056 0.000000
vn 0.976502 0.215511 0.000000
vn 0.976502 0.215511 0.000000
vn 0.976502 0.215511 0.000000
vn 0.976502 0.215511 0.000000
vn -0.978807 -0.204784 0.000000
vn -0.978807 -0.204784 0.000000
vn -0.981075 -0.193627 0.000000
vn -0.981075 -0.193627 0.000000
vn 0.203597 -0.979055 0.000000
vn 0.203597 -0.979055 0.000000
vn 0.203597 -0.979055 0.000000
vn 0.203597 -0.979055 0.000000
vn -0.975142 -0.220400 0.022846
vn -0.974697 -0.222566 0.020736
vn -0.967010 -0.254514 -0.010651
vn -0.981075 -0.193627 0.000000
vn -0.981075 -0.193627 0.000000
vn -0.979082 -0.203465 0.000000
vn -0.979082 -0.203465 0.000000
vn -0.135343 0.166400 -0.976726
vn 0.013449 0.203503 -0.978982
vn 0.019161 0.219363 -0.975455
vn -0.141353 0.181436 -0.973191
vn -0.121068 0.988134 -0.094520
vn -0.232655 0.955824 -0.179647
vn -0.237255 0.952093 -0.192950
vn -0.119356 0.988009 -0.097945
vn -0.232655 0.955824 -0.179647
vn -0.287254 0.893431 -0.345349
vn -0.287254 0.893431 -0.345349
vn -0.237255 0.952093 -0.192950
vn -0.071054 0.978697 -0.192623
vn -0.121068 0.988134 -0.094520
vn -0.119356 0.988009 -0.097945
vn -0.071054 0.978697 -0.192623
vn 0.013449 0.203503 -0.978982
vn 0.087006 0.403859 -0.910674
vn 0.087006 0.403859 -0.910674
vn 0.019161 0.219363 -0.975455
vn -0.203376 0.339597 -0.918320
vn -0.135343 0.166400 -0.976726
vn -0.141353 0.181436 -0.973191
vn -0.203376 0.339597 -0.918320
vn 0.000000 0.000000 1.000000
vn 0.000000 0.000000 1.000000
vn 0.000000 0.000000 1.000000
vn 0.000000 0.000000 1.000000
vn 0.763454 0.645863 0.000000
vn 0.763454 0.645863 0.000000
vn 0.763454 0.645863 0.000000
vn 0.763454 0.645863 0.000000
vn 0.000000 0.000000 -1.000000
vn 0.000000 0.000000 -1.000000
vn 0.000000 0.000000 -1.000000
vn 0.000000 0.000000 -1.000000
vn -0.017450 -0.999848 0.000000
vn -0.017450 -0.999848 0.000000
vn -0.017450 -0.999848 0.000000
vn -0.017450 -0.999848 0.000000
vn 0.893576 -0.448912 0.000000
vn 0.893576 -0.448912 0.000000
vn 0.893576 -0.448912 0.000000
vn 0.893576 -0.448912 0.000000
vn -0.893693 0.448680 0.000000
vn -0.893693 0.448680 0.000000
vn -0.893693 0.448680 0.000000
vn -0.893693 0.448680 0.000000
vn -0.919054 0.394133 0.000000
vn -0.919054 0.394133 0.000000
vn -0.919054 0.394133 0.000000
vn -0.919054 0.394133 0.000000
vn 0.000000 0.000000 1.000000
vn 0.000000 0.000000 1.000000
vn 0.000000 0.000000 1.000000
vn 0.000000 0.000000 1.000000
vn 0.920413 -0.390947 0.000000
vn 0.920413 -0.390947 0.000000
vn 0.920413 -0.390947 0.000000
vn 0.920413 -0.390947 0.000000
vn 0.000000 0.000000 -1.000000
vn 0.000000 0.000000 -1.000000
vn 0.000000 0.000000 -1.000000
vn 0.000000 0.000000 -1.000000
vn 0.033255 0.999444 -0.002274
vn 0.033255 0.999444 0.002274
vn 0.034955 0.999385 0.002793
vn 0.034955 0.999385 -0.002793
vn 0.020870 0.999780 -0.002268
vn 0.033255 0.999444 -0.002274
vn 0.034955 0.999385 -0.002793
vn 0.023688 0.999716 -0.002768
vn 0.020870 0.999780 0.002268
vn 0.020870 0.999780 -0.002268
vn 0.023688 0.999716 -0.002768
vn 0.023688 0.999716 0.002768
vn 0.033255 0.999444 0.002274
vn 0.020870 0.999780 0.002268
vn 0.023688 0.999716 0.002768
vn 0.034955 0.999385 0.002793
vn -0.589136 -0.808034 0.000000
vn -0.589136 -0.808034 0.000000
vn -0.589136 -0.808034 0.000000
vn -0.589136 -0.808034 0.000000
vn -0.707116 -0.152842 0.690381
vn -0.707116 -0.152842 0.690381
vn -0.707116 -0.152842 0.690381
vn -0.707116 -0.152842 0.690381
vn -0.867667 0.497146 0.000000
vn -0.867667 0.497146 0.000000
vn -0.867667 0.497146 0.000000
vn -0.867667 0.497146 0.000000
vn -0.707116 -0.152842 -0.690381
vn -0.707116 -0.152842 -0.690381
vn -0.707116 -0.152842 -0.690381
vn -0.707116 -0.152842 -0.690381
vn 0.000000 0.000000 1.000000
vn 0.000000 0.000000 1.000000
vn 0.000000 0.000000 1.000000
vn 0.000000 0.000000 1.000000
vn -0.689219 0.724553 0.000000
vn -0.689219 0.724553 0.000000
vn -0.689219 0.724553 0.000000
vn -0.689219 0.724553 0.000000
vn 0.000000 0.000000 -1.000000
vn 0.000000 0.000000 -1.000000
vn 0.000000 0.000000 -1.000000
vn 0.000000 0.000000 -1.000000
vn 0.051081 -0.998694 0.000000
vn 0.051081 -0.998694 0.000000
vn 0.051081 -0.998694 0.000000
vn 0.051081 -0.998694 0.000000
vn -0.977428 -0.211270 0.000000
vn -0.977428 -0.211270 0.000000
vn -0.977428 -0.211270 0.000000
vn -0.977428 -0.211270 0.000000
vn -0.589137 -0.808034 0.000000
vn -0.589137 -0.808033 0.000000
vn -0.589137 -0.808033 0.000000
vn -0.589137 -0.808034 0.000000
vn -0.707116 -0.152842 0.690381
vn -0.707116 -0.152842 0.690381
vn -0.707116 -0.152842 0.690381
vn -0.707116 -0.152842 0.690381
vn -0.867667 0.497146 0.000000
vn -0.867667 0.497146 0.000000
vn -0.867667 0.497146 0.000000
vn -0.867667 0.497146 0.000000
vn -0.707116 -0.152842 -0.690381
vn -0.707116 -0.152842 -0.690381
vn -0.707116 -0.152842 -0.690381
vn -0.707116 -0.152842 -0.690381
vn 0.000000 0.000000 1.000000
vn 0.000000 0.000000 1.000000
vn 0.000000 0.000000 1.000000
vn 0.000000 0.000000 1.000000
vn -0.689220 0.724552 0.000000
vn -0.689220 0.724552 0.000000
vn -0.689220 0.724552 0.000000
vn -0.689220 0.724552 0.000000
vn 0.000000 0.000000 -1.000000
vn 0.000000 0.000000 -1.000000
vn 0.000000 0.000000 -1.000000
vn 0.000000 0.000000 -1.000000
vn 0.051081 -0.998694 0.000000
vn 0.051081 -0.998694 0.000000
vn 0.051081 -0.998694 0.000000
vn 0.051081 -0.998694 0.000000
vn -0.977428 -0.211270 0.000000
vn -0.977428 -0.211270 0.000000
vn -0.977428 -0.211270 0.000000
vn -0.977428 -0.211270 0.000000
vn -0.977428 -0.211268 0.000000
vn -0.977428 -0.211268 0.000000
vn -0.977428 -0.211268 0.000000
vn -0.977428 -0.211268 0.000000
vn -0.977428 -0.211270 -0.000000
vn -0.977428 -0.211270 -0.000000
vn -0.977428 -0.211270 -0.000000
vn -0.977428 -0.211270 -0.000000
vn -0.977428 -0.211269 0.000000
vn -0.977428 -0.211269 0.000000
vn -0.977428 -0.211269 0.000000
vn -0.977428 -0.211269 0.000000
vn -0.977428 -0.211270 0.000001
vn -0.977428 -0.211270 0.000001
vn -0.977428 -0.211270 0.000001
vn -0.977428 -0.211270 0.000001
vn -0.211276 0.977427 0.000000
vn -0.211276 0.977427 0.000000
vn -0.211276 0.977427 0.000000
vn -0.211276 0.977427 0.000000
vn -0.000001 0.000000 -1.000000
vn -0.000001 0.000000 -1.000000
vn -0.000001 0.000000 -1.000000
vn -0.000001 0.000000 -1.000000
vn 0.211276 -0.977427 0.000000
vn 0.211276 -0.977427 0.000000
vn 0.211276 -0.977427 0.000000
vn 0.211276 -0.977427 0.000000
vn 0.000001 0.000000 1.000000
vn 0.000001 0.000000 1.000000
vn 0.000001 0.000000 1.000000
vn 0.000001 0.000000 1.000000
s off
g polySurface8
usemtl initialShadingGroup
f 8/1/1 9/2/2 10/3/3 11/4/4
f 11/4/5 10/3/6 12/5/7 13/6/8
f 2/7/9 17/8/10 47/9/11 32/10/12
f 13/11/13 14/12/14 11/4/15
f 15/13/16 12/14/17 10/3/18
f 10/3/19 9/2/20 15/13/21
f 1/15/22 2/16/23 32/17/24 31/18/25
f 2/19/26 1/20/27 16/21/28 17/22/29
f 1/20/30 3/23/31 18/24/32 16/21/33
f 4/25/34 1/15/35 31/18/36 34/26/37
f 5/27/38 4/25/39 34/26/40 35/28/41
f 6/29/42 7/30/43 22/31/44 21/32/45
f 3/23/46 6/29/47 21/32/48 18/24/49
f 20/33/50 5/27/51 35/28/52 50/34/53
f 11/4/54 14/12/55 8/1/56
f 7/30/57 5/27/58 20/33/59 22/31/60
f 6/35/61 3/36/62 9/2/63 8/1/64
f 4/37/65 5/38/66 13/6/67 12/5/68
f 5/38/69 7/39/70 14/40/71 13/6/72
f 1/41/73 4/37/74 12/5/75 15/42/76
f 3/43/77 1/41/78 15/42/79 9/44/80
f 7/39/81 6/45/82 8/46/83 14/40/84
f 23/47/85 26/48/86 25/49/87 24/50/88
f 26/48/89 28/51/90 27/52/91 25/49/92
f 28/51/93 26/48/94 29/53/95
f 30/54/96 25/49/97 27/52/98
f 25/49/99 30/54/100 24/55/101
f 17/56/102 16/57/103 46/58/104 47/59/105
f 16/57/106 19/60/107 49/61/108 46/58/109
f 19/60/110 20/33/111 50/34/112 49/61/113
f 26/48/114 23/62/115 29/53/116
f 21/63/117 23/47/118 24/50/119 18/64/120
f 19/65/121 27/52/122 28/51/123 20/66/124
f 20/66/125 28/51/126 29/67/127 22/68/128
f 16/69/129 30/70/130 27/52/131 19/65/132
f 18/71/133 24/72/134 30/70/135 16/69/136
f 22/68/137 29/67/138 23/73/139 21/74/140
f 38/75/141 41/76/142 40/77/143 39/78/144
f 41/76/145 43/79/146 42/80/147 40/77/148
f 43/79/149 41/76/150 44/81/151
f 45/82/152 40/77/153 42/80/154
f 40/77/155 45/82/156 39/83/157
f 41/76/158 38/84/159 44/81/160
f 36/85/161 38/75/162 39/78/163 33/86/164
f 34/87/165 42/80/166 43/79/167 35/88/168
f 35/88/169 43/79/170 44/89/171 37/90/172
f 31/91/173 45/92/174 42/80/175 34/87/176
f 33/93/177 39/94/178 45/92/179 31/91/180
f 37/90/181 44/89/182 38/95/183 36/96/184
f 53/97/185 54/98/186 55/99/187 56/100/188
f 56/100/189 55/99/190 57/101/191 58/102/192
f 58/102/193 59/103/194 56/100/195
f 60/104/196 57/101/197 55/99/198
f 55/99/199 54/105/200 60/104/201
f 32/106/202 47/107/203 46/108/204 31/109/205
f 31/109/206 46/108/207 48/110/208 33/111/209
f 36/112/210 51/113/211 52/114/212 37/115/213
f 33/111/214 48/110/215 51/113/216 36/112/217
f 56/100/218 59/103/219 53/116/220
f 37/115/221 52/114/222 50/34/223 35/28/224
f 51/117/225 48/118/226 54/98/227 53/97/228
f 49/119/229 50/120/230 58/102/231 57/101/232
f 50/120/233 52/121/234 59/122/235 58/102/236
f 46/123/237 49/119/238 57/101/239 60/124/240
f 48/125/241 46/123/242 60/124/243 54/126/244
f 52/121/245 51/127/246 53/128/247 59/122/248
f 70/129/249 71/130/250 64/131/251 63/132/252
f 63//253 64//254 66//255 65//256
f 65/133/257 66/134/258 72/135/259 69/136/260
f 67/137/261 68/138/262 62/139/263 61/140/264
f 71/141/265 72/135/266 66/134/267 64/142/268
f 69/136/269 70/129/270 63/132/271 65/133/272
f 67/137/273 61/140/274 73/143/275 74/144/276
f 61/140/277 62/139/278 75/145/279 73/146/280
f 62/139/281 68/138/282 76/147/283 75/148/284
f 74/149/285 76/150/286 68/138/287 67/137/288
f 70/151/289 69/152/290 74/144/291 73/143/292
f 71/153/293 70/154/294 73/146/295 75/145/296
f 72/155/297 71/156/298 75/148/299 76/147/300
f 69/157/301 72/158/302 76/150/303 74/149/304
f 81/159/305 82/160/306 87/161/307 88/162/308
f 82/160/309 81/163/310 84/164/311 83/165/312
f 83/165/313 84/166/314 86/167/315 85/168/316
f 85/168/317 86/169/318 88/170/319 87/161/320
f 81/163/321 77/171/322 78/172/323 84/164/324
f 84/166/325 78/173/326 79/174/327 86/167/328
f 86/169/329 79/175/330 80/176/331 88/170/332
f 88/162/333 80/177/334 77/178/335 81/159/336
f 87/161/337 82/160/338 83/165/339 85/168/340
f 93/179/341 94/180/342 99/181/343 100/182/344
f 94/180/345 93/183/346 96/184/347 95/185/348
f 95/185/349 96/186/350 98/187/351 97/188/352
f 97/188/353 98/189/354 100/190/355 99/181/356
f 93/183/357 89/191/358 90/192/359 96/184/360
f 96/186/361 90/193/362 91/194/363 98/187/364
f 98/189/365 91/195/366 92/196/367 100/190/368
f 100/182/369 92/197/370 89/198/371 93/179/372
f 106/199/373 105/200/374 107/201/375 108/202/376
f 99/181/377 94/180/378 101/203/379 102/204/380
f 94/180/381 95/185/382 103/205/383 101/203/384
f 95/185/385 97/188/386 104/206/387 103/205/388
f 97/188/389 99/181/390 102/204/391 104/206/392
f 102/204/393 101/203/394 105/200/395 106/199/396
f 101/203/397 103/205/398 107/201/399 105/200/400
f 103/205/401 104/206/402 108/202/403 107/201/404
f 104/206/405 102/204/406 106/199/407 108/202/408
