# This file uses centimeters as units for non-parametric coordinates.

mtllib FileHolderLP.mtl
g default
v -0.968271 0.020522 2.672669
v 0.995851 0.020522 2.672669
v -0.968271 1.831220 2.672669
v 0.995851 1.831220 2.672669
v -0.968271 1.831220 -2.031378
v 0.995851 1.831220 -2.031378
v -0.968271 0.020522 -2.031378
v 0.995851 0.020522 -2.031378
v -0.968271 2.000721 2.653670
v 0.995851 2.000721 2.653670
v 0.995851 5.519750 -2.013933
v -0.968271 5.519750 -2.013933
v -0.837875 2.093677 2.497063
v 0.865454 2.093677 2.497063
v 0.865454 5.430849 -1.907615
v -0.837875 5.430849 -1.907615
v -0.837875 0.172654 2.522071
v 0.865454 0.172654 2.522071
v 0.865454 0.174955 -1.847611
v -0.837875 0.174955 -1.847611
v 0.321738 0.719889 2.659878
v 0.218125 0.617989 2.659824
v 0.083403 0.563497 2.659796
v 0.469152 0.509497 2.659989
v 0.378469 0.853683 2.659949
v 0.254600 0.650896 2.538809
v 0.344150 0.764507 2.539513
v 0.383406 0.903738 2.540375
v 0.473312 0.520189 2.537245
v 0.128389 0.580202 2.538371
v 0.223290 1.237337 2.660151
v 0.325190 1.133724 2.660097
v 0.379681 0.999002 2.660026
v 0.469153 1.349083 2.659989
v 0.089496 1.294069 2.660182
v 0.295695 1.173602 2.542048
v 0.182082 1.263150 2.542603
v 0.042848 1.302405 2.542846
v 0.423535 1.382121 2.543456
v 0.366391 1.047393 2.541266
v -0.294159 1.138889 2.660100
v -0.190545 1.240789 2.660153
v -0.055824 1.295280 2.660182
v -0.441574 1.349083 2.659989
v -0.350890 1.005095 2.660028
v -0.227021 1.214696 2.542303
v -0.316571 1.101085 2.541599
v -0.355826 0.961854 2.540736
v -0.395955 1.382121 2.543456
v -0.100810 1.285390 2.542741
v -0.195711 0.621440 2.659826
v -0.297610 0.725054 2.659881
v -0.352102 0.859776 2.659952
v -0.441573 0.509497 2.659989
v -0.061917 0.564709 2.659796
v -0.268116 0.691990 2.539064
v -0.154503 0.602442 2.538509
v -0.015269 0.563187 2.538266
v -0.445732 0.520189 2.537245
v -0.338811 0.818199 2.539846
vt 0.624332 0.763321
vt 0.387189 0.986877
vt 0.385991 0.635649
vt 0.623638 0.634947
vt 0.291872 0.987202
vt 0.053666 0.764344
vt 0.052696 0.635971
vt 0.290674 0.635973
vt 0.781122 0.572883
vt 0.786455 0.567865
vt 0.786455 0.583883
vt 0.781122 0.588718
vt 0.786455 0.553117
vt 0.781122 0.557535
vt 0.786455 0.598733
vt 0.781122 0.602630
vt 0.786455 0.541884
vt 0.781122 0.545012
vt 0.786455 0.610155
vt 0.781122 0.612500
vt 0.786455 0.535877
vt 0.781122 0.537220
vt 0.786455 0.616404
vt 0.781122 0.616832
vt 0.781122 0.484057
vt 0.786455 0.477905
vt 0.786455 0.494447
vt 0.781122 0.500421
vt 0.786455 0.462676
vt 0.781122 0.468197
vt 0.786455 0.509782
vt 0.781122 0.514797
vt 0.786455 0.451077
vt 0.781122 0.455256
vt 0.786455 0.521576
vt 0.781122 0.524998
vt 0.786455 0.444874
vt 0.781122 0.447203
vt 0.786455 0.528033
vt 0.781122 0.529469
vt 0.290432 0.384361
vt 0.385748 0.384036
vt 0.786455 0.622678
vt 0.781122 0.623041
vt 0.385311 0.255663
vt 0.289994 0.255987
vt 0.360744 0.303297
vt 0.339459 0.308697
vt 0.331424 0.309861
vt 0.314885 0.303453
vt 0.363725 0.360887
vt 0.358607 0.335273
vt 0.357622 0.325676
vt 0.347259 0.311293
vt 0.324377 0.314609
vt 0.317227 0.331530
vt 0.318212 0.341127
vt 0.312297 0.361062
vt 0.336375 0.358106
vt 0.344410 0.356942
vt 0.356442 0.344584
vt 0.353637 0.317256
vt 0.319392 0.322219
vt 0.322197 0.349547
vt 0.328574 0.355510
vt 0.351457 0.352194
vt 0.312989 0.069311
vt 0.578642 0.069532
vt 0.577879 0.170007
vt 0.312579 0.169627
vt 0.575568 0.374586
vt 0.312768 0.179021
vt 0.685824 0.069873
vt 0.917951 0.070259
vt 0.916294 0.170778
vt 0.684962 0.170359
vt 0.915352 0.180191
vt 0.682706 0.375000
vt 0.579206 0.005900
vt 0.686351 0.006228
vt 0.196546 0.169728
vt 0.573415 0.569816
vt 0.680553 0.570229
vt 0.227264 0.142959
vt 0.250189 0.139966
vt 0.258824 0.139895
vt 0.281372 0.142935
vt 0.580584 0.564686
vt 0.673497 0.565045
vt 0.196629 0.069253
vt 0.227322 0.096384
vt 0.232617 0.115816
vt 0.232678 0.123876
vt 0.242188 0.136947
vt 0.266782 0.136747
vt 0.276115 0.123535
vt 0.276071 0.115481
vt 0.281534 0.096405
vt 0.675539 0.379904
vt 0.258565 0.099389
vt 0.249916 0.099454
vt 0.235871 0.108343
vt 0.236039 0.131297
vt 0.272853 0.131003
vt 0.272720 0.108064
vt 0.266573 0.102413
vt 0.241946 0.102598
vt 0.196581 0.179141
vt 0.582626 0.379546
vn 0.000000 1.000000 0.000527
vn 0.000000 1.000000 0.000527
vn 0.000000 1.000000 0.000527
vn 0.000000 1.000000 0.000527
vn 0.000000 0.003172 -0.999995
vn 0.000000 0.003172 -0.999995
vn 0.000000 0.000000 -1.000000
vn 0.000000 0.000000 -1.000000
vn 0.000000 -1.000000 0.000000
vn 0.000000 -1.000000 0.000000
vn 0.000000 -1.000000 0.000000
vn 0.000000 -1.000000 0.000000
vn 1.000000 0.000000 0.000000
vn 1.000000 0.000000 0.000000
vn 1.000000 0.000000 0.000000
vn 1.000000 0.000000 0.000000
vn -1.000000 0.000000 0.000000
vn -1.000000 0.000000 0.000000
vn -1.000000 0.000000 0.000000
vn -1.000000 0.000000 0.000000
vn 0.000000 0.111390 0.993777
vn 0.000000 0.111390 0.993777
vn 0.000000 0.111390 0.993777
vn 0.000000 0.111390 0.993777
vn 1.000000 0.000000 0.000000
vn 1.000000 0.000000 0.000000
vn 0.000000 0.004730 -0.999989
vn 0.000000 0.004730 -0.999989
vn -1.000000 0.000000 0.000000
vn -1.000000 0.000000 0.000000
vn 0.000000 0.859927 0.510418
vn 0.000000 0.859927 0.510418
vn 0.000000 0.859927 0.510418
vn 0.000000 0.859927 0.510418
vn -0.103305 0.793532 0.599696
vn -0.103305 0.793532 0.599696
vn -0.103305 0.793532 0.599696
vn -0.103305 0.793532 0.599696
vn 0.000000 0.767145 0.641473
vn 0.000000 0.767145 0.641473
vn 0.000000 0.767145 0.641473
vn 0.000000 0.767145 0.641473
vn 0.103304 0.793532 0.599696
vn 0.103304 0.793532 0.599696
vn 0.103304 0.793532 0.599696
vn 0.103304 0.793532 0.599696
vn -1.000000 -0.000000 0.000000
vn -1.000000 -0.000000 0.000000
vn -1.000000 -0.000000 0.000000
vn -1.000000 -0.000000 0.000000
vn 0.000000 0.011416 0.999935
vn 0.000000 0.011416 0.999935
vn 0.000000 0.011416 0.999935
vn 0.000000 0.011416 0.999935
vn 1.000000 0.000000 0.000000
vn 1.000000 0.000000 0.000000
vn 1.000000 0.000000 0.000000
vn 1.000000 0.000000 0.000000
vn 0.000000 0.025042 0.999686
vn 0.000000 0.025042 0.999686
vn -0.011440 0.012259 0.999860
vn -0.000001 0.024960 0.999688
vn 0.000002 0.024954 0.999689
vn 0.011411 0.012290 0.999859
vn -0.022631 -0.000005 0.999744
vn -0.022631 -0.000005 0.999744
vn -0.011452 -0.012271 0.999859
vn -0.022523 -0.000005 0.999746
vn -0.022526 -0.000005 0.999746
vn 0.000000 -0.025104 0.999685
vn 0.000000 -0.025104 0.999685
vn 0.011480 -0.012240 0.999859
vn -0.000001 -0.025017 0.999687
vn 0.000002 -0.025011 0.999687
vn 0.022630 -0.000005 0.999744
vn 0.022630 -0.000005 0.999744
vn 0.022531 -0.000005 0.999746
vn 0.022515 -0.000005 0.999747
vn -0.000001 -0.061821 -0.998087
vn -0.000001 -0.061821 -0.998087
vn -0.028941 -0.037680 -0.998871
vn -0.000001 -0.061672 -0.998096
vn -0.000003 -0.061456 -0.998110
vn 0.027756 -0.038605 -0.998869
vn -0.066318 -0.007135 -0.997773
vn -0.066318 -0.007135 -0.997773
vn -0.036740 0.014760 -0.999216
vn -0.066089 -0.007082 -0.997789
vn -0.065927 -0.007055 -0.997800
vn -0.000013 0.042358 -0.999103
vn -0.000013 0.042358 -0.999103
vn 0.037886 0.013877 -0.999186
vn -0.000010 0.042269 -0.999106
vn -0.000026 0.042098 -0.999114
vn 0.066185 -0.007087 -0.997782
vn 0.066185 -0.007087 -0.997782
vn 0.066046 -0.007059 -0.997792
vn 0.065631 -0.006957 -0.997820
vn -0.995477 0.093495 0.016857
vn -0.981522 0.190345 0.019583
vn -0.979859 -0.199507 0.008556
vn -0.955535 -0.294820 0.005841
vn -0.094176 -0.995452 -0.014353
vn -0.188288 -0.982015 -0.013962
vn 0.203300 -0.979018 -0.013875
vn 0.293287 -0.955933 -0.013204
vn 0.995240 -0.096776 0.011476
vn 0.982978 -0.183503 0.009014
vn 0.978180 0.206789 0.020050
vn 0.956414 0.291153 0.022416
vn 0.095988 0.994499 0.041942
vn 0.185549 0.981754 0.041592
vn -0.202914 0.978317 0.041496
vn -0.292598 0.955362 0.040866
vn -0.560802 0.827108 0.037329
vn -0.636622 0.770346 0.035762
vn -0.834200 0.550664 0.029664
vn -0.883500 0.467632 0.027353
vn -0.828790 -0.559557 -0.001740
vn -0.770017 -0.638011 -0.003999
vn -0.550841 -0.834554 -0.009679
vn -0.467498 -0.883925 -0.011112
vn 0.563714 -0.825916 -0.009429
vn 0.636251 -0.771443 -0.007851
vn 0.837557 -0.546348 -0.001359
vn 0.882745 -0.469851 0.000837
vn 0.824585 0.564938 0.030066
vn 0.771960 0.634865 0.032007
vn 0.546201 0.836810 0.037600
vn 0.469830 0.881902 0.038843
vn -0.000799 -0.000034 1.000000
vn -0.000501 0.000359 1.000000
vn -0.001964 0.008675 -0.999961
vn -0.003237 0.007572 -0.999966
vn 0.000510 0.000332 1.000000
vn 0.000820 -0.000043 1.000000
vn 0.000392 0.006510 -0.999979
vn 0.000220 0.006722 -0.999977
vn -0.000801 -0.000033 1.000000
vn -0.000502 0.000358 1.000000
vn -0.000313 0.006568 -0.999978
vn -0.000601 0.006436 -0.999979
vn 0.000511 0.000329 1.000000
vn 0.000815 -0.000045 1.000000
vn 0.002342 0.008169 -0.999964
vn 0.001515 0.010006 -0.999949
s off
g pCube3
usemtl initialShadingGroup
f 17/41/1 18/42/2 19/3/3 20/8/4
s 1
f 5/76/5 6/69/6 8/68/7 7/73/8
s off
f 7/73/9 8/68/10 2/79/11 1/80/12
s 2
f 2/67/13 8/68/14 6/69/15 4/70/16
s 3
f 7/73/17 1/74/18 3/75/19 5/76/20
s off
f 3/81/21 4/70/22 10/72/23 9/108/24
s 2
f 4/70/16 6/69/15 11/71/25 10/72/26
s 1
f 6/69/6 5/76/5 12/78/27 11/71/28
s 3
f 5/76/20 3/75/19 9/77/29 12/78/30
s off
f 9/83/31 10/82/32 14/88/33 13/89/34
f 10/82/35 11/71/36 15/109/37 14/88/38
f 11/71/39 12/78/40 16/99/41 15/109/42
f 12/78/43 9/83/44 13/89/45 16/99/46
f 14/1/47 15/2/48 19/3/49 18/4/50
f 15/2/51 16/5/52 20/8/53 19/3/54
f 16/5/55 13/6/56 17/7/57 20/8/58
s 4
f 1/90/59 2/67/60 24/98/61 23/100/62 55/101/63 54/91/64
f 2/67/65 4/70/66 34/87/67 33/96/68 25/97/69 24/98/61
f 4/70/70 3/81/71 44/84/72 43/85/73 35/86/74 34/87/67
f 3/81/75 1/90/76 54/91/64 53/92/77 45/93/78 44/84/72
s 8
f 13/46/79 14/45/80 39/47/81 38/48/82 50/49/83 49/50/84
f 14/45/85 18/42/86 29/51/87 28/52/88 40/53/89 39/47/81
f 18/42/90 17/41/91 59/58/92 58/59/93 30/60/94 29/51/87
f 17/41/95 13/46/96 49/50/84 48/56/97 60/57/98 59/58/92
s 12
f 28/9/99 25/10/100 33/11/101 40/12/102
f 38/24/103 35/23/104 43/43/105 50/44/106
f 48/25/107 45/26/108 53/27/109 60/28/110
f 58/40/111 55/39/112 23/21/113 30/22/114
f 23/21/113 22/17/115 26/18/116 30/22/114
f 22/17/115 21/13/117 27/14/118 26/18/116
f 21/13/117 25/10/100 28/9/99 27/14/118
f 33/11/101 32/15/119 36/16/120 40/12/102
f 32/15/119 31/19/121 37/20/122 36/16/120
f 31/19/121 35/23/104 38/24/103 37/20/122
f 43/37/105 42/33/123 46/34/124 50/38/106
f 42/33/123 41/29/125 47/30/126 46/34/124
f 41/29/125 45/26/108 48/25/107 47/30/126
f 53/27/109 52/31/127 56/32/128 60/28/110
f 52/31/127 51/35/129 57/36/130 56/32/128
f 51/35/129 55/39/112 58/40/111 57/36/130
s 4
f 24/98/61 25/97/69 21/105/131
f 24/98/61 21/105/131 22/106/132
f 24/98/61 22/106/132 23/100/62
s 8
f 29/51/87 30/60/94 26/66/133
f 29/51/87 26/66/133 27/61/134
f 29/51/87 27/61/134 28/52/88
s 4
f 34/87/67 35/86/74 31/95/135
f 34/87/67 31/95/135 32/104/136
f 34/87/67 32/104/136 33/96/68
s 8
f 39/47/81 40/53/89 36/62/137
f 39/47/81 36/62/137 37/54/138
f 39/47/81 37/54/138 38/48/82
s 4
f 44/84/72 45/93/78 41/103/139
f 44/84/72 41/103/139 42/94/140
f 44/84/72 42/94/140 43/85/73
s 8
f 49/50/84 50/49/83 46/55/141
f 49/50/84 46/55/141 47/63/142
f 49/50/84 47/63/142 48/56/97
s 4
f 54/91/64 55/101/63 51/107/143
f 54/91/64 51/107/143 52/102/144
f 54/91/64 52/102/144 53/92/77
s 8
f 59/58/92 60/57/98 56/64/145
f 59/58/92 56/64/145 57/65/146
f 59/58/92 57/65/146 58/59/93
