# This file uses centimeters as units for non-parametric coordinates.

mtllib SwitchLP.mtl
g default
v 0.008411 0.153562 -2.094274
v -0.229198 0.153562 -2.094274
v 0.008411 1.853653 -2.094274
v -0.229198 1.853653 -2.094274
v 0.008411 1.853653 -0.223451
v -0.229198 1.853653 0.000000
v 0.008411 0.153562 -0.223451
v -0.229198 0.153562 0.000000
v 0.008411 1.519720 -0.994033
v 0.008411 1.519721 -1.287389
v 0.008411 1.121502 -1.287389
v 0.008411 1.121502 -0.994033
v 0.008411 0.806734 -0.994033
v 0.008411 0.806734 -0.508609
v 0.008411 0.554036 -0.508609
v 0.008411 0.554036 -0.994033
v 0.008411 0.554036 -1.287390
v 0.008411 0.554036 -1.781507
v 0.008411 0.806734 -1.781507
v 0.008411 0.806734 -1.287390
v 0.008411 1.853570 -0.223644
v 0.008411 1.853653 -0.223621
v -0.195612 0.554036 -0.994033
v -0.195612 0.806734 -0.994033
v -0.195612 0.806734 -0.508609
v -0.195612 0.554036 -0.508609
v -0.195612 0.554036 -1.287390
v -0.195612 0.806734 -1.287390
v -0.195612 0.554036 -1.781507
v -0.195612 0.806734 -1.781507
v -0.195612 1.121502 -0.994033
v -0.195612 1.519720 -0.994033
v -0.195612 1.121502 -1.287389
v -0.195612 1.519721 -1.287389
v 0.008411 0.153562 -0.990359
v 0.008411 0.153562 -1.283759
v 0.008411 0.153562 2.094274
v -0.229198 0.153562 2.094274
v 0.008411 1.853653 2.094274
v -0.229198 1.853653 2.094274
v 0.008411 1.853653 0.223451
v 0.008411 0.153562 0.223451
v 0.008411 1.519720 0.994033
v 0.008411 1.519721 1.287389
v 0.008411 1.121502 1.287388
v 0.008411 1.121502 0.994033
v 0.008411 0.806734 0.994033
v 0.008411 0.806734 0.508609
v 0.008411 0.554036 0.508609
v 0.008411 0.554036 0.994033
v 0.008411 0.554036 1.287390
v 0.008411 0.554036 1.781507
v 0.008411 0.806734 1.781507
v 0.008411 0.806734 1.287390
v 0.008411 1.853570 0.223644
v 0.008411 1.853653 0.223621
v -0.195612 0.554036 0.994033
v -0.195612 0.806734 0.994033
v -0.195612 0.806734 0.508609
v -0.195612 0.554036 0.508609
v -0.195612 0.554036 1.287390
v -0.195612 0.806734 1.287390
v -0.195612 0.554036 1.781507
v -0.195612 0.806734 1.781507
v -0.195612 1.121502 0.994033
v -0.195612 1.519720 0.994033
v -0.195612 1.121502 1.287388
v -0.195612 1.519721 1.287389
v 0.008411 0.153562 0.990359
v 0.008411 0.153562 1.283759
v -0.683329 -0.228194 2.028398
v -0.683329 0.143065 2.399657
v -0.207834 -0.228194 2.028398
v -0.207834 0.143065 2.399657
v -0.683329 1.875854 2.399657
v -0.683329 2.247113 2.028398
v -0.207834 2.247113 2.028398
v -0.207834 1.875854 2.399657
v -0.683329 2.247113 -2.028398
v -0.683329 1.875854 -2.399657
v -0.207834 1.875854 -2.399657
v -0.207834 2.247113 -2.028398
v -0.683329 0.143065 -2.399657
v -0.683329 -0.228194 -2.028398
v -0.207834 -0.228194 -2.028398
v -0.207834 0.143065 -2.399657
v -0.016399 1.341850 -1.740345
v 0.115372 1.370171 -1.740345
v -0.087867 1.674377 -1.740345
v 0.043904 1.702698 -1.740345
v -0.087867 1.674377 -1.945676
v 0.043904 1.702698 -1.945676
v -0.016399 1.341850 -1.945676
v 0.115372 1.370171 -1.945676
v -0.016399 1.341850 0.374058
v 0.115372 1.370171 0.374058
v -0.087867 1.674377 0.374058
v 0.043904 1.702698 0.374058
v -0.087867 1.674377 0.579389
v 0.043904 1.702698 0.579389
v -0.016399 1.341850 0.579389
v 0.115372 1.370171 0.579389
vt 0.827407 0.235814
vt 0.777226 0.235814
vt 0.777226 0.096431
vt 0.827407 0.096431
vt 0.976825 0.533950
vt 0.928552 0.533640
vt 0.929143 0.441725
vt 0.977416 0.442035
vt 0.101273 0.478801
vt 0.101268 0.478820
vt 0.101230 0.478820
vt 0.339993 0.404197
vt 0.521050 0.479397
vt 0.274138 0.404106
vt 0.101215 0.097278
vt 0.165235 0.187211
vt 0.165221 0.243941
vt 0.340063 0.314800
vt 0.274034 0.314808
vt 0.273521 0.097297
vt 0.274270 0.187266
vt 0.274172 0.244070
vt 0.340107 0.244098
vt 0.451141 0.244142
vt 0.339461 0.097326
vt 0.340194 0.187322
vt 0.451236 0.187372
vt 0.521630 0.097453
vt 0.919965 0.071012
vt 0.919463 0.157175
vt 0.872268 0.156900
vt 0.872770 0.070737
vt 0.101155 0.532141
vt 0.101230 0.478820
vt 0.520980 0.532720
vt 0.521652 0.044015
vt 0.101202 0.043846
vt 0.777226 0.283699
vt 0.669835 0.283983
vt 0.669835 0.235814
vt 0.923073 0.283699
vt 0.827407 0.283699
vt 0.923073 0.235814
vt 0.890566 0.533396
vt 0.891157 0.441480
vt 0.891457 0.394906
vt 0.892047 0.303080
vt 0.930033 0.303325
vt 0.929443 0.395150
vt 0.713740 0.030752
vt 0.783349 0.031158
vt 0.783121 0.070214
vt 0.713512 0.069809
vt 0.872997 0.031680
vt 0.920192 0.031955
vt 0.575022 0.097529
vt 0.574437 0.479481
vt 0.047903 0.478822
vt 0.047889 0.097276
vt 0.960042 0.283699
vt 0.960042 0.235814
vt 0.890262 0.580650
vt 0.928248 0.580894
vt 0.979231 0.032299
vt 0.979003 0.071355
vt 0.521630 0.097453
vt 0.575022 0.097529
vt 0.574437 0.479481
vt 0.521050 0.479397
vt 0.101268 0.478820
vt 0.101155 0.532141
vt 0.101230 0.478820
vt 0.101230 0.478820
vt 0.047903 0.478822
vt 0.047889 0.097276
vt 0.101215 0.097278
vt 0.339461 0.097326
vt 0.521652 0.044015
vt 0.827407 0.235814
vt 0.777226 0.235814
vt 0.777226 0.096431
vt 0.827407 0.096431
vt 0.976825 0.533950
vt 0.928552 0.533640
vt 0.929143 0.441725
vt 0.977416 0.442035
vt 0.101273 0.478801
vt 0.919965 0.071012
vt 0.919463 0.157175
vt 0.872268 0.156900
vt 0.872770 0.070737
vt 0.451141 0.244142
vt 0.451236 0.187372
vt 0.165235 0.187211
vt 0.165221 0.243941
vt 0.274172 0.244070
vt 0.274034 0.314808
vt 0.339993 0.404197
vt 0.274138 0.404106
vt 0.520980 0.532720
vt 0.274270 0.187266
vt 0.340194 0.187322
vt 0.340107 0.244098
vt 0.340063 0.314800
vt 0.827407 0.283699
vt 0.777226 0.283699
vt 0.669835 0.283983
vt 0.669835 0.235814
vt 0.960042 0.283699
vt 0.923073 0.283699
vt 0.923073 0.235814
vt 0.960042 0.235814
vt 0.890262 0.580650
vt 0.890566 0.533396
vt 0.928248 0.580894
vt 0.891157 0.441480
vt 0.891457 0.394906
vt 0.929443 0.395150
vt 0.892047 0.303080
vt 0.930033 0.303325
vt 0.920192 0.031955
vt 0.979231 0.032299
vt 0.979003 0.071355
vt 0.713740 0.030752
vt 0.783349 0.031158
vt 0.783121 0.070214
vt 0.713512 0.069809
vt 0.872997 0.031680
vt 0.273521 0.097297
vt 0.101202 0.043846
vt 0.077052 0.657379
vt 0.135109 0.657379
vt 0.135109 0.874111
vt 0.077052 0.874111
vt 0.184279 0.981347
vt 0.184279 0.921704
vt 0.693145 0.921704
vt 0.693145 0.981347
vt 0.799821 0.876109
vt 0.740286 0.876109
vt 0.740286 0.658734
vt 0.799821 0.658734
vt 0.694164 0.551469
vt 0.694164 0.611133
vt 0.185072 0.611133
vt 0.185072 0.551469
vt 0.077052 0.593667
vt 0.135109 0.593667
vt 0.077052 0.939561
vt 0.135109 0.939561
vt 0.799821 0.942000
vt 0.740286 0.942000
vt 0.799821 0.593104
vt 0.740286 0.593104
vt 0.673415 0.532852
vt 0.673416 0.476008
vt 0.816846 0.476003
vt 0.816878 0.532858
vt 0.873720 0.476002
vt 0.816846 0.389404
vt 0.873718 0.389413
vt 0.816879 0.332559
vt 0.673416 0.389406
vt 0.673414 0.332562
vt 0.616570 0.389404
vt 0.616570 0.476010
vt 0.673415 0.532852
vt 0.816878 0.532858
vt 0.816846 0.476003
vt 0.673416 0.476008
vt 0.873720 0.476002
vt 0.873718 0.389413
vt 0.816846 0.389404
vt 0.816879 0.332559
vt 0.673414 0.332562
vt 0.673416 0.389406
vt 0.616570 0.389404
vt 0.616570 0.476010
vn 0.000000 0.000000 -1.000000
vn 0.000000 0.000000 -1.000000
vn 0.000000 0.000000 -1.000000
vn 0.000000 0.000000 -1.000000
vn 0.000000 1.000000 0.000000
vn 0.000000 1.000000 0.000000
vn 0.000000 1.000000 0.000000
vn 0.685070 0.000000 0.728477
vn 0.685070 0.000000 0.728477
vn 0.685070 0.000000 0.728477
vn 0.685070 0.000000 0.728477
vn 0.000000 -1.000000 0.000000
vn 0.000000 -1.000000 0.000000
vn 0.000000 -1.000000 0.000000
vn 1.000000 -0.000000 0.000000
vn 1.000000 -0.000000 0.000000
vn 1.000000 -0.000000 0.000000
vn 1.000000 -0.000000 0.000000
vn 1.000000 0.000000 0.000000
vn 1.000000 0.000000 0.000000
vn 1.000000 0.000000 0.000000
vn 1.000000 0.000000 0.000000
vn 1.000000 0.000000 0.000000
vn 1.000000 0.000000 0.000000
vn 1.000000 0.000000 0.000000
vn 1.000000 -0.000000 0.000000
vn 1.000000 -0.000000 0.000000
vn 1.000000 -0.000000 0.000000
vn 1.000000 -0.000000 0.000000
vn 1.000000 0.000000 0.000000
vn 1.000000 0.000000 0.000000
vn 1.000000 0.000000 0.000000
vn 1.000000 0.000000 0.000000
vn 1.000000 0.000000 0.000000
vn 1.000000 0.000000 0.000000
vn 1.000000 0.000000 0.000000
vn 1.000000 -0.000000 0.000000
vn 1.000000 -0.000000 0.000000
vn 1.000000 0.000000 0.000000
vn 1.000000 0.000000 0.000000
vn 0.000000 1.000000 0.000000
vn 0.000000 1.000000 0.000000
vn 1.000000 0.000000 0.000000
vn 1.000000 0.000000 0.000000
vn 1.000000 -0.000000 0.000000
vn 1.000000 0.000000 0.000000
vn 1.000000 -0.000000 0.000000
vn 0.000000 0.000000 1.000000
vn 0.000000 0.000000 1.000000
vn 0.000000 0.000000 1.000000
vn 0.000000 0.000000 1.000000
vn 0.000000 -1.000000 -0.000001
vn 0.000000 -1.000000 -0.000001
vn 0.000000 -1.000000 -0.000001
vn 0.000000 -1.000000 -0.000001
vn 0.000000 0.000000 -1.000000
vn 0.000000 0.000000 -1.000000
vn 0.000000 0.000000 -1.000000
vn 0.000000 0.000000 -1.000000
vn 0.000000 1.000000 0.000000
vn 0.000000 1.000000 0.000000
vn 0.000000 1.000000 0.000000
vn 0.000000 1.000000 0.000000
vn 0.000000 0.000000 -1.000000
vn 0.000000 0.000000 -1.000000
vn 0.000000 0.000000 -1.000000
vn 0.000000 0.000000 -1.000000
vn 0.000000 1.000000 0.000000
vn 0.000000 1.000000 0.000000
vn 0.000000 1.000000 0.000000
vn 0.000000 1.000000 0.000000
vn 0.000000 -0.000001 1.000000
vn 0.000000 -0.000001 1.000000
vn 0.000000 -0.000001 1.000000
vn 0.000000 -0.000001 1.000000
vn 0.000000 -1.000000 0.000000
vn 0.000000 -1.000000 0.000000
vn 0.000000 -1.000000 0.000000
vn 0.000000 -1.000000 0.000000
vn 0.000000 -0.000000 -1.000000
vn 0.000000 -0.000000 -1.000000
vn 0.000000 -0.000000 -1.000000
vn 0.000000 -0.000000 -1.000000
vn 0.000000 1.000000 -0.000000
vn 0.000000 1.000000 -0.000000
vn 0.000000 1.000000 -0.000000
vn 0.000000 1.000000 -0.000000
vn 0.000000 0.000001 1.000000
vn 0.000000 0.000001 1.000000
vn 0.000000 0.000001 1.000000
vn 0.000000 0.000001 1.000000
vn 0.000000 -1.000000 -0.000002
vn 0.000000 -1.000000 -0.000002
vn 0.000000 -1.000000 -0.000002
vn 0.000000 -1.000000 -0.000002
vn 1.000000 0.000000 0.000000
vn 0.000000 -1.000000 0.000000
vn 0.000000 -1.000000 0.000000
vn 0.000000 -1.000000 0.000000
vn 0.000000 0.000000 1.000000
vn 0.000000 0.000000 1.000000
vn 0.000000 0.000000 1.000000
vn 0.000000 0.000000 1.000000
vn 0.000000 1.000000 0.000000
vn 0.000000 1.000000 0.000000
vn 0.000000 1.000000 0.000000
vn 0.685070 0.000000 -0.728477
vn 0.685070 0.000000 -0.728477
vn 0.685070 0.000000 -0.728477
vn 0.685070 0.000000 -0.728477
vn 0.000000 -1.000000 0.000000
vn 0.000000 -1.000000 0.000000
vn 0.000000 -1.000000 0.000000
vn 1.000000 0.000000 0.000000
vn 1.000000 0.000000 0.000000
vn 1.000000 0.000000 0.000000
vn 1.000000 0.000000 0.000000
vn 1.000000 0.000000 0.000000
vn 1.000000 0.000000 0.000000
vn 1.000000 0.000000 0.000000
vn 1.000000 0.000000 0.000000
vn 1.000000 0.000000 0.000000
vn 1.000000 -0.000000 0.000000
vn 1.000000 -0.000000 0.000000
vn 1.000000 0.000000 0.000000
vn 1.000000 0.000000 0.000000
vn 1.000000 0.000000 0.000000
vn 1.000000 0.000000 0.000000
vn 1.000000 -0.000000 0.000000
vn 1.000000 -0.000000 0.000000
vn 1.000000 -0.000000 0.000000
vn 1.000000 0.000000 0.000000
vn 1.000000 0.000000 0.000000
vn 1.000000 0.000000 0.000000
vn 1.000000 0.000000 0.000000
vn 1.000000 0.000000 0.000000
vn 1.000000 0.000000 0.000000
vn 1.000000 -0.000000 0.000000
vn 1.000000 0.000000 0.000000
vn 0.000000 1.000000 0.000000
vn 0.000000 1.000000 0.000000
vn 1.000000 -0.000000 0.000000
vn 1.000000 0.000000 0.000000
vn 1.000000 -0.000000 0.000000
vn 1.000000 -0.000000 0.000000
vn 1.000000 -0.000000 0.000000
vn 0.000000 0.000000 -1.000000
vn 0.000000 0.000000 -1.000000
vn 0.000000 0.000000 -1.000000
vn 0.000000 0.000000 -1.000000
vn 0.000000 -1.000000 0.000001
vn 0.000000 -1.000000 0.000001
vn 0.000000 -1.000000 0.000001
vn 0.000000 -1.000000 0.000001
vn 0.000000 0.000000 1.000000
vn 0.000000 0.000000 1.000000
vn 0.000000 0.000000 1.000000
vn 0.000000 0.000000 1.000000
vn 0.000000 1.000000 -0.000000
vn 0.000000 1.000000 -0.000000
vn 0.000000 1.000000 -0.000000
vn 0.000000 1.000000 -0.000000
vn 0.000000 0.000000 1.000000
vn 0.000000 0.000000 1.000000
vn 0.000000 0.000000 1.000000
vn 0.000000 0.000000 1.000000
vn 0.000000 1.000000 -0.000000
vn 0.000000 1.000000 -0.000000
vn 0.000000 1.000000 -0.000000
vn 0.000000 1.000000 -0.000000
vn 0.000000 0.000000 -1.000000
vn 0.000000 0.000000 -1.000000
vn 0.000000 0.000000 -1.000000
vn 0.000000 0.000000 -1.000000
vn 0.000000 -1.000000 -0.000000
vn 0.000000 -1.000000 -0.000000
vn 0.000000 -1.000000 -0.000000
vn 0.000000 -1.000000 -0.000000
vn 0.000000 0.000000 1.000000
vn 0.000000 0.000000 1.000000
vn 0.000000 0.000000 1.000000
vn 0.000000 0.000000 1.000000
vn 0.000000 1.000000 0.000000
vn 0.000000 1.000000 0.000000
vn 0.000000 1.000000 0.000000
vn 0.000000 1.000000 0.000000
vn 0.000000 0.000001 -1.000000
vn 0.000000 0.000001 -1.000000
vn 0.000000 0.000001 -1.000000
vn 0.000000 0.000001 -1.000000
vn 0.000000 -1.000000 0.000002
vn 0.000000 -1.000000 0.000002
vn 0.000000 -1.000000 0.000002
vn 0.000000 -1.000000 0.000002
vn 1.000000 -0.000000 0.000000
vn 0.000000 -1.000000 0.000000
vn 0.000000 -1.000000 0.000000
vn 0.000000 -1.000000 0.000000
vn 0.000000 0.000000 1.000000
vn 0.000000 0.000000 1.000000
vn 0.000000 0.000000 1.000000
vn 0.000000 0.000000 1.000000
vn 0.000000 1.000000 0.000000
vn 0.000000 1.000000 0.000000
vn 0.000000 1.000000 0.000000
vn 0.000000 1.000000 0.000000
vn 0.000000 0.000000 -1.000000
vn 0.000000 0.000000 -1.000000
vn 0.000000 0.000000 -1.000000
vn 0.000000 0.000000 -1.000000
vn 0.000000 -1.000000 0.000000
vn 0.000000 -1.000000 0.000000
vn 0.000000 -1.000000 0.000000
vn 0.000000 -1.000000 0.000000
vn 1.000000 0.000000 0.000000
vn 1.000000 0.000000 0.000000
vn 1.000000 0.000000 0.000000
vn 1.000000 0.000000 0.000000
vn 1.000000 0.000000 0.000000
vn 1.000000 0.000000 0.000000
vn 1.000000 0.000000 0.000000
vn 1.000000 0.000000 0.000000
vn 0.000000 -0.707107 0.707107
vn 0.000000 -0.707107 0.707107
vn 0.000000 -0.707107 0.707107
vn 0.000000 -0.707107 0.707107
vn 0.000000 0.707107 0.707107
vn 0.000000 0.707107 0.707107
vn 0.000000 0.707107 0.707107
vn 0.000000 0.707107 0.707107
vn 0.000000 0.707107 -0.707107
vn 0.000000 0.707107 -0.707107
vn 0.000000 0.707107 -0.707107
vn 0.000000 0.707107 -0.707107
vn 0.000000 -0.707107 -0.707107
vn 0.000000 -0.707107 -0.707107
vn 0.000000 -0.707107 -0.707107
vn 0.000000 -0.707107 -0.707107
vn 0.000000 0.000000 1.000000
vn 0.000000 0.000000 1.000000
vn 0.000000 0.000000 1.000000
vn 0.000000 0.000000 1.000000
vn -0.210124 0.977675 0.000000
vn -0.210124 0.977675 0.000000
vn -0.210124 0.977675 0.000000
vn -0.210124 0.977675 0.000000
vn 0.000001 0.000000 -1.000000
vn 0.000001 0.000000 -1.000000
vn 0.000001 0.000000 -1.000000
vn 0.000001 0.000000 -1.000000
vn 0.210126 -0.977674 0.000000
vn 0.210126 -0.977674 0.000000
vn 0.210126 -0.977674 0.000000
vn 0.210126 -0.977674 0.000000
vn 0.977675 0.210125 0.000000
vn 0.977675 0.210125 0.000000
vn 0.977675 0.210125 0.000000
vn 0.977675 0.210125 0.000000
vn 0.000000 0.000000 -1.000000
vn 0.000000 0.000000 -1.000000
vn 0.000000 0.000000 -1.000000
vn 0.000000 0.000000 -1.000000
vn -0.210124 0.977675 0.000000
vn -0.210124 0.977675 0.000000
vn -0.210124 0.977675 0.000000
vn -0.210124 0.977675 0.000000
vn -0.000000 0.000000 1.000000
vn -0.000000 0.000000 1.000000
vn -0.000000 0.000000 1.000000
vn -0.000000 0.000000 1.000000
vn 0.210126 -0.977674 0.000000
vn 0.210126 -0.977674 0.000000
vn 0.210126 -0.977674 0.000000
vn 0.210126 -0.977674 0.000000
vn 0.977675 0.210125 0.000000
vn 0.977675 0.210125 0.000000
vn 0.977675 0.210125 0.000000
vn 0.977675 0.210125 0.000000
s off
g polySurface1
usemtl initialShadingGroup
f 1/28/1 2/56/2 4/57/3 3/13/4
s 1
f 22/10/5 6/33/6 5/34/7
s off
f 5/11/8 6/58/9 8/59/10 7/15/11
s 2
f 36/25/12 2/36/13 1/28/14
s off
f 23/1/15 24/2/16 25/3/17 26/4/18
f 28/5/19 27/6/20 29/7/21 30/8/22
s 3
f 21/9/23 22/10/24 5/11/25
s off
f 32/29/26 31/30/27 33/31/28 34/32/29
s 3
f 3/13/30 19/24/31 18/27/32 1/28/33
f 7/15/34 15/16/35 14/17/36 21/9/23 5/11/25
f 21/9/23 14/17/36 13/22/37 12/19/38
f 10/12/39 3/13/30 22/10/24 21/9/23 9/14/40
s 1
f 3/13/41 4/35/42 6/33/6 22/10/5
s 3
f 16/21/43 17/26/44 20/23/45 13/22/37
f 17/26/44 36/25/46 1/28/33 18/27/32
f 13/22/37 20/23/45 11/18/47 12/19/38
f 3/13/30 10/12/39 11/18/47
s off
f 16/42/48 13/38/49 24/2/50 23/1/51
f 13/38/52 14/39/53 25/40/54 24/2/55
f 14/60/56 15/41/57 26/43/58 25/61/59
f 15/41/60 16/42/61 23/1/62 26/43/63
f 20/62/64 17/44/65 27/6/66 28/63/67
f 17/44/68 18/45/69 29/7/70 27/6/71
f 18/45/72 19/46/73 30/49/74 29/7/75
f 19/46/76 20/47/77 28/48/78 30/49/79
f 9/55/80 12/64/81 31/65/82 32/29/83
f 12/50/84 11/51/85 33/52/86 31/53/87
f 11/51/88 10/54/89 34/32/90 33/52/91
f 10/54/92 9/55/93 32/29/94 34/32/95
s 3
f 7/15/34 35/20/96 16/21/43 15/16/35
s 2
f 7/15/97 8/37/98 35/20/99
s 3
f 16/21/43 35/20/96 36/25/46 17/26/44
s 2
f 35/20/99 8/37/98 2/36/13 36/25/12
s 3
f 3/13/30 11/18/47 20/23/45 19/24/31
f 21/9/23 12/19/38 9/14/40
s off
f 37/66/100 39/69/101 40/68/102 38/67/103
s 6
f 56/70/104 41/72/105 6/71/106
s off
f 41/73/107 42/76/108 8/75/109 6/74/110
s 7
f 70/77/111 37/66/112 38/78/113
s off
f 57/79/114 60/82/115 59/81/116 58/80/117
f 62/83/118 64/86/119 63/85/120 61/84/121
s 8
f 55/87/122 41/73/123 56/70/124
s off
f 66/88/125 68/91/126 67/90/127 65/89/128
s 8
f 39/69/129 37/66/130 52/93/131 53/92/132
f 42/76/133 41/73/123 55/87/122 48/95/134 49/94/135
f 55/87/122 46/97/136 47/96/137 48/95/134
f 44/98/138 43/99/139 55/87/122 56/70/124 39/69/129
s 6
f 39/69/140 56/70/104 6/71/106 40/100/141
s 8
f 50/101/142 47/96/137 54/103/143 51/102/144
f 51/102/144 52/93/131 37/66/130 70/77/145
f 47/96/137 46/97/136 45/104/146 54/103/143
f 39/69/129 45/104/146 44/98/138
s off
f 50/105/147 57/79/148 58/80/149 47/106/150
f 47/106/151 58/80/152 59/108/153 48/107/154
f 48/109/155 59/112/156 60/111/157 49/110/158
f 49/110/159 60/111/160 57/79/161 50/105/162
f 54/113/163 62/115/164 61/84/165 51/114/166
f 51/114/167 61/84/168 63/85/169 52/116/170
f 52/116/171 63/85/172 64/118/173 53/117/174
f 53/117/175 64/118/176 62/120/177 54/119/178
f 43/121/179 66/88/180 65/123/181 46/122/182
f 46/124/183 65/127/184 67/126/185 45/125/186
f 45/125/187 67/126/188 68/91/189 44/128/190
f 44/128/191 68/91/192 66/88/193 43/121/194
s 8
f 42/76/133 49/94/135 50/101/142 69/129/195
s 7
f 42/76/196 69/129/197 8/130/198
s 8
f 50/101/142 51/102/144 70/77/145 69/129/195
s 7
f 69/129/197 70/77/111 38/78/113 8/130/198
s 8
f 39/69/129 53/92/132 54/103/143 45/104/146
f 55/87/122 43/99/139 46/97/136
s off
f 72/131/199 74/132/200 78/133/201 75/134/202
f 76/135/203 77/136/204 82/137/205 79/138/206
f 80/139/207 81/140/208 86/141/209 83/142/210
f 84/143/211 85/144/212 73/145/213 71/146/214
f 74/132/215 73/145/216 85/144/217 86/141/218 81/140/219 82/137/220 77/136/221 78/133/222
f 72/131/223 71/147/224 73/148/225 74/132/226
f 76/149/227 75/134/228 78/133/229 77/150/230
f 80/139/231 79/151/232 82/152/233 81/140/234
f 84/153/235 83/142/236 86/141/237 85/154/238
f 87/155/239 88/156/240 90/157/241 89/158/242
f 89/159/243 90/157/244 92/160/245 91/161/246
f 91/162/247 92/160/248 94/163/249 93/164/250
f 93/165/251 94/163/252 88/156/253 87/166/254
f 88/156/255 94/163/256 92/160/257 90/157/258
f 95/167/259 97/168/260 98/169/261 96/170/262
f 97/171/263 99/172/264 100/173/265 98/169/266
f 99/174/267 101/175/268 102/176/269 100/173/270
f 101/177/271 95/178/272 96/170/273 102/176/274
f 96/170/275 98/169/276 100/173/277 102/176/278
