# This file uses centimeters as units for non-parametric coordinates.

mtllib PaperTrayLP.mtl
g default
v -1.674516 0.014705 2.026320
v 1.674516 0.014705 2.026320
v -1.674516 0.283243 2.004179
v 1.674516 0.283243 2.004179
v -1.674516 1.014705 -1.992177
v 1.674516 1.014705 -1.992177
v -1.674516 0.014705 -1.992177
v 1.674516 0.014705 -1.992177
v -1.590791 0.329349 1.936784
v 1.590791 0.329349 1.936784
v 1.590791 1.014705 -1.892568
v -1.590791 1.014705 -1.892568
v 1.674516 1.014705 1.593742
v 1.590791 1.014705 1.593741
v -1.590791 1.014705 1.593741
v -1.674516 1.014705 1.593742
v -1.590791 0.085897 1.957255
v 1.590791 0.085897 1.957255
v 1.590791 0.085897 -1.892568
v -1.590791 0.085897 -1.892568
vt 1.926729 1.431096
vt 1.926888 1.110401
vt 1.952524 1.431109
vt 1.924783 1.084671
vt 1.542056 1.526612
vt 1.039117 1.541521
vt 1.542090 1.430902
vt 1.542144 1.110308
vt 1.446423 1.110306
vt 1.960347 1.423096
vt 1.116992 1.969645
vt 1.150289 1.453236
vt 1.595187 1.559851
vt 1.033936 1.931300
vt 1.885491 1.014578
vt 1.892446 1.010591
vt 1.590317 1.938486
vt 1.885246 1.526815
vt 1.488937 1.976660
vt 1.143409 1.972209
vt 1.148952 1.554049
vt 1.494352 1.558557
vt 1.504853 1.447057
vt 1.983739 1.423100
vt 1.924599 1.456803
vt 1.960493 1.118433
vt 1.983894 1.118445
vt 1.928780 1.467192
vt 1.952679 1.110413
vt 1.495625 1.457753
vt 1.048136 1.552646
vt 1.604418 1.549151
vt 1.141346 1.442308
vt 1.446376 1.430869
vt 1.542145 1.014549
vt 1.043033 1.931416
vt 1.515404 1.974778
vt 1.928979 1.074285
vt 1.892196 1.530812
vt 1.599410 1.938604
vn 0.000000 0.082172 0.996618
vn 0.000000 0.082172 0.996618
vn 0.000000 0.082172 0.996618
vn 0.000000 0.082172 0.996618
vn 0.000000 1.000000 0.000000
vn 0.000000 1.000000 0.000000
vn 0.000000 1.000000 0.000000
vn 0.000000 1.000000 0.000000
vn 0.000000 0.000000 -1.000000
vn 0.000000 0.000000 -1.000000
vn 0.000000 0.000000 -1.000000
vn 0.000000 0.000000 -1.000000
vn 0.000000 -1.000000 0.000000
vn 0.000000 -1.000000 0.000000
vn 0.000000 -1.000000 0.000000
vn 0.000000 -1.000000 0.000000
vn 1.000000 -0.000000 0.000000
vn 1.000000 -0.000000 0.000000
vn 1.000000 -0.000000 0.000000
vn 1.000000 -0.000000 0.000000
vn 1.000000 -0.000000 0.000000
vn -1.000000 0.000000 0.000000
vn -1.000000 0.000000 0.000000
vn -1.000000 0.000000 0.000000
vn -1.000000 0.000000 0.000000
vn -1.000000 0.000000 0.000000
vn 0.052021 0.759275 0.648687
vn -0.052021 0.759275 0.648687
vn -0.044043 0.770169 0.636318
vn 0.044043 0.770169 0.636318
vn -0.045567 0.982981 0.177966
vn -0.045567 0.982981 0.177965
vn 0.000000 1.000000 0.000000
vn 0.000000 1.000000 0.000000
vn 0.000000 1.000000 0.000000
vn 0.000000 1.000000 0.000000
vn 0.045567 0.982981 0.177965
vn 0.045567 0.982981 0.177966
vn 0.000000 -0.083791 -0.996483
vn 0.000000 -0.083791 -0.996483
vn 0.000000 -0.083791 -0.996483
vn 0.000000 -0.083791 -0.996483
vn -1.000000 0.000000 0.000000
vn -1.000000 0.000000 0.000000
vn -1.000000 0.000000 0.000000
vn -1.000000 0.000000 0.000000
vn -1.000000 0.000000 0.000000
vn 0.000000 0.000000 1.000000
vn 0.000000 0.000000 1.000000
vn 0.000000 0.000000 1.000000
vn 0.000000 0.000000 1.000000
vn 1.000000 0.000000 0.000000
vn 1.000000 0.000000 0.000000
vn 1.000000 0.000000 0.000000
vn 1.000000 0.000000 0.000000
vn 1.000000 0.000000 0.000000
s off
g paper_tray
usemtl initialShadingGroup
f 1/1/1 2/2/2 4/29/3 3/3/4
f 17/19/5 18/20/6 19/21/7 20/22/8
f 5/34/9 6/9/10 8/8/11 7/7/12
f 7/7/13 8/8/14 2/2/15 1/1/16
f 2/2/17 8/8/18 6/35/19 13/15/20 4/4/21
f 7/7/22 1/1/23 3/25/24 16/18/25 5/5/26
s 1
f 3/3/27 4/29/28 10/26/29 9/10/30
f 4/4/28 13/15/31 14/16/32 10/38/29
f 6/33/33 5/23/34 12/30/35 11/12/36
f 15/39/37 16/18/38 3/25/27 9/28/30
f 14/36/32 13/14/31 6/6/33 11/31/36
f 5/32/34 16/40/38 15/17/37 12/13/35
s off
f 9/10/39 10/26/40 18/27/41 17/24/42
f 18/20/43 10/11/44 14/36/45 11/31/46 19/21/47
f 11/12/48 12/30/49 20/22/50 19/21/51
f 17/19/52 20/22/53 12/13/54 15/17/55 9/37/56
