# This file uses centimeters as units for non-parametric coordinates.

mtllib lander.mtl
g default
v -3.191182 -0.151862 9.744935
v -2.808817 -0.151862 9.744935
v -3.191182 0.018778 9.744935
v -2.808817 0.018778 9.744935
v -3.135513 -0.032748 8.168998
v -2.864487 -0.032748 8.168998
v -3.135513 -0.151862 8.168998
v -2.864487 -0.151862 8.168998
v -3.191182 0.018778 8.305878
v -3.191182 -0.151862 8.305878
v -2.808817 -0.151862 8.305878
v -2.808817 0.018778 8.305878
v -3.191182 0.018778 8.504137
v -3.191182 -0.151862 8.504137
v -2.808817 -0.151862 8.504137
v -2.808817 0.018778 8.504137
v -3.191182 0.018778 9.101825
v -3.191182 -0.151862 9.101825
v -2.808817 -0.151862 9.101825
v -2.808817 0.018778 9.101825
v -3.112494 0.221041 9.666246
v -2.887506 0.221041 9.666246
v -2.887506 0.221041 9.180513
v -3.112494 0.221041 9.180513
v -3.073150 0.221041 9.626902
v -2.926851 0.221041 9.626902
v -2.926851 0.221041 9.219858
v -3.073150 0.221041 9.219858
v -3.073150 0.195919 9.626902
v -2.926851 0.195919 9.626902
v -2.926851 0.195919 9.219858
v -3.073150 0.195919 9.219858
v -2.848162 -0.028015 8.464792
v -3.151838 -0.028015 8.464792
v -2.848162 -0.028015 8.345222
v -3.151838 -0.028015 8.345222
v -3.073150 0.221041 9.666246
v -3.115961 0.018778 9.744935
v -3.151803 -0.151862 9.744935
v -2.926851 0.221041 9.666246
v -2.871453 0.018778 9.744935
v -2.831769 -0.151862 9.744935
v -3.084022 -0.020566 9.698735
v -3.103336 -0.112517 9.698735
v -2.881313 -0.112517 9.698735
v -2.902698 -0.020566 9.698735
v -2.871453 0.018778 9.843215
v -2.831769 -0.151862 9.761868
v -2.808817 -0.151862 9.761868
v -2.808817 0.018778 9.843215
v -3.191182 -0.151862 9.761868
v -3.151803 -0.151862 9.761868
v -3.115961 0.018778 9.843215
v -3.191182 0.018778 9.843215
v -2.776401 -0.151862 9.101825
v -2.776401 -0.151862 9.744935
v -2.776401 0.018778 9.101825
v -2.776401 0.018778 9.744935
v -2.777595 -0.151862 8.299771
v -2.777595 0.018778 8.299771
v -2.834458 -0.151862 8.156785
v -2.834458 -0.032748 8.156785
v -2.776401 -0.151862 8.504137
v -2.776401 0.018778 8.504137
v -2.776401 0.018778 9.843215
v -2.776401 -0.151862 9.761868
v -3.223599 -0.151862 9.101825
v -3.223599 -0.151862 9.744935
v -3.223599 0.018778 9.744935
v -3.223599 0.018778 9.101825
v -3.165542 -0.151862 8.156785
v -3.222405 -0.151862 8.299771
v -3.222405 0.018778 8.299771
v -3.165542 -0.032748 8.156785
v -3.223599 -0.151862 8.504137
v -3.223599 0.018778 8.504137
v -3.223599 -0.151862 9.761868
v -3.223599 0.018778 9.843215
v -2.781191 0.060861 9.744935
v -2.781191 0.060861 9.101825
v -2.744090 0.060861 9.744935
v -2.744090 0.060861 9.101825
v -2.810774 0.034007 8.299336
v -2.779551 0.034007 8.293230
v -2.808817 0.035146 8.504137
v -2.776401 0.035146 8.504137
v -3.218809 0.060861 9.744935
v -3.218809 0.060861 9.101825
v -3.255910 0.060861 9.101825
v -3.255910 0.060861 9.744935
v -3.189226 0.034007 8.299336
v -3.220449 0.034007 8.293230
v -3.191182 0.035146 8.504137
v -3.223599 0.035146 8.504137
v -3.135413 -0.221041 9.154284
v -2.863183 -0.221041 9.154284
v -2.882390 -0.221041 9.692476
v -3.102458 -0.221041 9.692476
v -3.191182 -0.095291 8.504137
v -2.808817 -0.095291 8.504137
v -2.808817 -0.095291 9.101825
v -3.191182 -0.095291 9.101825
v -3.138723 -0.095291 8.556596
v -2.861277 -0.095291 8.556596
v -2.861277 -0.095291 9.049365
v -3.138723 -0.095291 9.049365
v -3.086264 -0.170552 8.609056
v -2.913736 -0.170552 8.609056
v -2.913736 -0.170552 8.996906
v -3.086264 -0.170552 8.996906
vt 0.793079 0.703894
vt 0.725006 0.664529
vt 0.777863 0.157577
vt 0.815816 0.034450
vt 0.201459 0.543491
vt 0.201688 0.487298
vt 0.370238 0.487299
vt 0.369987 0.542833
vt 0.013167 0.311026
vt 0.013514 0.062509
vt 0.000000 0.133948
vt 0.014476 0.225123
vt 0.718755 0.668547
vt 0.403622 0.660470
vt 0.769822 0.157788
vt 0.769597 0.142556
vt 0.464834 0.146356
vt 0.465135 0.065951
vt 0.765873 0.063436
vt 0.456181 0.229179
vt 0.755018 0.232031
vt 0.751674 0.310106
vt 0.456452 0.307845
vt 0.014929 0.240110
vt 0.085379 0.236149
vt 0.089015 0.312397
vt 0.017316 0.296280
vt 0.086892 0.153463
vt 0.085262 0.221818
vt 0.090797 0.061178
vt 0.087024 0.138862
vt 0.015248 0.134765
vt 0.017729 0.077537
vt 0.085201 0.340189
vt 0.086933 0.032858
vt 0.179941 0.234268
vt 0.181101 0.313582
vt 0.183014 0.156110
vt 0.020341 0.861034
vt 0.184626 0.060046
vt 0.183368 0.140862
vt 0.299195 0.876273
vt 0.299463 0.981909
vt 0.256900 0.981953
vt 0.256536 0.875601
vt 0.547551 0.514954
vt 0.548978 0.436276
vt 0.732554 0.437349
vt 0.731128 0.516027
vt 0.454642 0.372657
vt 0.463358 0.000000
vt 0.182692 0.029288
vt 0.179190 0.343769
vt 0.180903 0.480889
vt 0.772838 0.736931
vt 0.768690 0.000053
vt 0.180507 0.462829
vt 0.390859 0.462739
vt 0.391111 0.567197
vt 0.754668 0.372165
vt 0.180884 0.568147
vt 0.374359 0.550995
vt 0.373990 0.479014
vt 0.197397 0.479015
vt 0.197731 0.551881
vt 0.180894 0.550098
vt 0.782662 0.783843
vt 0.777500 0.228063
vt 0.725016 0.847313
vt 0.799303 0.817267
vt 0.800810 0.338227
vt 0.456121 0.214215
vt 0.719158 0.842982
vt 0.755200 0.217071
vt 0.064044 0.551111
vt 0.025339 0.560472
vt 0.023760 0.466552
vt 0.062495 0.475743
vt 0.435680 0.820424
vt 0.436858 0.697077
vt 0.687121 0.705295
vt 0.686116 0.806772
vt 0.810419 0.051031
vt 0.778014 0.141793
vt 0.763258 0.232779
vt 0.795434 0.321987
vt 0.464578 0.023592
vt 0.766272 0.022931
vt 0.764896 0.039587
vt 0.465381 0.040995
vt 0.086282 0.040293
vt 0.088009 0.054250
vt 0.183370 0.036963
vt 0.184677 0.052255
vt 0.752217 0.349843
vt 0.455859 0.349428
vt 0.456661 0.332316
vt 0.750812 0.333557
vt 0.084568 0.332891
vt 0.086274 0.319194
vt 0.179860 0.336237
vt 0.181148 0.321229
vt 0.488106 0.372602
vt 0.488219 0.579665
vt 0.791887 0.372638
vt 0.792000 0.579701
vt 0.513808 0.398483
vt 0.514125 0.553849
vt 0.765980 0.398454
vt 0.766297 0.553820
vt 0.377468 0.856804
vt 0.377489 0.661248
vt 0.403711 0.857585
vt 0.464789 0.161602
vt 0.727940 0.864237
vt 0.816579 0.840223
vt 0.147713 0.661347
vt 0.718999 0.861412
vt 0.813245 0.689731
vt 0.803083 0.739205
vt 0.424398 0.369681
vt 0.482864 0.599336
vt 0.000000 0.861061
vt 0.000174 0.998576
vt 0.020515 0.998551
vt 0.179608 0.219308
vt 0.534706 0.996798
vt 0.320217 0.998599
vt 0.534707 0.859205
vt 0.319386 0.858675
vt 0.236839 1.000000
vt 0.235853 0.858474
vt 0.183918 0.978740
vt 0.091809 0.998486
vt 0.091622 0.860911
vt 0.183604 0.880297
vt 0.141016 0.978476
vt 0.140849 0.880772
vt 0.179137 0.193193
vt 0.455629 0.188102
vt 0.182507 0.182716
vt 0.464258 0.188208
vt 0.718638 0.657809
vt 0.728154 0.654963
vt 0.425057 0.660271
vt 0.485317 0.432189
vt 0.146958 0.369611
vt 0.087954 0.601044
vt 0.087048 0.457810
vt 0.000000 0.441263
vt 0.086503 0.430935
vt 0.088253 0.568764
vt 0.001594 0.585908
vt 0.824292 0.786197
vt 0.792472 0.146552
vt 0.824678 0.056533
vt 0.002509 0.077013
vt 0.014772 0.150035
vt 0.809352 0.316561
vt 0.763210 0.217397
vt 0.002340 0.296772
vt 0.000000 0.240886
vn 0.000000 -0.430319 0.902677
vn 0.000000 -0.430319 0.902677
vn 0.000000 -0.430319 0.902677
vn 0.000000 -0.430319 0.902677
vn 0.000000 1.000000 0.000000
vn 0.000000 1.000000 0.000000
vn 0.000000 1.000000 0.000000
vn 0.000000 1.000000 0.000000
vn 0.040533 0.000000 -0.999178
vn -0.040533 0.000000 -0.999178
vn -0.040533 0.000000 -0.999178
vn 0.040533 0.000000 -0.999178
vn 0.000000 -1.000000 0.000000
vn 0.000000 -1.000000 0.000000
vn 0.000000 -1.000000 0.000000
vn 1.000000 -0.000000 0.000000
vn 1.000000 0.000000 0.000000
vn 0.993020 -0.117938 -0.001025
vn 0.988876 -0.148743 0.000000
vn -1.000000 0.000000 0.000000
vn -1.000000 0.000000 0.000000
vn -0.988876 -0.148744 0.000000
vn -0.993020 -0.117939 -0.001025
vn -0.929218 0.000000 -0.369533
vn -0.988664 0.000000 -0.150144
vn -0.991910 0.003555 -0.126892
vn -0.929231 -0.000112 -0.369499
vn 0.000000 -1.000000 0.000000
vn 0.000000 -1.000000 0.000000
vn 0.000000 -1.000000 0.000000
vn 0.000000 -1.000000 0.000000
vn 0.991910 0.003557 -0.126892
vn 0.988664 0.000000 -0.150145
vn 0.929216 0.000000 -0.369537
vn 0.929230 -0.000112 -0.369502
vn 0.000000 0.935886 -0.352302
vn 0.000000 0.935886 -0.352302
vn 0.000000 0.935886 -0.352302
vn 0.000000 0.935886 -0.352302
vn -0.999999 0.000000 -0.001489
vn -0.998199 -0.059913 -0.003186
vn 0.000000 -1.000000 0.000000
vn 0.000000 -1.000000 0.000000
vn 0.998199 -0.059912 -0.003186
vn 0.999999 0.000000 -0.001489
vn 0.000000 1.000000 0.000000
vn 0.000000 1.000000 0.000000
vn 0.000000 1.000000 0.000000
vn 0.000000 1.000000 0.000000
vn 0.000000 -1.000000 0.000000
vn 0.000000 -1.000000 0.000000
vn 0.000000 -1.000000 0.000000
vn 0.000000 -1.000000 0.000000
vn 0.000000 1.000000 0.000000
vn 0.000000 1.000000 0.000000
vn 0.000000 1.000000 0.000000
vn 0.000000 1.000000 0.000000
vn 0.000000 0.362570 0.931956
vn 0.000000 0.362570 0.931956
vn 0.000000 0.362570 0.931956
vn 0.000000 0.362570 0.931957
vn 0.931956 0.362572 0.000000
vn 0.931956 0.362572 0.000000
vn 0.931956 0.362572 0.000000
vn 0.931956 0.362572 0.000000
vn 0.000000 0.362570 -0.931956
vn 0.000000 0.362570 -0.931957
vn 0.000000 0.362570 -0.931956
vn 0.000000 0.362570 -0.931956
vn -0.931958 0.362566 0.000000
vn -0.931958 0.362566 0.000000
vn -0.931958 0.362566 0.000000
vn -0.931958 0.362566 0.000000
vn 0.000000 1.000000 -0.000000
vn 0.000000 1.000000 -0.000000
vn 0.000000 1.000000 -0.000000
vn 0.000000 1.000000 -0.000000
vn 0.000000 1.000000 0.000000
vn 0.000000 1.000000 0.000000
vn 0.000000 1.000000 0.000000
vn 0.000000 0.000000 -1.000000
vn 0.000000 0.000000 -1.000000
vn 0.000000 0.000000 -1.000000
vn 0.000000 0.000000 -1.000000
vn -1.000000 0.000000 0.000000
vn -1.000000 0.000000 0.000000
vn -1.000000 0.000000 0.000000
vn -1.000000 0.000000 0.000000
vn 0.000000 0.000000 1.000000
vn 0.000000 0.000000 1.000000
vn 0.000000 0.000000 1.000000
vn 0.000000 0.000000 1.000000
vn 1.000000 0.000000 0.000000
vn 1.000000 0.000000 0.000000
vn 1.000000 0.000000 0.000000
vn 1.000000 0.000000 0.000000
vn 0.000000 0.643556 -0.765399
vn 0.000000 0.643556 -0.765399
vn 0.000000 0.643556 -0.765399
vn 0.000000 0.643556 -0.765399
vn -0.765398 0.643557 0.000000
vn -0.765398 0.643557 0.000000
vn -0.765398 0.643557 0.000000
vn -0.765398 0.643557 0.000000
vn 0.000000 0.643556 0.765399
vn 0.000000 0.643556 0.765399
vn 0.000000 0.643556 0.765399
vn 0.000000 0.643556 0.765399
vn 0.765405 0.643549 0.000000
vn 0.765405 0.643549 0.000000
vn 0.765405 0.643549 0.000000
vn 0.765405 0.643549 0.000000
vn 0.000000 1.000000 0.000000
vn 0.000000 1.000000 0.000000
vn 0.000000 1.000000 0.000000
vn 0.000000 0.362570 0.931956
vn 0.000000 0.362570 0.931956
vn 0.000000 0.362570 0.931956
vn 0.000000 0.362570 0.931957
vn 0.000000 -0.430319 0.902677
vn 0.000000 -0.430319 0.902677
vn 0.000000 -0.430319 0.902677
vn 0.000000 -0.430319 0.902677
vn 0.000000 -1.000000 0.000000
vn 0.000000 -1.000000 0.000000
vn 0.000000 -1.000000 0.000000
vn 0.000000 0.000000 1.000000
vn 0.000000 0.000000 1.000000
vn 0.000000 0.000000 1.000000
vn 0.000000 0.000000 1.000000
vn 0.000000 -1.000000 -0.000000
vn 0.000000 -1.000000 -0.000000
vn 0.000000 -1.000000 -0.000000
vn 0.000000 -1.000000 -0.000000
vn 0.745069 -0.156499 0.648368
vn 0.745069 -0.156499 0.648368
vn 0.745069 -0.156499 0.648368
vn 0.745069 -0.156499 0.648368
vn 0.000000 0.761331 0.648363
vn 0.000000 0.761331 0.648363
vn 0.000000 0.761331 0.648363
vn 0.000000 0.761331 0.648363
vn -0.741540 -0.172456 0.648366
vn -0.741540 -0.172456 0.648366
vn -0.741540 -0.172456 0.648366
vn -0.741540 -0.172456 0.648366
vn 0.000000 -0.761331 0.648363
vn 0.000000 -0.761331 0.648363
vn 0.000000 -0.761331 0.648363
vn 0.000000 -0.761331 0.648363
vn -0.974008 -0.226514 0.000000
vn -0.974008 -0.226514 0.000000
vn -0.974008 -0.226514 0.000000
vn -0.974008 -0.226514 0.000000
vn 0.000000 -1.000000 0.000000
vn 0.000000 -1.000000 0.000000
vn 0.997894 -0.064862 0.000000
vn 1.000000 -0.000000 0.000000
vn 0.000000 1.000000 0.000000
vn 0.000000 1.000000 0.000000
vn 0.000000 1.000000 0.000000
vn 0.000000 1.000000 0.000000
vn 0.000000 -1.000000 0.000000
vn 0.000000 -1.000000 0.000000
vn 0.978645 -0.205557 0.000000
vn 0.978645 -0.205557 0.000000
vn 0.978645 -0.205557 0.000000
vn 0.978645 -0.205557 0.000000
vn 0.000000 1.000000 0.000000
vn 0.000000 1.000000 0.000000
vn 0.000000 1.000000 0.000000
vn 0.000000 1.000000 0.000000
vn -1.000000 0.000000 0.000000
vn -0.997894 -0.064862 0.000000
vn 0.000000 -1.000000 0.000000
vn 0.000000 -1.000000 0.000000
vn 0.000000 0.999793 -0.020331
vn 0.000000 0.998143 0.060916
vn 0.000000 0.999005 0.044607
vn 0.000000 0.999807 -0.019647
vn 0.000000 -1.000000 -0.000000
vn 0.000000 -1.000000 -0.000000
vn -0.376742 0.000000 -0.926318
vn -0.376742 0.000000 -0.926318
vn -0.120952 0.906536 -0.404429
vn -0.053792 0.981822 -0.182025
vn -0.054008 0.981677 -0.182739
vn -0.120952 0.906536 -0.404429
vn 0.000000 -1.000000 0.000000
vn -0.000130 0.999433 -0.033679
vn -0.000123 0.999414 -0.034222
vn 0.000000 0.919271 0.393626
vn 0.000000 0.919271 0.393626
vn 0.000000 -0.430318 0.902677
vn 0.000000 -0.430318 0.902677
vn 0.000000 -1.000000 0.000000
vn 0.000000 -1.000000 0.000000
vn 0.000000 -1.000000 0.000000
vn 0.000000 0.998143 0.060916
vn 0.000000 0.999793 -0.020331
vn 0.000000 0.999807 -0.019647
vn 0.000000 0.999005 0.044607
vn 0.000000 -1.000000 0.000000
vn 0.000000 -1.000000 0.000000
vn 0.053791 0.981822 -0.182022
vn 0.120951 0.906537 -0.404428
vn 0.120951 0.906537 -0.404428
vn 0.054007 0.981677 -0.182737
vn 0.376742 0.000000 -0.926318
vn 0.376742 0.000000 -0.926318
vn 0.000000 -1.000000 0.000000
vn 0.000130 0.999433 -0.033679
vn 0.000123 0.999414 -0.034222
vn 0.000000 -1.000000 0.000000
vn 0.000000 -0.430318 0.902678
vn 0.000000 -0.430318 0.902678
vn 0.000000 0.919271 0.393625
vn 0.000000 0.919271 0.393625
vn -0.863387 0.504523 0.004383
vn -0.835967 0.548779 0.000000
vn -0.835967 0.548779 0.000000
vn -0.862735 0.505639 0.004275
vn 0.824731 -0.565505 -0.004768
vn 0.793173 -0.608997 0.000000
vn -0.930469 0.036987 0.364499
vn -0.995145 -0.038309 0.090656
vn -0.990746 -0.027011 0.133011
vn 0.990369 0.026834 -0.135831
vn -0.931493 0.363596 0.010919
vn -0.930828 0.365293 0.010940
vn 0.908976 -0.416641 -0.013128
vn -0.835964 0.548784 0.000000
vn 0.835961 0.548789 0.000000
vn 0.863381 0.504533 0.004384
vn 0.862729 0.505649 0.004275
vn 0.835961 0.548789 0.000000
vn -0.793171 -0.608999 0.000000
vn -0.824730 -0.565506 -0.004768
vn 0.995147 -0.038283 0.090652
vn 0.930472 0.037045 0.364484
vn 0.990748 -0.026981 0.133005
vn -0.990369 0.026814 -0.135829
vn 0.931489 0.363607 0.010919
vn 0.930824 0.365304 0.010940
vn -0.908975 -0.416643 -0.013128
vn 0.835959 0.548792 0.000000
vn 0.000000 -0.604227 -0.796812
vn 0.000000 -0.604227 -0.796812
vn 0.000000 -0.604227 -0.796812
vn 0.000000 -0.604227 -0.796812
vn 0.796299 -0.604236 0.028419
vn 0.796299 -0.604236 0.028419
vn 0.796299 -0.604236 0.028419
vn 0.796299 -0.604236 0.028419
vn 0.000000 -0.604228 0.796812
vn 0.000000 -0.604228 0.796812
vn 0.000000 -0.604228 0.796812
vn 0.000000 -0.604228 0.796812
vn -0.795321 -0.604229 0.048699
vn -0.795321 -0.604229 0.048699
vn -0.795321 -0.604229 0.048699
vn -0.795321 -0.604229 0.048699
vn 0.000000 0.000000 1.000000
vn 0.000000 0.000000 1.000000
vn 0.000000 0.000000 1.000000
vn 0.000000 0.000000 1.000000
vn -1.000000 0.000000 0.000000
vn -1.000000 0.000000 0.000000
vn -1.000000 0.000000 0.000000
vn -1.000000 0.000000 0.000000
vn 0.000000 0.000000 -1.000000
vn 0.000000 0.000000 -1.000000
vn 0.000000 0.000000 -1.000000
vn 0.000000 0.000000 -1.000000
vn 1.000000 0.000000 0.000000
vn 1.000000 0.000000 0.000000
vn 1.000000 0.000000 0.000000
vn 1.000000 0.000000 0.000000
vn 0.000000 -1.000000 -0.000000
vn 0.000000 -1.000000 -0.000000
vn 0.000000 -1.000000 -0.000000
vn 0.000000 -1.000000 -0.000000
vn 0.000000 -1.000000 0.000000
vn 0.000000 -1.000000 0.000000
vn 0.000000 -1.000000 0.000000
vn 0.000000 -1.000000 0.000000
vn 0.000000 -0.571832 -0.820371
vn 0.000000 -0.571832 -0.820371
vn 0.000000 -0.571832 -0.820371
vn 0.000000 -0.571832 -0.820371
vn 0.820374 -0.571827 0.000000
vn 0.820374 -0.571827 0.000000
vn 0.820374 -0.571827 0.000000
vn 0.820374 -0.571827 0.000000
vn 0.000000 -0.571825 0.820376
vn 0.000000 -0.571825 0.820376
vn 0.000000 -0.571825 0.820376
vn 0.000000 -0.571825 0.820376
vn -0.820370 -0.571833 0.000000
vn -0.820370 -0.571833 0.000000
vn -0.820370 -0.571833 0.000000
vn -0.820370 -0.571833 0.000000
s 1
g lander Greebles
usemtl initialShadingGroup
f 47/1/1 48/2/2 49/144/3 50/119/4
s off
f 29/5/5 30/6/6 31/7/7 32/8/8
s 2
f 5/136/9 6/133/10 8/137/11 7/138/12
s 3
f 42/13/13 19/14/14 2/143/15
s 4
f 56/16/16 55/17/17 57/18/18 58/19/19
s 5
f 67/20/20 68/21/21 69/22/22 70/23/23
f 71/24/24 72/25/25 73/26/26 74/27/27
s 3
f 7/138/28 8/137/29 11/134/30 10/135/31
s 4
f 60/30/32 59/31/33 61/32/34 62/33/35
s off
f 9/132/36 12/131/37 6/133/38 5/136/39
s 5
f 72/25/25 75/36/40 76/37/41 73/26/26
s 3
f 10/135/31 11/134/30 15/125/42 14/39/43
s 4
f 64/40/44 63/41/45 59/31/33 60/30/32
s off
f 34/42/46 33/43/47 35/44/48 36/45/49
s 5
f 75/36/40 67/20/20 70/23/23 76/37/41
s off
f 107/46/50 108/47/51 109/48/52 110/49/53
s 4
f 57/18/18 55/17/17 63/41/45 64/40/44
s off
f 17/129/54 20/127/55 16/128/56 13/130/57
s 9
f 40/54/58 41/149/59 4/151/60 22/57/61
s off
f 4/147/62 20/121/63 23/58/64 22/57/65
f 20/146/66 17/122/67 24/59/68 23/58/69
f 17/145/70 3/117/71 21/61/72 24/59/73
s 10
f 23/58/74 24/59/75 28/62/76 27/63/77
f 26/64/78 40/54/79 22/57/80 23/58/74 27/63/77
s off
f 25/65/81 26/64/82 30/6/83 29/5/84
f 26/64/85 27/63/86 31/7/87 30/6/88
f 27/63/89 28/62/90 32/8/91 31/7/92
f 28/62/93 25/65/94 29/5/95 32/8/96
f 13/130/97 16/128/98 33/43/99 34/42/100
f 16/128/101 12/131/102 35/44/103 33/43/104
f 12/131/105 9/132/106 36/45/107 35/44/108
f 9/132/109 13/130/110 34/42/111 36/45/112
s 10
f 37/66/113 25/65/114 28/62/76 24/59/75 21/61/115
s 9
f 3/148/116 38/152/117 37/66/118 21/61/119
s 11
f 51/115/120 52/69/121 53/70/122 54/116/123
s 3
f 18/113/124 39/73/125 1/118/126
s 10
f 26/64/78 25/65/114 37/66/113 40/54/79
s 9
f 37/66/118 38/152/117 41/149/59 40/54/58
s off
f 43/75/127 44/76/128 45/77/129 46/78/130
f 95/79/131 96/80/132 97/81/133 98/82/134
f 38/152/135 39/153/136 44/76/137 43/75/138
f 39/153/139 42/150/140 45/77/141 44/76/142
f 42/150/143 41/149/144 46/78/145 45/77/146
f 41/149/147 38/152/148 43/75/149 46/78/150
f 41/55/151 42/13/152 48/2/153 47/1/154
s 3
f 42/13/13 2/143/15 49/144/155 48/2/156
s 4
f 56/16/16 58/19/19 65/83/157 66/84/158
s off
f 4/120/159 41/55/160 47/1/161 50/119/162
s 3
f 1/118/126 39/73/125 52/69/163 51/115/164
s off
f 39/73/165 38/67/166 53/70/167 52/69/168
f 38/67/169 3/154/170 54/116/171 53/70/172
s 5
f 69/22/22 68/21/21 77/85/173 78/86/174
s 3
f 2/15/15 19/114/14 55/17/175 56/16/176
s 13
f 80/87/177 79/88/178 81/89/179 82/90/180
s 3
f 11/28/30 8/158/29 61/32/181 59/31/182
s 2
f 8/11/11 6/157/10 62/33/183 61/32/184
s 13
f 6/10/185 83/91/186 84/92/187 62/33/188
s 3
f 15/38/42 11/28/30 59/31/182 63/41/189
s 13
f 83/91/186 85/93/190 86/94/191 84/92/187
s 3
f 19/114/14 15/38/42 63/41/189 55/17/175
s 13
f 85/93/190 80/87/177 82/90/180 86/94/191
f 79/88/178 50/4/192 65/83/193 81/89/179
s 1
f 50/156/4 49/155/3 66/84/194 65/83/195
s 3
f 49/3/155 2/15/15 56/16/176 66/84/196
f 18/72/124 1/74/126 68/21/197 67/20/198
s 15
f 87/95/199 88/96/200 89/97/201 90/98/202
s 3
f 7/12/28 10/29/31 72/25/203 71/24/204
s 15
f 91/99/205 5/9/206 74/27/207 92/100/208
s 2
f 5/161/9 7/162/12 71/24/209 74/27/210
s 3
f 10/29/31 14/126/43 75/36/211 72/25/203
s 15
f 93/101/212 91/99/205 92/100/208 94/102/213
s 3
f 14/126/43 18/72/124 67/20/198 75/36/211
s 15
f 88/96/200 93/101/212 94/102/213 89/97/201
s 3
f 1/74/126 51/160/164 77/85/214 68/21/197
s 11
f 51/68/120 54/159/123 78/86/215 77/85/216
s 15
f 54/71/217 87/95/199 90/98/202 78/86/218
s 17
f 20/51/219 4/56/220 79/88/221 80/87/222
s 4
f 58/19/19 57/18/18 82/90/223 81/89/224
s 17
f 6/10/225 12/35/226 83/91/227
s 4
f 60/30/32 62/33/35 84/92/228
s 17
f 12/35/226 16/52/229 85/93/230 83/91/227
s 4
f 64/40/44 60/30/32 84/92/228 86/94/231
s 17
f 16/52/229 20/51/219 80/87/222 85/93/230
s 4
f 57/18/18 64/40/44 86/94/231 82/90/223
s 17
f 4/56/220 50/4/232 79/88/221
s 4
f 65/83/157 58/19/19 81/89/224
s 19
f 3/60/233 17/50/234 88/96/235 87/95/236
s 5
f 70/23/23 69/22/22 90/98/237 89/97/238
s 19
f 9/34/239 5/9/240 91/99/241
s 5
f 74/27/27 73/26/26 92/100/242
s 19
f 13/53/243 9/34/239 91/99/241 93/101/244
s 5
f 73/26/26 76/37/41 94/102/245 92/100/242
s 19
f 17/50/234 13/53/243 93/101/244 88/96/235
s 5
f 76/37/41 70/23/23 89/97/238 94/102/245
s 19
f 54/71/246 3/60/233 87/95/236
s 5
f 69/22/22 78/86/174 90/98/237
s off
f 18/113/247 19/14/248 96/80/249 95/79/250
f 19/14/251 42/13/252 97/81/253 96/80/254
f 42/13/255 39/73/256 98/82/257 97/81/258
f 39/73/259 18/113/260 95/79/261 98/82/262
f 14/39/263 15/125/264 100/124/265 99/123/266
f 15/38/267 19/114/268 101/142/269 100/141/270
f 19/14/271 18/113/272 102/111/273 101/112/274
f 18/72/275 14/126/276 99/139/277 102/140/278
s 21
f 99/104/279 100/103/280 104/107/281 103/108/282
f 100/103/280 101/105/283 105/109/284 104/107/281
f 101/105/283 102/106/285 106/110/286 105/109/284
f 102/106/285 99/104/279 103/108/282 106/110/286
s off
f 103/108/287 104/107/288 108/47/289 107/46/290
f 104/107/291 105/109/292 109/48/293 108/47/294
f 105/109/295 106/110/296 110/49/297 109/48/298
f 106/110/299 103/108/300 107/46/301 110/49/302
