# This file uses centimeters as units for non-parametric coordinates.

mtllib LightSwitchLP.mtl
g default
v -0.683329 0.002362 1.149961
v -0.683329 0.373621 1.360439
v -0.207834 0.002362 1.149961
v -0.207834 0.373621 1.360439
v -0.683329 2.106410 1.360439
v -0.683329 2.477669 1.149961
v -0.207834 2.477669 1.149961
v -0.207834 2.106410 1.360439
v -0.683329 2.477669 -1.149961
v -0.683329 2.106410 -1.360439
v -0.207834 2.106410 -1.360439
v -0.207834 2.477669 -1.149961
v -0.683329 0.373621 -1.360439
v -0.683329 0.002362 -1.149961
v -0.207834 0.002362 -1.149961
v -0.207834 0.373621 -1.360439
v -0.023915 0.761843 0.214343
v 0.249779 0.838856 0.214343
v -0.172357 1.666080 0.214343
v 0.101337 1.743093 0.214343
v -0.172357 1.666080 0.640824
v 0.101337 1.743093 0.640824
v -0.023915 0.761843 0.640824
v 0.249779 0.838856 0.640824
v -0.023915 0.761843 -0.611520
v 0.249779 0.838856 -0.611520
v -0.172357 1.666080 -0.611520
v 0.101337 1.743093 -0.611520
v -0.172357 1.666080 -0.185039
v 0.101337 1.743093 -0.185039
v -0.023915 0.761843 -0.185039
v 0.249779 0.838856 -0.185039
v -0.289824 0.355001 0.969380
v -0.289824 2.129690 0.969380
v -0.289824 2.129690 -0.969380
v -0.289824 0.355001 -0.969380
v 0.025464 0.416291 0.918921
v -0.132164 0.355001 0.969380
v -0.132164 2.129690 0.969380
v 0.025464 2.068400 0.918921
v -0.132164 2.129690 -0.969380
v 0.025464 2.068400 -0.918921
v -0.132164 0.355001 -0.969380
v 0.025464 0.416291 -0.918921
vt 0.077052 0.657379
vt 0.135109 0.657379
vt 0.135109 0.874111
vt 0.077052 0.874111
vt 0.184279 0.981347
vt 0.184279 0.921704
vt 0.693145 0.921704
vt 0.693145 0.981347
vt 0.799821 0.876109
vt 0.740286 0.876109
vt 0.740286 0.658734
vt 0.799821 0.658734
vt 0.694164 0.551469
vt 0.694164 0.611133
vt 0.185072 0.611133
vt 0.185072 0.551469
vt 0.077052 0.593667
vt 0.135109 0.593667
vt 0.077052 0.939561
vt 0.135109 0.939561
vt 0.799821 0.942000
vt 0.740286 0.942000
vt 0.799821 0.593104
vt 0.740286 0.593104
vt 0.673415 0.532852
vt 0.816878 0.532858
vt 0.816846 0.476003
vt 0.673416 0.476008
vt 0.873720 0.476002
vt 0.873718 0.389413
vt 0.816846 0.389404
vt 0.816879 0.332559
vt 0.673414 0.332562
vt 0.673416 0.389406
vt 0.616570 0.389404
vt 0.616570 0.476010
vt 0.673415 0.532852
vt 0.816878 0.532858
vt 0.816846 0.476003
vt 0.673416 0.476008
vt 0.873720 0.476002
vt 0.873718 0.389413
vt 0.816846 0.389404
vt 0.816879 0.332559
vt 0.673414 0.332562
vt 0.673416 0.389406
vt 0.616570 0.389404
vt 0.616570 0.476010
vt 0.081324 0.104972
vt 0.108127 0.461317
vt 0.134901 0.407711
vt 0.436538 0.434515
vt 0.382965 0.407718
vt 0.409763 0.078169
vt 0.382955 0.131751
vt 0.108146 0.488136
vt 0.409767 0.461298
vt 0.409777 0.488091
vt 0.463324 0.434520
vt 0.436535 0.104953
vt 0.463329 0.104949
vt 0.409781 0.051377
vt 0.108127 0.078151
vt 0.108146 0.051332
vt 0.054535 0.104978
vt 0.081324 0.434496
vt 0.054535 0.434489
vt 0.134901 0.131758
vn 0.000000 0.000000 1.000000
vn 0.000000 0.000000 1.000000
vn 0.000000 0.000000 1.000000
vn 0.000000 0.000000 1.000000
vn 0.000000 1.000000 0.000000
vn 0.000000 1.000000 0.000000
vn 0.000000 1.000000 0.000000
vn 0.000000 1.000000 0.000000
vn 0.000000 0.000000 -1.000000
vn 0.000000 0.000000 -1.000000
vn 0.000000 0.000000 -1.000000
vn 0.000000 0.000000 -1.000000
vn 0.000000 -1.000000 0.000000
vn 0.000000 -1.000000 0.000000
vn 0.000000 -1.000000 0.000000
vn 0.000000 -1.000000 0.000000
vn 1.000000 0.000000 0.000000
vn 1.000000 0.000000 0.000000
vn 1.000000 0.000000 0.000000
vn 1.000000 0.000000 0.000000
vn 0.000000 -0.493186 0.869924
vn 0.000000 -0.493186 0.869924
vn 0.000000 -0.493186 0.869924
vn 0.000000 -0.493186 0.869924
vn 0.000000 0.493186 0.869924
vn 0.000000 0.493186 0.869924
vn 0.000000 0.493186 0.869924
vn 0.000000 0.493186 0.869924
vn 0.000000 0.493186 -0.869924
vn 0.000000 0.493186 -0.869924
vn 0.000000 0.493186 -0.869924
vn 0.000000 0.493186 -0.869924
vn 0.000000 -0.493186 -0.869924
vn 0.000000 -0.493186 -0.869924
vn 0.000000 -0.493186 -0.869924
vn 0.000000 -0.493186 -0.869924
vn 0.000000 0.000000 -1.000000
vn 0.000000 0.000000 -1.000000
vn 0.000000 0.000000 -1.000000
vn 0.000000 0.000000 -1.000000
vn -0.270861 0.962619 0.000000
vn -0.270861 0.962619 0.000000
vn -0.270861 0.962619 0.000000
vn -0.270861 0.962619 0.000000
vn 0.000000 0.000000 1.000000
vn 0.000000 0.000000 1.000000
vn 0.000000 0.000000 1.000000
vn 0.000000 0.000000 1.000000
vn 0.270863 -0.962618 0.000000
vn 0.270863 -0.962618 0.000000
vn 0.270863 -0.962618 0.000000
vn 0.270863 -0.962618 0.000000
vn 0.986792 0.161994 0.000000
vn 0.986792 0.161994 0.000000
vn 0.986792 0.161994 0.000000
vn 0.986792 0.161994 0.000000
vn 0.000000 0.000000 -1.000000
vn 0.000000 0.000000 -1.000000
vn 0.000000 0.000000 -1.000000
vn 0.000000 0.000000 -1.000000
vn -0.270861 0.962619 0.000000
vn -0.270861 0.962619 0.000000
vn -0.270861 0.962619 0.000000
vn -0.270861 0.962619 0.000000
vn 0.000000 0.000000 1.000000
vn 0.000000 0.000000 1.000000
vn 0.000000 0.000000 1.000000
vn 0.000000 0.000000 1.000000
vn 0.270863 -0.962618 0.000000
vn 0.270863 -0.962618 0.000000
vn 0.270863 -0.962618 0.000000
vn 0.270863 -0.962618 0.000000
vn 0.986792 0.161994 0.000000
vn 0.986792 0.161994 0.000000
vn 0.986792 0.161994 0.000000
vn 0.986792 0.161994 0.000000
vn 0.362395 -0.932025 0.000000
vn 0.362395 -0.932025 0.000000
vn 0.362395 -0.932025 0.000000
vn 0.362395 -0.932025 0.000000
vn 0.304876 0.000000 0.952392
vn 0.304876 0.000000 0.952392
vn 0.304876 0.000000 0.952392
vn 0.304876 0.000000 0.952392
vn 0.362395 0.932024 0.000000
vn 0.362395 0.932025 0.000000
vn 0.362395 0.932025 0.000000
vn 0.362395 0.932024 0.000000
vn 0.304876 0.000000 -0.952392
vn 0.304876 0.000000 -0.952392
vn 0.304876 0.000000 -0.952392
vn 0.304876 0.000000 -0.952392
vn 0.000000 0.000000 1.000000
vn 0.000000 0.000000 1.000000
vn 0.000000 0.000000 1.000000
vn 0.000000 0.000000 1.000000
vn 0.000000 1.000000 0.000000
vn 0.000000 1.000000 0.000000
vn 0.000000 1.000000 0.000000
vn 0.000000 1.000000 0.000000
vn 0.000000 0.000000 -1.000000
vn 0.000000 0.000000 -1.000000
vn 0.000000 0.000000 -1.000000
vn 0.000000 0.000000 -1.000000
vn 0.000000 -1.000000 0.000000
vn 0.000000 -1.000000 0.000000
vn 0.000000 -1.000000 0.000000
vn 0.000000 -1.000000 0.000000
vn 1.000000 0.000000 0.000000
vn 1.000000 0.000000 0.000000
vn 1.000000 0.000000 0.000000
vn 1.000000 0.000000 0.000000
vn 1.000000 0.000000 0.000000
vn 1.000000 0.000000 0.000000
vn 1.000000 0.000000 0.000000
vn 1.000000 0.000000 0.000000
s off
g polySurface2
usemtl initialShadingGroup
f 2/1/1 4/2/2 8/3/3 5/4/4
f 6/5/5 7/6/6 12/7/7 9/8/8
f 10/9/9 11/10/10 16/11/11 13/12/12
f 14/13/13 15/14/14 3/15/15 1/16/16
s 1
f 4/2/17 3/15/18 15/14/19 16/11/20
s off
f 2/1/21 1/17/22 3/18/23 4/2/24
f 6/19/25 5/4/26 8/3/27 7/20/28
f 10/9/29 9/21/30 12/22/31 11/10/32
f 14/23/33 13/12/34 16/11/35 15/24/36
f 17/25/37 19/26/38 20/27/39 18/28/40
f 19/29/41 21/30/42 22/31/43 20/27/44
f 21/32/45 23/33/46 24/34/47 22/31/48
f 23/35/49 17/36/50 18/28/51 24/34/52
f 18/28/53 20/27/54 22/31/55 24/34/56
f 25/37/57 27/38/58 28/39/59 26/40/60
f 27/41/61 29/42/62 30/43/63 28/39/64
f 29/44/65 31/45/66 32/46/67 30/43/68
f 31/47/69 25/48/70 26/40/71 32/46/72
f 26/40/73 28/39/74 30/43/75 32/46/76
f 37/51/77 38/66/78 43/49/79 44/68/80
f 38/50/81 37/51/82 40/53/83 39/57/84
f 39/52/85 40/53/86 42/55/87 41/60/88
f 41/54/89 42/55/90 44/68/91 43/63/92
f 33/56/93 38/50/94 39/57/95 34/58/96
f 34/59/97 39/52/98 41/60/99 35/61/100
f 35/62/101 41/54/102 43/63/103 36/64/104
f 36/65/105 43/49/106 38/66/107 33/67/108
f 37/51/109 44/68/110 42/55/111 40/53/112
s 1
f 8/3/113 11/10/114 12/7/115 7/6/116
f 4/2/17 16/11/20 11/10/114 8/3/113
